{
.appVersion = "1192";
DisplayStrings = (
ALMNSVWXYZkwxyz,

glyphs = (
{
color = 4;
glyphname = A;
lastChange = "2019-06-11 22:58:30 +0000";
layers = (
{
anchors = (
{
name = bottom;
position = "{282, 0}";
},
{
name = ogonek;
position = "{534, 50}";
},
{
name = top;
position = "{251, 700}";
}
);
layerId = "24C63A81-7FC6-4EE9-AF2B-C1140AFD6C4B";
paths = (
{
closed = 1;
nodes = (
"545 69 OFFCURVE",
"523 135 OFFCURVE",
"474 263 CURVE",
"488 271 OFFCURVE",
"496 286 OFFCURVE",
"494 303 CURVE",
"490 326 OFFCURVE",
"469 341 OFFCURVE",
"446 337 CURVE",
"391 478 OFFCURVE",
"334 622 OFFCURVE",
"324 643 CURVE SMOOTH",
"307 676 OFFCURVE",
"290 700 OFFCURVE",
"251 700 CURVE SMOOTH",
"222 700 OFFCURVE",
"198 680 OFFCURVE",
"182 641 CURVE SMOOTH",
"161 587 OFFCURVE",
"15 103 OFFCURVE",
"12 50 CURVE SMOOTH",
"11 34 OFFCURVE",
"20 7 OFFCURVE",
"41 1 CURVE SMOOTH",
"57 -4 OFFCURVE",
"82 5 OFFCURVE",
"90 30 CURVE SMOOTH",
"138 198 LINE",
"393 246 LINE",
"436 134 OFFCURVE",
"472 38 OFFCURVE",
"474 27 CURVE SMOOTH",
"477 12 OFFCURVE",
"492 0 OFFCURVE",
"512 0 CURVE SMOOTH",
"537 0 OFFCURVE",
"552 20 OFFCURVE",
"552 40 CURVE SMOOTH",
"552 44 OFFCURVE",
"551 49 OFFCURVE",
"550 53 CURVE"
);
},
{
closed = 1;
nodes = (
"163 284 LINE",
"192 389 OFFCURVE",
"224 500 OFFCURVE",
"244 579 CURVE SMOOTH",
"249 598 OFFCURVE",
"260 598 OFFCURVE",
"267 580 CURVE SMOOTH",
"287 519 OFFCURVE",
"326 420 OFFCURVE",
"364 321 CURVE"
);
}
);
width = 564;
}
);
leftMetricsKey = V;
rightMetricsKey = V;
unicode = 0041;
},
{
color = 1;
glyphname = B;
lastChange = "2018-12-25 00:10:52 +0000";
layers = (
{
layerId = "24C63A81-7FC6-4EE9-AF2B-C1140AFD6C4B";
paths = (
{
closed = 1;
nodes = (
"84 670 OFFCURVE",
"44 656 OFFCURVE",
"44 625 CURVE SMOOTH",
"44 607 OFFCURVE",
"60 596 OFFCURVE",
"84 596 CURVE",
"84 40 LINE SMOOTH",
"84 17 OFFCURVE",
"101 0 OFFCURVE",
"124 0 CURVE SMOOTH",
"125 0 LINE SMOOTH",
"241 0 OFFCURVE",
"531 50 OFFCURVE",
"531 229 CURVE SMOOTH",
"531 330 OFFCURVE",
"446 397 OFFCURVE",
"292 397 CURVE",
"386 426 OFFCURVE",
"463 467 OFFCURVE",
"463 567 CURVE SMOOTH",
"463 672 OFFCURVE",
"379 700 OFFCURVE",
"286 700 CURVE SMOOTH",
"225 700 OFFCURVE",
"160 688 OFFCURVE",
"113 677 CURVE SMOOTH"
);
},
{
closed = 1;
nodes = (
"164 610 LINE",
"205 618 OFFCURVE",
"257 628 OFFCURVE",
"296 628 CURVE SMOOTH",
"348 628 OFFCURVE",
"383 611 OFFCURVE",
"383 567 CURVE SMOOTH",
"383 472 OFFCURVE",
"220 434 OFFCURVE",
"164 423 CURVE"
);
},
{
closed = 1;
nodes = (
"164 341 LINE",
"180 342 OFFCURVE",
"201 343 OFFCURVE",
"225 343 CURVE SMOOTH",
"319 343 OFFCURVE",
"451 317 OFFCURVE",
"451 227 CURVE SMOOTH",
"451 116 OFFCURVE",
"247 91 OFFCURVE",
"164 83 CURVE"
);
}
);
width = 575;
}
);
unicode = 0042;
},
{
color = 7;
glyphname = C;
lastChange = "2018-12-27 13:26:16 +0000";
layers = (
{
anchors = (
{
name = bottom;
position = "{323, 10}";
},
{
name = top;
position = "{333, 700}";
}
);
layerId = "24C63A81-7FC6-4EE9-AF2B-C1140AFD6C4B";
paths = (
{
closed = 1;
nodes = (
"170 697 OFFCURVE",
"44 570 OFFCURVE",
"44 341 CURVE SMOOTH",
"44 116 OFFCURVE",
"156 3 OFFCURVE",
"328 3 CURVE SMOOTH",
"471 3 OFFCURVE",
"581 78 OFFCURVE",
"581 177 CURVE SMOOTH",
"581 197 OFFCURVE",
"566 216 OFFCURVE",
"542 216 CURVE SMOOTH",
"526 216 OFFCURVE",
"510 206 OFFCURVE",
"504 191 CURVE SMOOTH",
"477 125 OFFCURVE",
"425 85 OFFCURVE",
"334 85 CURVE SMOOTH",
"203 85 OFFCURVE",
"123 169 OFFCURVE",
"123 335 CURVE SMOOTH",
"123 492 OFFCURVE",
"193 616 OFFCURVE",
"343 616 CURVE SMOOTH",
"417 616 OFFCURVE",
"476 585 OFFCURVE",
"499 530 CURVE",
"504 514 OFFCURVE",
"520 503 OFFCURVE",
"536 503 CURVE SMOOTH",
"554 503 OFFCURVE",
"576 518 OFFCURVE",
"576 543 CURVE SMOOTH",
"576 548 OFFCURVE",
"575 553 OFFCURVE",
"574 557 CURVE SMOOTH",
"540 651 OFFCURVE",
"451 697 OFFCURVE",
"344 697 CURVE SMOOTH"
);
}
);
width = 625;
}
);
leftKerningGroup = upRounded;
leftMetricsKey = O;
unicode = 0043;
},
{
color = 1;
glyphname = D;
lastChange = "2018-12-27 14:26:51 +0000";
layers = (
{
anchors = (
{
name = bottom;
position = "{318, 0}";
},
{
name = center;
position = "{119, 350}";
},
{
name = top;
position = "{318, 700}";
}
);
layerId = "24C63A81-7FC6-4EE9-AF2B-C1140AFD6C4B";
paths = (
{
closed = 1;
nodes = (
"79 692 OFFCURVE",
"44 678 OFFCURVE",
"44 641 CURVE SMOOTH",
"44 622 OFFCURVE",
"58 604 OFFCURVE",
"89 604 CURVE",
"89 77 LINE SMOOTH",
"89 22 OFFCURVE",
"119 0 OFFCURVE",
"182 0 CURVE SMOOTH",
"425 0 OFFCURVE",
"591 79 OFFCURVE",
"591 314 CURVE SMOOTH",
"591 526 OFFCURVE",
"460 692 OFFCURVE",
"167 692 CURVE SMOOTH"
);
},
{
closed = 1;
nodes = (
"169 611 LINE",
"303 611 OFFCURVE",
"511 564 OFFCURVE",
"511 333 CURVE SMOOTH",
"511 86 OFFCURVE",
"269 75 OFFCURVE",
"169 82 CURVE"
);
}
);
width = 635;
}
);
rightKerningGroup = upRounded;
rightMetricsKey = O;
unicode = 0044;
},
{
color = 1;
glyphname = E;
lastChange = "2019-01-06 13:10:55 +0000";
layers = (
{
anchors = (
{
name = bottom;
position = "{292, 0}";
},
{
name = ogonek;
position = "{525, 50}";
},
{
name = top;
position = "{292, 700}";
},
{
name = topleft;
position = "{20, 700}";
}
);
layerId = "24C63A81-7FC6-4EE9-AF2B-C1140AFD6C4B";
paths = (
{
closed = 1;
nodes = (
"113 698 OFFCURVE",
"81 700 OFFCURVE",
"79 633 CURVE SMOOTH",
"72 401 LINE",
"60 399 OFFCURVE",
"44 386 OFFCURVE",
"44 363 CURVE SMOOTH",
"44 340 OFFCURVE",
"61 328 OFFCURVE",
"72 325 CURVE",
"72 98 OFFCURVE",
"74 27 OFFCURVE",
"99 9 CURVE SMOOTH",
"113 -1 OFFCURVE",
"141 -4 OFFCURVE",
"192 -4 CURVE SMOOTH",
"257 -4 OFFCURVE",
"358 -7 OFFCURVE",
"502 6 CURVE SMOOTH",
"525 8 OFFCURVE",
"540 29 OFFCURVE",
"539 51 CURVE SMOOTH",
"538 73 OFFCURVE",
"519 87 OFFCURVE",
"496 86 CURVE SMOOTH",
"159 76 LINE",
"152 326 LINE SMOOTH",
"413 334 LINE SMOOTH",
"445 335 OFFCURVE",
"460 357 OFFCURVE",
"457 379 CURVE",
"455 401 OFFCURVE",
"435 415 OFFCURVE",
"411 414 CURVE SMOOTH",
"152 407 LINE SMOOTH",
"159 617 LINE SMOOTH",
"171 618 OFFCURVE",
"190 619 OFFCURVE",
"213 619 CURVE SMOOTH",
"307 619 OFFCURVE",
"467 614 OFFCURVE",
"486 612 CURVE SMOOTH",
"519 609 OFFCURVE",
"537 626 OFFCURVE",
"538 648 CURVE",
"540 670 OFFCURVE",
"525 689 OFFCURVE",
"492 692 CURVE SMOOTH",
"450 696 OFFCURVE",
"250 700 OFFCURVE",
"189 698 CURVE SMOOTH"
);
}
);
width = 583;
}
);
unicode = 0045;
},
{
color = 1;
glyphname = F;
lastChange = "2019-06-11 22:23:07 +0000";
layers = (
{
layerId = "24C63A81-7FC6-4EE9-AF2B-C1140AFD6C4B";
paths = (
{
closed = 1;
nodes = (
"444 706 OFFCURVE",
"379 704 OFFCURVE",
"300 704 CURVE SMOOTH",
"144 704 OFFCURVE",
"114 693 OFFCURVE",
"99 683 CURVE SMOOTH",
"75 668 OFFCURVE",
"68 637 OFFCURVE",
"65 560 CURVE SMOOTH",
"63 504 OFFCURVE",
"64 450 OFFCURVE",
"66 384 CURVE",
"52 376 OFFCURVE",
"42 360 OFFCURVE",
"45 344 CURVE SMOOTH",
"47 331 OFFCURVE",
"57 318 OFFCURVE",
"68 312 CURVE",
"72 172 OFFCURVE",
"78 69 OFFCURVE",
"78 42 CURVE SMOOTH",
"78 16 OFFCURVE",
"98 -1 OFFCURVE",
"119 0 CURVE SMOOTH",
"145 1 OFFCURVE",
"160 18 OFFCURVE",
"160 42 CURVE SMOOTH",
"160 64 OFFCURVE",
"152 176 OFFCURVE",
"147 315 CURVE",
"386 326 LINE SMOOTH",
"419 328 OFFCURVE",
"433 351 OFFCURVE",
"430 372 CURVE SMOOTH",
"427 395 OFFCURVE",
"405 407 OFFCURVE",
"383 406 CURVE SMOOTH",
"145 395 LINE",
"144 443 OFFCURVE",
"143 490 OFFCURVE",
"144 534 CURVE SMOOTH",
"145 582 OFFCURVE",
"148 604 OFFCURVE",
"150 617 CURVE",
"167 620 OFFCURVE",
"210 624 OFFCURVE",
"308 624 CURVE SMOOTH",
"382 624 OFFCURVE",
"441 621 OFFCURVE",
"462 621 CURVE SMOOTH",
"484 621 OFFCURVE",
"503 638 OFFCURVE",
"503 660 CURVE SMOOTH",
"504 682 OFFCURVE",
"487 706 OFFCURVE",
"455 706 CURVE SMOOTH"
);
}
);
width = 503;
}
);
unicode = 0046;
},
{
color = 7;
glyphname = G;
lastChange = "2019-06-11 22:39:45 +0000";
layers = (
{
anchors = (
{
name = bottom;
position = "{335, 0}";
},
{
name = top;
position = "{335, 700}";
}
);
layerId = "24C63A81-7FC6-4EE9-AF2B-C1140AFD6C4B";
paths = (
{
closed = 1;
nodes = (
"623 351 OFFCURVE",
"603 363 OFFCURVE",
"579 362 CURVE SMOOTH",
"328 349 LINE SMOOTH",
"306 348 OFFCURVE",
"291 329 OFFCURVE",
"293 310 CURVE SMOOTH",
"295 291 OFFCURVE",
"312 278 OFFCURVE",
"333 279 CURVE SMOOTH",
"507 288 LINE",
"507 279 OFFCURVE",
"506 261 OFFCURVE",
"505 249 CURVE SMOOTH",
"497 163 OFFCURVE",
"459 111 OFFCURVE",
"388 90 CURVE SMOOTH",
"228 42 OFFCURVE",
"124 175 OFFCURVE",
"124 346 CURVE SMOOTH",
"124 500 OFFCURVE",
"208 625 OFFCURVE",
"337 625 CURVE SMOOTH",
"409 625 OFFCURVE",
"461 572 OFFCURVE",
"477 527 CURVE SMOOTH",
"488 497 OFFCURVE",
"509 479 OFFCURVE",
"536 487 CURVE SMOOTH",
"561 494 OFFCURVE",
"569 513 OFFCURVE",
"565 535 CURVE SMOOTH",
"546 642 OFFCURVE",
"438 705 OFFCURVE",
"335 705 CURVE SMOOTH",
"140 705 OFFCURVE",
"44 524 OFFCURVE",
"44 347 CURVE SMOOTH",
"44 139 OFFCURVE",
"159 0 OFFCURVE",
"328 0 CURVE SMOOTH",
"443 0 OFFCURVE",
"567 61 OFFCURVE",
"585 233 CURVE SMOOTH",
"587 260 OFFCURVE",
"588 279 OFFCURVE",
"588 291 CURVE",
"614 294 OFFCURVE",
"629 312 OFFCURVE",
"626 332 CURVE SMOOTH"
);
}
);
width = 670;
}
);
leftKerningGroup = upRounded;
leftMetricsKey = O;
rightMetricsKey = O;
unicode = 0047;
},
{
color = 1;
glyphname = H;
lastChange = "2018-12-25 00:10:52 +0000";
layers = (
{
layerId = "24C63A81-7FC6-4EE9-AF2B-C1140AFD6C4B";
paths = (
{
closed = 1;
nodes = (
"448 703 OFFCURVE",
"430 685 OFFCURVE",
"430 663 CURVE SMOOTH",
"429 401 LINE",
"328 401 OFFCURVE",
"270 385 OFFCURVE",
"125 385 CURVE",
"124 663 LINE SMOOTH",
"124 685 OFFCURVE",
"106 703 OFFCURVE",
"84 703 CURVE SMOOTH",
"61 703 OFFCURVE",
"44 685 OFFCURVE",
"44 663 CURVE SMOOTH",
"44 343 LINE",
"44 40 LINE SMOOTH",
"44 18 OFFCURVE",
"61 0 OFFCURVE",
"84 0 CURVE SMOOTH",
"106 0 OFFCURVE",
"124 18 OFFCURVE",
"124 40 CURVE SMOOTH",
"124 314 LINE",
"243 314 OFFCURVE",
"333 327 OFFCURVE",
"430 327 CURVE",
"430 40 LINE SMOOTH",
"430 18 OFFCURVE",
"448 0 OFFCURVE",
"470 0 CURVE SMOOTH",
"492 0 OFFCURVE",
"510 18 OFFCURVE",
"510 40 CURVE SMOOTH",
"510 663 LINE SMOOTH",
"510 685 OFFCURVE",
"492 703 OFFCURVE",
"470 703 CURVE SMOOTH"
);
}
);
width = 554;
}
);
unicode = 0048;
},
{
color = 1;
glyphname = I;
lastChange = "2018-12-27 13:37:41 +0000";
layers = (
{
anchors = (
{
name = bottom;
position = "{147, 0}";
},
{
name = ogonek;
position = "{235, 45}";
},
{
name = top;
position = "{147, 700}";
},
{
name = topleft;
position = "{20, 700}";
}
);
layerId = "24C63A81-7FC6-4EE9-AF2B-C1140AFD6C4B";
paths = (
{
closed = 1;
nodes = (
"186 78 LINE",
"186 627 LINE",
"214 629 LINE SMOOTH",
"236 631 OFFCURVE",
"252 649 OFFCURVE",
"250 669 CURVE SMOOTH",
"248 689 OFFCURVE",
"229 702 OFFCURVE",
"207 701 CURVE SMOOTH",
"90 696 LINE SMOOTH",
"58 695 OFFCURVE",
"42 677 OFFCURVE",
"44 657 CURVE",
"45 638 OFFCURVE",
"63 622 OFFCURVE",
"84 623 CURVE SMOOTH",
"106 624 LINE",
"106 76 LINE",
"80 74 LINE SMOOTH",
"58 72 OFFCURVE",
"42 53 OFFCURVE",
"44 32 CURVE",
"45 13 OFFCURVE",
"63 -2 OFFCURVE",
"83 -2 CURVE SMOOTH",
"87 -2 LINE",
"214 3 LINE SMOOTH",
"236 4 OFFCURVE",
"252 23 OFFCURVE",
"250 44 CURVE SMOOTH",
"248 65 OFFCURVE",
"229 78 OFFCURVE",
"207 78 CURVE SMOOTH"
);
}
);
width = 294;
}
);
unicode = 0049;
},
{
glyphname = IJ;
lastChange = "2014-09-27 15:23:54 +0000";
layers = (
{
layerId = "24C63A81-7FC6-4EE9-AF2B-C1140AFD6C4B";
paths = (
{
closed = 1;
nodes = (
"226 619 LINE",
"254 621 LINE SMOOTH",
"276 623 OFFCURVE",
"292 643 OFFCURVE",
"290 665 CURVE SMOOTH",
"288 687 OFFCURVE",
"269 703 OFFCURVE",
"247 701 CURVE SMOOTH",
"120 689 LINE SMOOTH",
"98 687 OFFCURVE",
"82 668 OFFCURVE",
"84 646 CURVE",
"85 625 OFFCURVE",
"103 610 OFFCURVE",
"123 610 CURVE SMOOTH",
"127 610 LINE",
"146 612 LINE",
"146 80 LINE",
"120 78 LINE SMOOTH",
"98 76 OFFCURVE",
"82 56 OFFCURVE",
"84 34 CURVE",
"85 14 OFFCURVE",
"103 -2 OFFCURVE",
"123 -2 CURVE SMOOTH",
"127 -2 LINE",
"254 10 LINE SMOOTH",
"276 12 OFFCURVE",
"292 31 OFFCURVE",
"290 53 CURVE SMOOTH",
"288 75 OFFCURVE",
"269 91 OFFCURVE",
"247 89 CURVE SMOOTH",
"226 87 LINE"
);
},
{
closed = 1;
nodes = (
"672 699 LINE",
"510 688 LINE SMOOTH",
"488 687 OFFCURVE",
"472 666 OFFCURVE",
"474 644 CURVE SMOOTH",
"476 623 OFFCURVE",
"494 608 OFFCURVE",
"514 608 CURVE SMOOTH",
"518 608 LINE",
"636 616 LINE",
"636 140 LINE SMOOTH",
"636 95 OFFCURVE",
"590 67 OFFCURVE",
"547 67 CURVE SMOOTH",
"464 67 OFFCURVE",
"462 141 OFFCURVE",
"462 141 CURVE",
"458 173 OFFCURVE",
"445 198 OFFCURVE",
"421 198 CURVE SMOOTH",
"390 198 OFFCURVE",
"383 171 OFFCURVE",
"387 145 CURVE SMOOTH",
"402 49 OFFCURVE",
"447 2 OFFCURVE",
"546 0 CURVE SMOOTH",
"552 0 LINE SMOOTH",
"642 0 OFFCURVE",
"716 45 OFFCURVE",
"716 140 CURVE SMOOTH",
"716 659 LINE SMOOTH",
"716 681 OFFCURVE",
"699 699 OFFCURVE",
"676 699 CURVE SMOOTH"
);
}
);
width = 796;
}
);
unicode = 0132;
},
{
color = 1;
glyphname = J;
lastChange = "2019-01-06 13:10:32 +0000";
layers = (
{
layerId = "24C63A81-7FC6-4EE9-AF2B-C1140AFD6C4B";
paths = (
{
closed = 1;
nodes = (
"168 691 LINE SMOOTH",
"146 690 OFFCURVE",
"130 671 OFFCURVE",
"132 650 CURVE SMOOTH",
"134 631 OFFCURVE",
"151 616 OFFCURVE",
"172 617 CURVE SMOOTH",
"294 624 LINE",
"294 190 LINE SMOOTH",
"294 95 OFFCURVE",
"248 72 OFFCURVE",
"206 72 CURVE SMOOTH",
"147 72 OFFCURVE",
"122 110 OFFCURVE",
"122 148 CURVE SMOOTH",
"122 174 OFFCURVE",
"107 189 OFFCURVE",
"85 189 CURVE SMOOTH",
"62 189 OFFCURVE",
"47 171 OFFCURVE",
"48 141 CURVE SMOOTH",
"50 79 OFFCURVE",
"95 0 OFFCURVE",
"208 0 CURVE SMOOTH",
"306 0 OFFCURVE",
"374 59 OFFCURVE",
"374 190 CURVE SMOOTH",
"374 664 LINE SMOOTH",
"374 684 OFFCURVE",
"357 702 OFFCURVE",
"334 701 CURVE SMOOTH"
);
}
);
width = 418;
}
);
unicode = 004A;
},
{
color = 1;
glyphname = K;
lastChange = "2018-12-27 13:37:46 +0000";
layers = (
{
anchors = (
{
name = bottom;
position = "{269, 0}";
},
{
name = top;
position = "{269, 700}";
}
);
layerId = "24C63A81-7FC6-4EE9-AF2B-C1140AFD6C4B";
paths = (
{
closed = 1;
nodes = (
"385 258 OFFCURVE",
"309 305 OFFCURVE",
"221 327 CURVE",
"257 354 OFFCURVE",
"382 509 OFFCURVE",
"485 634 CURVE SMOOTH",
"499 651 OFFCURVE",
"497 676 OFFCURVE",
"479 690 CURVE SMOOTH",
"462 704 OFFCURVE",
"437 701 OFFCURVE",
"423 684 CURVE SMOOTH",
"240 462 OFFCURVE",
"220 433 OFFCURVE",
"124 327 CURVE",
"124 656 LINE SMOOTH",
"124 678 OFFCURVE",
"107 696 OFFCURVE",
"84 696 CURVE SMOOTH",
"62 696 OFFCURVE",
"44 678 OFFCURVE",
"44 656 CURVE SMOOTH",
"44 40 LINE SMOOTH",
"44 18 OFFCURVE",
"62 0 OFFCURVE",
"84 0 CURVE SMOOTH",
"107 0 OFFCURVE",
"124 18 OFFCURVE",
"124 40 CURVE SMOOTH",
"124 250 LINE",
"228 283 OFFCURVE",
"317 216 OFFCURVE",
"367 129 CURVE SMOOTH",
"394 82 OFFCURVE",
"404 38 OFFCURVE",
"408 27 CURVE SMOOTH",
"414 10 OFFCURVE",
"429 0 OFFCURVE",
"446 0 CURVE SMOOTH",
"474 0 OFFCURVE",
"494 27 OFFCURVE",
"481 62 CURVE SMOOTH",
"474 80 OFFCURVE",
"466 117 OFFCURVE",
"433 174 CURVE SMOOTH"
);
}
);
width = 538;
}
);
unicode = 004B;
},
{
color = 1;
glyphname = L;
lastChange = "2019-06-11 22:12:18 +0000";
layers = (
{
anchors = (
{
name = bottom;
position = "{232, 0}";
},
{
name = center;
position = "{232, 350}";
},
{
name = top;
position = "{85, 700}";
},
{
name = topright;
position = "{443, 700}";
}
);
layerId = "24C63A81-7FC6-4EE9-AF2B-C1140AFD6C4B";
paths = (
{
closed = 1;
nodes = (
"62 697 OFFCURVE",
"44 680 OFFCURVE",
"44 657 CURVE SMOOTH",
"44 38 LINE SMOOTH",
"44 16 OFFCURVE",
"62 0 OFFCURVE",
"84 0 CURVE SMOOTH",
"417 7 LINE SMOOTH",
"439 7 OFFCURVE",
"454 29 OFFCURVE",
"451 50 CURVE SMOOTH",
"448 71 OFFCURVE",
"428 82 OFFCURVE",
"406 82 CURVE SMOOTH",
"134 81 LINE SMOOTH",
"128 81 OFFCURVE",
"124 85 OFFCURVE",
"124 91 CURVE SMOOTH",
"124 657 LINE SMOOTH",
"124 680 OFFCURVE",
"106 697 OFFCURVE",
"84 697 CURVE SMOOTH"
);
}
);
width = 463;
}
);
leftMetricsKey = H;
rightMetricsKey = V;
unicode = 004C;
},
{
glyphname = Ldot;
lastChange = "2014-09-27 15:23:54 +0000";
layers = (
{
layerId = "24C63A81-7FC6-4EE9-AF2B-C1140AFD6C4B";
paths = (
{
closed = 1;
nodes = (
"114 697 OFFCURVE",
"96 680 OFFCURVE",
"96 657 CURVE SMOOTH",
"96 40 LINE SMOOTH",
"96 28 OFFCURVE",
"101 17 OFFCURVE",
"110 10 CURVE",
"117 3 OFFCURVE",
"126 0 OFFCURVE",
"136 0 CURVE SMOOTH",
"142 0 LINE",
"469 41 LINE SMOOTH",
"491 44 OFFCURVE",
"506 64 OFFCURVE",
"503 86 CURVE SMOOTH",
"500 108 OFFCURVE",
"480 123 OFFCURVE",
"458 120 CURVE SMOOTH",
"176 86 LINE",
"176 657 LINE SMOOTH",
"176 680 OFFCURVE",
"158 697 OFFCURVE",
"136 697 CURVE SMOOTH"
);
},
{
closed = 1;
nodes = (
"286 362 OFFCURVE",
"261 337 OFFCURVE",
"261 307 CURVE SMOOTH",
"261 277 OFFCURVE",
"286 252 OFFCURVE",
"317 252 CURVE SMOOTH",
"348 252 OFFCURVE",
"372 277 OFFCURVE",
"372 307 CURVE SMOOTH",
"372 337 OFFCURVE",
"348 362 OFFCURVE",
"317 362 CURVE SMOOTH"
);
}
);
width = 547;
}
);
unicode = 013F;
},
{
color = 1;
glyphname = M;
lastChange = "2019-06-11 22:12:35 +0000";
layers = (
{
annotations = (
{
position = "{307.159, 442.262}";
type = Text;
}
);
layerId = "24C63A81-7FC6-4EE9-AF2B-C1140AFD6C4B";
paths = (
{
closed = 1;
nodes = (
"112 714 OFFCURVE",
"44 714 OFFCURVE",
"44 638 CURVE SMOOTH",
"44 39 LINE",
"45 14 OFFCURVE",
"66 -1 OFFCURVE",
"86 1 CURVE SMOOTH",
"105 3 OFFCURVE",
"125 21 OFFCURVE",
"125 41 CURVE SMOOTH",
"126 163 OFFCURVE",
"126 438 OFFCURVE",
"126 570 CURVE",
"161 522 OFFCURVE",
"265 332 OFFCURVE",
"304 332 CURVE SMOOTH",
"345 332 OFFCURVE",
"457 509 OFFCURVE",
"486 556 CURVE",
"484 443 OFFCURVE",
"482 154 OFFCURVE",
"485 41 CURVE SMOOTH",
"486 16 OFFCURVE",
"510 4 OFFCURVE",
"527 4 CURVE SMOOTH",
"545 4 OFFCURVE",
"566 18 OFFCURVE",
"566 43 CURVE SMOOTH",
"568 150 OFFCURVE",
"569 512 OFFCURVE",
"566 654 CURVE SMOOTH",
"565 715 OFFCURVE",
"501 711 OFFCURVE",
"477 670 CURVE SMOOTH",
"429 588 OFFCURVE",
"364 517 OFFCURVE",
"314 434 CURVE SMOOTH",
"310 427 OFFCURVE",
"304 427 OFFCURVE",
"300 434 CURVE SMOOTH",
"255 519 OFFCURVE",
"191 616 OFFCURVE",
"139 681 CURVE SMOOTH"
);
}
);
width = 612;
}
);
unicode = 004D;
},
{
color = 1;
glyphname = N;
lastChange = "2019-06-11 22:13:55 +0000";
layers = (
{
anchors = (
{
name = bottom;
position = "{284, 0}";
},
{
name = top;
position = "{284, 700}";
}
);
layerId = "24C63A81-7FC6-4EE9-AF2B-C1140AFD6C4B";
paths = (
{
closed = 1;
nodes = (
"462 699 OFFCURVE",
"444 681 OFFCURVE",
"444 649 CURVE SMOOTH",
"446 192 LINE SMOOTH",
"446 183 OFFCURVE",
"439 179 OFFCURVE",
"434 188 CURVE SMOOTH",
"121 680 LINE SMOOTH",
"112 695 OFFCURVE",
"91 703 OFFCURVE",
"73 698 CURVE SMOOTH",
"56 693 OFFCURVE",
"44 677 OFFCURVE",
"44 655 CURVE SMOOTH",
"46 55 LINE SMOOTH",
"46 23 OFFCURVE",
"64 5 OFFCURVE",
"86 5 CURVE SMOOTH",
"108 5 OFFCURVE",
"126 23 OFFCURVE",
"126 55 CURVE",
"124 510 LINE",
"124 519 OFFCURVE",
"131 523 OFFCURVE",
"136 514 CURVE",
"450 13 LINE SMOOTH",
"458 0 OFFCURVE",
"470 -7 OFFCURVE",
"484 -7 CURVE SMOOTH",
"508 -7 OFFCURVE",
"524 12 OFFCURVE",
"524 33 CURVE SMOOTH",
"524 649 LINE SMOOTH",
"524 681 OFFCURVE",
"506 699 OFFCURVE",
"484 699 CURVE SMOOTH"
);
}
);
width = 568;
},
{
anchors = (
{
name = bottom;
position = "{284, 0}";
},
{
name = top;
position = "{284, 700}";
}
);
associatedMasterId = "24C63A81-7FC6-4EE9-AF2B-C1140AFD6C4B";
layerId = "432C97B5-A344-444F-A438-467C1042B904";
name = "Jun 12 19, 00:13";
paths = (
{
closed = 1;
nodes = (
"462 699 OFFCURVE",
"444 681 OFFCURVE",
"444 649 CURVE SMOOTH",
"446 159 LINE",
"121 680 LINE SMOOTH",
"111 695 OFFCURVE",
"91 703 OFFCURVE",
"73 698 CURVE SMOOTH",
"56 693 OFFCURVE",
"44 677 OFFCURVE",
"44 655 CURVE SMOOTH",
"46 55 LINE SMOOTH",
"46 23 OFFCURVE",
"64 5 OFFCURVE",
"86 5 CURVE SMOOTH",
"108 5 OFFCURVE",
"126 23 OFFCURVE",
"126 55 CURVE SMOOTH",
"124 533 LINE",
"450 13 LINE SMOOTH",
"459 0 OFFCURVE",
"470 -7 OFFCURVE",
"484 -7 CURVE SMOOTH",
"508 -7 OFFCURVE",
"524 12 OFFCURVE",
"524 33 CURVE SMOOTH",
"524 649 LINE SMOOTH",
"524 681 OFFCURVE",
"506 699 OFFCURVE",
"484 699 CURVE SMOOTH"
);
}
);
width = 568;
}
);
unicode = 004E;
},
{
color = 7;
glyphname = O;
lastChange = "2019-01-06 13:11:43 +0000";
layers = (
{
anchors = (
{
name = bottom;
position = "{346, 0}";
},
{
name = center;
position = "{346, 350}";
},
{
name = ogonek;
position = "{622, 10}";
},
{
name = top;
position = "{346, 700}";
},
{
name = topleft;
position = "{20, 700}";
},
{
name = topright;
position = "{630, 750}";
}
);
layerId = "24C63A81-7FC6-4EE9-AF2B-C1140AFD6C4B";
paths = (
{
closed = 1;
nodes = (
"163 707 OFFCURVE",
"44 572 OFFCURVE",
"44 348 CURVE SMOOTH",
"44 140 OFFCURVE",
"149 -2 OFFCURVE",
"346 -2 CURVE SMOOTH",
"566 -2 OFFCURVE",
"647 174 OFFCURVE",
"647 351 CURVE SMOOTH",
"647 569 OFFCURVE",
"525 707 OFFCURVE",
"346 707 CURVE SMOOTH"
);
},
{
closed = 1;
nodes = (
"482 629 OFFCURVE",
"567 514 OFFCURVE",
"567 348 CURVE SMOOTH",
"567 179 OFFCURVE",
"480 78 OFFCURVE",
"346 78 CURVE SMOOTH",
"208 78 OFFCURVE",
"125 179 OFFCURVE",
"125 348 CURVE SMOOTH",
"125 518 OFFCURVE",
"208 629 OFFCURVE",
"346 629 CURVE SMOOTH"
);
}
);
width = 691;
},
{
associatedMasterId = "24C63A81-7FC6-4EE9-AF2B-C1140AFD6C4B";
layerId = "AB693263-3AC4-46D7-B75F-7F180A7E0565";
name = "Dec 24 18, 15:49";
paths = (
{
closed = 1;
nodes = (
"185 707 OFFCURVE",
"40 552 OFFCURVE",
"40 338 CURVE SMOOTH",
"40 160 OFFCURVE",
"172 -2 OFFCURVE",
"342 -2 CURVE SMOOTH",
"535 -2 OFFCURVE",
"643 194 OFFCURVE",
"643 338 CURVE SMOOTH",
"643 549 OFFCURVE",
"499 707 OFFCURVE",
"342 707 CURVE SMOOTH"
);
},
{
closed = 1;
nodes = (
"462 627 OFFCURVE",
"563 474 OFFCURVE",
"563 338 CURVE SMOOTH",
"563 199 OFFCURVE",
"460 77 OFFCURVE",
"342 77 CURVE SMOOTH",
"224 77 OFFCURVE",
"121 199 OFFCURVE",
"121 338 CURVE SMOOTH",
"121 478 OFFCURVE",
"224 627 OFFCURVE",
"342 627 CURVE SMOOTH"
);
}
);
width = 688;
}
);
leftKerningGroup = upRounded;
rightKerningGroup = upRounded;
unicode = 004F;
},
{
color = 1;
glyphname = P;
lastChange = "2019-01-06 13:08:14 +0000";
layers = (
{
layerId = "24C63A81-7FC6-4EE9-AF2B-C1140AFD6C4B";
paths = (
{
closed = 1;
nodes = (
"148 700 OFFCURVE",
"44 680 OFFCURVE",
"44 623 CURVE SMOOTH",
"44 592 OFFCURVE",
"73 584 OFFCURVE",
"96 592 CURVE",
"96 281 LINE",
"96 40 LINE SMOOTH",
"96 18 OFFCURVE",
"114 0 OFFCURVE",
"136 0 CURVE SMOOTH",
"158 0 OFFCURVE",
"176 18 OFFCURVE",
"176 40 CURVE SMOOTH",
"176 217 LINE",
"305 240 OFFCURVE",
"535 315 OFFCURVE",
"535 494 CURVE SMOOTH",
"535 629 OFFCURVE",
"401 717 OFFCURVE",
"218 705 CURVE SMOOTH"
);
},
{
closed = 1;
nodes = (
"176 618 LINE",
"281 646 OFFCURVE",
"455 615 OFFCURVE",
"455 494 CURVE SMOOTH",
"455 368 OFFCURVE",
"263 318 OFFCURVE",
"176 298 CURVE"
);
}
);
width = 579;
}
);
unicode = 0050;
},
{
color = 7;
glyphname = Q;
lastChange = "2018-12-25 00:10:52 +0000";
layers = (
{
layerId = "24C63A81-7FC6-4EE9-AF2B-C1140AFD6C4B";
paths = (
{
closed = 1;
nodes = (
"591 111 OFFCURVE",
"580 121 OFFCURVE",
"569 130 CURVE",
"607 191 OFFCURVE",
"628 264 OFFCURVE",
"628 328 CURVE SMOOTH",
"628 531 OFFCURVE",
"508 701 OFFCURVE",
"334 701 CURVE SMOOTH",
"156 701 OFFCURVE",
"44 528 OFFCURVE",
"44 329 CURVE SMOOTH",
"44 181 OFFCURVE",
"129 1 OFFCURVE",
"334 1 CURVE SMOOTH",
"412 1 OFFCURVE",
"472 28 OFFCURVE",
"517 69 CURVE",
"527 61 OFFCURVE",
"534 53 OFFCURVE",
"543 44 CURVE SMOOTH",
"562 23 OFFCURVE",
"586 5 OFFCURVE",
"613 25 CURVE SMOOTH",
"642 46 OFFCURVE",
"626 76 OFFCURVE",
"601 101 CURVE SMOOTH"
);
},
{
closed = 1;
nodes = (
"455 631 OFFCURVE",
"546 487 OFFCURVE",
"546 329 CURVE SMOOTH",
"546 271 OFFCURVE",
"526 217 OFFCURVE",
"501 174 CURVE",
"400 227 OFFCURVE",
"271 245 OFFCURVE",
"153 202 CURVE",
"137 240 OFFCURVE",
"124 283 OFFCURVE",
"124 329 CURVE SMOOTH",
"124 492 OFFCURVE",
"216 631 OFFCURVE",
"334 631 CURVE SMOOTH"
);
},
{
closed = 1;
nodes = (
"278 71 OFFCURVE",
"232 94 OFFCURVE",
"190 140 CURVE",
"283 173 OFFCURVE",
"373 156 OFFCURVE",
"453 115 CURVE",
"419 87 OFFCURVE",
"379 71 OFFCURVE",
"334 71 CURVE SMOOTH"
);
}
);
width = 673;
},
{
associatedMasterId = "24C63A81-7FC6-4EE9-AF2B-C1140AFD6C4B";
layerId = "98949509-DDAA-4D1F-81D9-4A87BC8CFC50";
name = "Dec 24 18, 15:51";
paths = (
{
closed = 1;
nodes = (
"547 111 OFFCURVE",
"537 121 OFFCURVE",
"526 130 CURVE",
"562 191 OFFCURVE",
"579 265 OFFCURVE",
"579 329 CURVE SMOOTH",
"579 532 OFFCURVE",
"470 701 OFFCURVE",
"308 701 CURVE SMOOTH",
"142 701 OFFCURVE",
"36 528 OFFCURVE",
"36 329 CURVE SMOOTH",
"36 181 OFFCURVE",
"117 1 OFFCURVE",
"308 1 CURVE SMOOTH",
"380 1 OFFCURVE",
"436 28 OFFCURVE",
"478 69 CURVE",
"487 61 OFFCURVE",
"494 53 OFFCURVE",
"502 44 CURVE SMOOTH",
"520 23 OFFCURVE",
"542 5 OFFCURVE",
"567 25 CURVE SMOOTH",
"594 46 OFFCURVE",
"579 76 OFFCURVE",
"556 101 CURVE SMOOTH"
);
},
{
closed = 1;
nodes = (
"420 631 OFFCURVE",
"499 487 OFFCURVE",
"499 329 CURVE SMOOTH",
"499 271 OFFCURVE",
"486 217 OFFCURVE",
"463 174 CURVE",
"369 227 OFFCURVE",
"249 245 OFFCURVE",
"139 202 CURVE",
"124 240 OFFCURVE",
"116 283 OFFCURVE",
"116 329 CURVE SMOOTH",
"116 492 OFFCURVE",
"198 631 OFFCURVE",
"308 631 CURVE SMOOTH"
);
},
{
closed = 1;
nodes = (
"256 71 OFFCURVE",
"213 94 OFFCURVE",
"180 132 CURVE",
"260 161 OFFCURVE",
"344 156 OFFCURVE",
"418 115 CURVE",
"387 87 OFFCURVE",
"350 71 OFFCURVE",
"308 71 CURVE SMOOTH"
);
}
);
width = 630;
}
);
leftKerningGroup = upRounded;
leftMetricsKey = O;
rightKerningGroup = upRounded;
rightMetricsKey = O;
unicode = 0051;
},
{
color = 1;
glyphname = R;
lastChange = "2019-01-06 13:07:41 +0000";
layers = (
{
anchors = (
{
name = bottom;
position = "{287, 0}";
},
{
name = top;
position = "{287, 700}";
}
);
layerId = "24C63A81-7FC6-4EE9-AF2B-C1140AFD6C4B";
paths = (
{
closed = 1;
nodes = (
"142 694 OFFCURVE",
"44 683 OFFCURVE",
"44 633 CURVE SMOOTH",
"44 609 OFFCURVE",
"65 594 OFFCURVE",
"90 599 CURVE",
"90 50 LINE SMOOTH",
"90 18 OFFCURVE",
"108 0 OFFCURVE",
"130 0 CURVE SMOOTH",
"152 0 OFFCURVE",
"170 18 OFFCURVE",
"170 50 CURVE SMOOTH",
"170 259 LINE",
"183 260 OFFCURVE",
"198 260 OFFCURVE",
"216 259 CURVE SMOOTH",
"338 256 OFFCURVE",
"409 192 OFFCURVE",
"448 52 CURVE SMOOTH",
"463 -1 OFFCURVE",
"488 -4 OFFCURVE",
"506 1 CURVE SMOOTH",
"524 6 OFFCURVE",
"538 22 OFFCURVE",
"526 66 CURVE SMOOTH",
"496 178 OFFCURVE",
"430 285 OFFCURVE",
"303 309 CURVE",
"480 351 OFFCURVE",
"518 449 OFFCURVE",
"518 521 CURVE SMOOTH",
"518 656 OFFCURVE",
"400 717 OFFCURVE",
"239 703 CURVE SMOOTH"
);
},
{
closed = 1;
nodes = (
"359 633 OFFCURVE",
"438 603 OFFCURVE",
"438 517 CURVE SMOOTH",
"438 411 OFFCURVE",
"296 360 OFFCURVE",
"170 340 CURVE",
"170 618 LINE",
"189 622 OFFCURVE",
"217 625 OFFCURVE",
"247 627 CURVE SMOOTH"
);
}
);
width = 574;
}
);
unicode = 0052;
},
{
glyphname = S;
lastChange = "2019-06-11 22:20:48 +0000";
layers = (
{
anchors = (
{
name = bottom;
position = "{256, 0}";
},
{
name = top;
position = "{256, 700}";
}
);
layerId = "24C63A81-7FC6-4EE9-AF2B-C1140AFD6C4B";
paths = (
{
closed = 1;
nodes = (
"141 705 OFFCURVE",
"58 627 OFFCURVE",
"58 523 CURVE SMOOTH",
"58 397 OFFCURVE",
"177 353 OFFCURVE",
"256 325 CURVE SMOOTH",
"316 304 OFFCURVE",
"388 274 OFFCURVE",
"388 192 CURVE SMOOTH",
"388 123 OFFCURVE",
"326 84 OFFCURVE",
"256 84 CURVE SMOOTH",
"171 84 OFFCURVE",
"142 138 OFFCURVE",
"122 162 CURVE SMOOTH",
"112 174 OFFCURVE",
"103 182 OFFCURVE",
"86 182 CURVE SMOOTH",
"64 182 OFFCURVE",
"53 166 OFFCURVE",
"53 145 CURVE SMOOTH",
"53 93 OFFCURVE",
"129 0 OFFCURVE",
"261 0 CURVE SMOOTH",
"383 0 OFFCURVE",
"470 78 OFFCURVE",
"470 194 CURVE SMOOTH",
"470 334 OFFCURVE",
"345 382 OFFCURVE",
"284 403 CURVE SMOOTH",
"231 422 OFFCURVE",
"143 454 OFFCURVE",
"143 524 CURVE SMOOTH",
"143 572 OFFCURVE",
"185 624 OFFCURVE",
"257 624 CURVE SMOOTH",
"356 624 OFFCURVE",
"371 538 OFFCURVE",
"416 538 CURVE SMOOTH",
"437 538 OFFCURVE",
"449 557 OFFCURVE",
"449 577 CURVE SMOOTH",
"449 631 OFFCURVE",
"359 705 OFFCURVE",
"252 705 CURVE SMOOTH"
);
}
);
width = 514;
},
{
associatedMasterId = "24C63A81-7FC6-4EE9-AF2B-C1140AFD6C4B";
layerId = "DA63DA80-EED1-4716-B690-A9768DCE586E";
name = "Dec 24 18, 15:53";
paths = (
{
closed = 1;
nodes = (
"170 692 OFFCURVE",
"74 616 OFFCURVE",
"60 535 CURVE SMOOTH",
"41 422 OFFCURVE",
"143 368 OFFCURVE",
"257 325 CURVE SMOOTH",
"363 285 OFFCURVE",
"396 239 OFFCURVE",
"388 181 CURVE SMOOTH",
"380 123 OFFCURVE",
"314 81 OFFCURVE",
"258 82 CURVE SMOOTH",
"143 84 OFFCURVE",
"137 130 OFFCURVE",
"134 144 CURVE SMOOTH",
"124 193 OFFCURVE",
"44 175 OFFCURVE",
"51 125 CURVE",
"70 36 OFFCURVE",
"173 0 OFFCURVE",
"250 0 CURVE SMOOTH",
"345 0 OFFCURVE",
"450 58 OFFCURVE",
"467 160 CURVE SMOOTH",
"476 213 OFFCURVE",
"483 328 OFFCURVE",
"285 403 CURVE SMOOTH",
"232 423 OFFCURVE",
"129 450 OFFCURVE",
"142 518 CURVE SMOOTH",
"150 567 OFFCURVE",
"195 611 OFFCURVE",
"252 611 CURVE SMOOTH",
"338 611 OFFCURVE",
"362 578 OFFCURVE",
"386 551 CURVE SMOOTH",
"405 529 OFFCURVE",
"429 535 OFFCURVE",
"441 551 CURVE SMOOTH",
"453 566 OFFCURVE",
"454 590 OFFCURVE",
"434 612 CURVE SMOOTH",
"420 627 OFFCURVE",
"366 692 OFFCURVE",
"249 692 CURVE SMOOTH"
);
}
);
width = 511;
},
{
anchors = (
{
name = bottom;
position = "{256, 0}";
},
{
name = top;
position = "{256, 700}";
}
);
associatedMasterId = "24C63A81-7FC6-4EE9-AF2B-C1140AFD6C4B";
layerId = "893653F4-63E1-498E-BFE7-A871FEDB29B8";
name = "Jun 12 19, 00:14";
paths = (
{
closed = 1;
nodes = (
"141 705 OFFCURVE",
"58 627 OFFCURVE",
"58 523 CURVE SMOOTH",
"58 397 OFFCURVE",
"177 353 OFFCURVE",
"256 325 CURVE SMOOTH",
"316 304 OFFCURVE",
"388 274 OFFCURVE",
"388 192 CURVE SMOOTH",
"388 123 OFFCURVE",
"335 84 OFFCURVE",
"251 84 CURVE SMOOTH",
"180 84 OFFCURVE",
"155 111 OFFCURVE",
"134 132 CURVE SMOOTH",
"121 146 OFFCURVE",
"109 155 OFFCURVE",
"90 155 CURVE SMOOTH",
"66 155 OFFCURVE",
"48 139 OFFCURVE",
"48 114 CURVE SMOOTH",
"48 66 OFFCURVE",
"119 0 OFFCURVE",
"247 0 CURVE SMOOTH",
"383 0 OFFCURVE",
"470 78 OFFCURVE",
"470 194 CURVE SMOOTH",
"470 334 OFFCURVE",
"345 382 OFFCURVE",
"284 403 CURVE SMOOTH",
"231 422 OFFCURVE",
"143 454 OFFCURVE",
"143 524 CURVE SMOOTH",
"143 572 OFFCURVE",
"185 624 OFFCURVE",
"257 624 CURVE SMOOTH",
"356 624 OFFCURVE",
"371 538 OFFCURVE",
"416 538 CURVE SMOOTH",
"437 538 OFFCURVE",
"449 557 OFFCURVE",
"449 577 CURVE SMOOTH",
"449 631 OFFCURVE",
"359 705 OFFCURVE",
"252 705 CURVE SMOOTH"
);
}
);
width = 514;
}
);
unicode = 0053;
},
{
color = 4;
glyphname = T;
lastChange = "2019-06-11 22:59:36 +0000";
layers = (
{
anchors = (
{
name = bottom;
position = "{265, 0}";
},
{
name = center;
position = "{265, 350}";
},
{
name = top;
position = "{265, 700}";
}
);
layerId = "24C63A81-7FC6-4EE9-AF2B-C1140AFD6C4B";
paths = (
{
closed = 1;
nodes = (
"518 682 OFFCURVE",
"500 698 OFFCURVE",
"476 698 CURVE SMOOTH",
"58 695 LINE SMOOTH",
"29 695 OFFCURVE",
"12 677 OFFCURVE",
"12 656 CURVE",
"12 635 OFFCURVE",
"30 619 OFFCURVE",
"59 619 CURVE SMOOTH",
"223 621 LINE",
"223 42 LINE SMOOTH",
"223 18 OFFCURVE",
"234 0 OFFCURVE",
"263 0 CURVE SMOOTH",
"292 0 OFFCURVE",
"303 18 OFFCURVE",
"303 42 CURVE SMOOTH",
"303 621 LINE",
"476 623 LINE SMOOTH",
"500 623 OFFCURVE",
"518 640 OFFCURVE",
"518 662 CURVE SMOOTH"
);
}
);
width = 530;
}
);
leftMetricsKey = V;
rightMetricsKey = V;
unicode = 0054;
},
{
color = 1;
glyphname = U;
lastChange = "2018-12-27 14:54:34 +0000";
layers = (
{
anchors = (
{
name = bottom;
position = "{290, 0}";
},
{
name = ogonek;
position = "{534, 117}";
},
{
name = top;
position = "{300, 700}";
},
{
name = topright;
position = "{646, 790}";
}
);
layerId = "24C63A81-7FC6-4EE9-AF2B-C1140AFD6C4B";
paths = (
{
closed = 1;
nodes = (
"485 697 OFFCURVE",
"467 676 OFFCURVE",
"469 653 CURVE SMOOTH",
"470 642 OFFCURVE",
"475 590 OFFCURVE",
"475 511 CURVE SMOOTH",
"475 379 OFFCURVE",
"456 209 OFFCURVE",
"389 127 CURVE SMOOTH",
"363 95 OFFCURVE",
"326 79 OFFCURVE",
"290 79 CURVE SMOOTH",
"257 79 OFFCURVE",
"225 92 OFFCURVE",
"201 117 CURVE SMOOTH",
"141 181 OFFCURVE",
"124 324 OFFCURVE",
"124 436 CURVE SMOOTH",
"124 549 OFFCURVE",
"137 635 OFFCURVE",
"138 644 CURVE SMOOTH",
"140 675 OFFCURVE",
"121 697 OFFCURVE",
"98 697 CURVE SMOOTH",
"78 697 OFFCURVE",
"59 680 OFFCURVE",
"55 655 CURVE SMOOTH",
"54 645 OFFCURVE",
"44 557 OFFCURVE",
"44 438 CURVE SMOOTH",
"44 209 OFFCURVE",
"103 0 OFFCURVE",
"290 0 CURVE SMOOTH",
"489 0 OFFCURVE",
"555 238 OFFCURVE",
"555 512 CURVE SMOOTH",
"555 594 OFFCURVE",
"551 648 OFFCURVE",
"549 661 CURVE SMOOTH",
"546 682 OFFCURVE",
"529 697 OFFCURVE",
"509 697 CURVE SMOOTH"
);
}
);
width = 599;
}
);
unicode = 0055;
},
{
color = 4;
glyphname = V;
lastChange = "2019-06-11 22:58:21 +0000";
layers = (
{
layerId = "24C63A81-7FC6-4EE9-AF2B-C1140AFD6C4B";
paths = (
{
closed = 1;
nodes = (
"18 695 OFFCURVE",
"7 671 OFFCURVE",
"14 650 CURVE SMOOTH",
"122 331 LINE SMOOTH",
"161 218 OFFCURVE",
"218 60 OFFCURVE",
"250 21 CURVE SMOOTH",
"262 7 OFFCURVE",
"276 0 OFFCURVE",
"291 0 CURVE SMOOTH",
"308 0 OFFCURVE",
"328 10 OFFCURVE",
"336 38 CURVE SMOOTH",
"359 125 OFFCURVE",
"557 642 OFFCURVE",
"559 647 CURVE SMOOTH",
"567 668 OFFCURVE",
"557 691 OFFCURVE",
"537 699 CURVE SMOOTH",
"516 707 OFFCURVE",
"493 697 OFFCURVE",
"485 676 CURVE SMOOTH",
"478 660 OFFCURVE",
"352 312 OFFCURVE",
"291 121 CURVE SMOOTH",
"288 112 OFFCURVE",
"282 112 OFFCURVE",
"279 121 CURVE SMOOTH",
"257 186 OFFCURVE",
"214 310 OFFCURVE",
"190 382 CURVE SMOOTH",
"142 523 OFFCURVE",
"94 662 OFFCURVE",
"90 673 CURVE SMOOTH",
"83 694 OFFCURVE",
"62 705 OFFCURVE",
"40 700 CURVE SMOOTH"
);
}
);
width = 574;
}
);
leftKerningGroup = topHeavyCap;
rightKerningGroup = topHeavyCap;
unicode = 0056;
},
{
color = 4;
glyphname = W;
lastChange = "2019-06-11 22:58:32 +0000";
layers = (
{
anchors = (
{
name = bottom;
position = "{375, 0}";
},
{
name = top;
position = "{375, 700}";
}
);
layerId = "24C63A81-7FC6-4EE9-AF2B-C1140AFD6C4B";
paths = (
{
closed = 1;
nodes = (
"682 701 OFFCURVE",
"667 690 OFFCURVE",
"660 672 CURVE",
"551 123 LINE SMOOTH",
"549 113 OFFCURVE",
"541 115 OFFCURVE",
"540 125 CURVE SMOOTH",
"527 257 OFFCURVE",
"497 419 OFFCURVE",
"482 481 CURVE SMOOTH",
"462 561 OFFCURVE",
"439 676 OFFCURVE",
"383 676 CURVE SMOOTH",
"300 676 OFFCURVE",
"283 488 OFFCURVE",
"217 128 CURVE SMOOTH",
"215 118 OFFCURVE",
"207 117 OFFCURVE",
"205 126 CURVE SMOOTH",
"91 669 LINE",
"90 689 OFFCURVE",
"72 701 OFFCURVE",
"53 701 CURVE SMOOTH",
"30 701 OFFCURVE",
"12 683 OFFCURVE",
"12 660 CURVE SMOOTH",
"12 648 OFFCURVE",
"52 481 OFFCURVE",
"87 334 CURVE SMOOTH",
"112 231 OFFCURVE",
"120 199 OFFCURVE",
"133 124 CURVE",
"148 71 OFFCURVE",
"158 0 OFFCURVE",
"215 0 CURVE SMOOTH",
"259 0 OFFCURVE",
"272 44 OFFCURVE",
"289 122 CURVE SMOOTH",
"312 230 OFFCURVE",
"343 415 OFFCURVE",
"376 556 CURVE SMOOTH",
"378 566 OFFCURVE",
"386 565 OFFCURVE",
"388 556 CURVE SMOOTH",
"491 60 LINE SMOOTH",
"501 16 OFFCURVE",
"532 4 OFFCURVE",
"544 4 CURVE SMOOTH",
"567 4 OFFCURVE",
"587 20 OFFCURVE",
"593 42 CURVE SMOOTH",
"604 81 OFFCURVE",
"738 655 OFFCURVE",
"738 662 CURVE SMOOTH",
"738 682 OFFCURVE",
"723 701 OFFCURVE",
"699 701 CURVE SMOOTH"
);
}
);
width = 750;
}
);
leftKerningGroup = topHeavyCap;
leftMetricsKey = V;
rightKerningGroup = topHeavyCap;
rightMetricsKey = V;
unicode = 0057;
},
{
color = 4;
glyphname = X;
lastChange = "2019-06-11 22:16:33 +0000";
layers = (
{
layerId = "24C63A81-7FC6-4EE9-AF2B-C1140AFD6C4B";
paths = (
{
closed = 1;
nodes = (
"333 344 LINE SMOOTH",
"330 349 OFFCURVE",
"330 353 OFFCURVE",
"333 358 CURVE SMOOTH",
"538 638 LINE SMOOTH",
"543 645 OFFCURVE",
"546 653 OFFCURVE",
"546 662 CURVE SMOOTH",
"546 674 OFFCURVE",
"540 686 OFFCURVE",
"529 694 CURVE SMOOTH",
"522 699 OFFCURVE",
"514 702 OFFCURVE",
"506 702 CURVE SMOOTH",
"494 702 OFFCURVE",
"481 696 OFFCURVE",
"474 685 CURVE SMOOTH",
"286 408 LINE SMOOTH",
"284 405 OFFCURVE",
"282 403 OFFCURVE",
"279 403 CURVE SMOOTH",
"277 403 OFFCURVE",
"274 405 OFFCURVE",
"272 408 CURVE SMOOTH",
"84 685 LINE SMOOTH",
"77 696 OFFCURVE",
"64 702 OFFCURVE",
"52 702 CURVE SMOOTH",
"44 702 OFFCURVE",
"35 699 OFFCURVE",
"28 694 CURVE SMOOTH",
"17 686 OFFCURVE",
"12 675 OFFCURVE",
"12 662 CURVE SMOOTH",
"12.01 654.001 OFFCURVE",
"15 645 OFFCURVE",
"20 638 CURVE SMOOTH",
"225 358 LINE SMOOTH",
"228 353 OFFCURVE",
"228 349 OFFCURVE",
"225 344 CURVE SMOOTH",
"20 64 LINE SMOOTH",
"15 57 OFFCURVE",
"12 48 OFFCURVE",
"12 40 CURVE SMOOTH",
"12 27 OFFCURVE",
"17 16 OFFCURVE",
"28 8 CURVE SMOOTH",
"35 3 OFFCURVE",
"44 0 OFFCURVE",
"52 0 CURVE SMOOTH",
"64 0 OFFCURVE",
"76 6 OFFCURVE",
"84 16 CURVE",
"272 293 LINE SMOOTH",
"274 297 OFFCURVE",
"277 298 OFFCURVE",
"279 298 CURVE SMOOTH",
"282 298 OFFCURVE",
"284 297 OFFCURVE",
"286 293 CURVE SMOOTH",
"474 16 LINE SMOOTH",
"481 6 OFFCURVE",
"494 0 OFFCURVE",
"506 0 CURVE SMOOTH",
"514 0 OFFCURVE",
"522 3 OFFCURVE",
"529 8 CURVE SMOOTH",
"540 16 OFFCURVE",
"546 28 OFFCURVE",
"546 40 CURVE SMOOTH",
"546 49 OFFCURVE",
"543 57 OFFCURVE",
"538 64 CURVE SMOOTH"
);
}
);
width = 558;
}
);
leftMetricsKey = V;
rightMetricsKey = V;
unicode = 0058;
},
{
color = 4;
glyphname = Y;
lastChange = "2019-06-11 22:58:24 +0000";
layers = (
{
anchors = (
{
name = bottom;
position = "{185, 0}";
},
{
name = top;
position = "{255, 700}";
},
{
name = topleft;
position = "{20, 700}";
}
);
layerId = "24C63A81-7FC6-4EE9-AF2B-C1140AFD6C4B";
paths = (
{
closed = 1;
nodes = (
"453 705 OFFCURVE",
"429 696 OFFCURVE",
"420 675 CURVE SMOOTH",
"281 333 LINE SMOOTH",
"278 325 OFFCURVE",
"272 325 OFFCURVE",
"268 332 CURVE SMOOTH",
"88 678 LINE SMOOTH",
"78 698 OFFCURVE",
"53 705 OFFCURVE",
"34 695 CURVE SMOOTH",
"14 685 OFFCURVE",
"6 661 OFFCURVE",
"17 641 CURVE SMOOTH",
"232 239 LINE",
"154 39 LINE SMOOTH",
"146 19 OFFCURVE",
"157 -4 OFFCURVE",
"177 -12 CURVE SMOOTH",
"182 -14 OFFCURVE",
"187 -15 OFFCURVE",
"192 -15 CURVE SMOOTH",
"208 -15 OFFCURVE",
"223 -5 OFFCURVE",
"229 10 CURVE SMOOTH",
"256 79 OFFCURVE",
"281 149 OFFCURVE",
"308 218 CURVE SMOOTH",
"369 360 OFFCURVE",
"433 502 OFFCURVE",
"494 644 CURVE SMOOTH",
"503 664 OFFCURVE",
"493 688 OFFCURVE",
"473 696 CURVE"
);
}
);
width = 509;
}
);
leftKerningGroup = topHeavyCap;
leftMetricsKey = V;
rightKerningGroup = topHeavyCap;
rightMetricsKey = V;
unicode = 0059;
},
{
color = 1;
glyphname = Z;
lastChange = "2019-06-11 22:17:48 +0000";
layers = (
{
anchors = (
{
name = bottom;
position = "{326, 0}";
},
{
name = center;
position = "{326, 350}";
},
{
name = top;
position = "{326, 700}";
}
);
layerId = "24C63A81-7FC6-4EE9-AF2B-C1140AFD6C4B";
paths = (
{
closed = 1;
nodes = (
"527 699 OFFCURVE",
"412 667 OFFCURVE",
"254 678 CURVE SMOOTH",
"187 683 OFFCURVE",
"124 695 OFFCURVE",
"116 696 CURVE SMOOTH",
"93 699 OFFCURVE",
"73 685 OFFCURVE",
"69 664 CURVE SMOOTH",
"65 642 OFFCURVE",
"80 623 OFFCURVE",
"102 619 CURVE SMOOTH",
"112 617 OFFCURVE",
"319 577 OFFCURVE",
"490 616 CURVE SMOOTH",
"499 618 OFFCURVE",
"502 612 OFFCURVE",
"496 605 CURVE",
"251 351 OFFCURVE",
"110 192 OFFCURVE",
"68 114 CURVE",
"51 87 OFFCURVE",
"35 53 OFFCURVE",
"51 26 CURVE SMOOTH",
"81 -26 OFFCURVE",
"224 18 OFFCURVE",
"338 18 CURVE SMOOTH",
"455 18 OFFCURVE",
"528 -1 OFFCURVE",
"547 -1 CURVE",
"569 -3 OFFCURVE",
"588 13 OFFCURVE",
"590 35 CURVE",
"591 57 OFFCURVE",
"575 77 OFFCURVE",
"553 78 CURVE",
"546 79 OFFCURVE",
"468 97 OFFCURVE",
"348 98 CURVE SMOOTH",
"295 98 OFFCURVE",
"214 94 OFFCURVE",
"151 83 CURVE SMOOTH",
"142 81 OFFCURVE",
"138 86 OFFCURVE",
"143 93 CURVE SMOOTH",
"250 241 OFFCURVE",
"486 455 OFFCURVE",
"589 604 CURVE SMOOTH",
"598 617 OFFCURVE",
"619 650 OFFCURVE",
"600 678 CURVE",
"592 692 OFFCURVE",
"577 699 OFFCURVE",
"561 699 CURVE SMOOTH"
);
}
);
width = 652;
}
);
unicode = 005A;
},
{
glyphname = a;
lastChange = "2019-06-11 22:55:03 +0000";
layers = (
{
anchors = (
{
name = bottom;
position = "{234, 0}";
},
{
name = ogonek;
position = "{419, 58}";
},
{
name = top;
position = "{266, 528}";
}
);
background = {
paths = (
{
closed = 0;
nodes = (
"308 259 LINE SMOOTH"
);
},
{
closed = 0;
nodes = (
"279 329 LINE SMOOTH"
);
}
);
};
layerId = "24C63A81-7FC6-4EE9-AF2B-C1140AFD6C4B";
paths = (
{
closed = 1;
nodes = (
"31 52 OFFCURVE",
"101 -5 OFFCURVE",
"204 -5 CURVE SMOOTH",
"262 -5 OFFCURVE",
"324 19 OFFCURVE",
"350 60 CURVE",
"348 21 OFFCURVE",
"367 -1 OFFCURVE",
"392 -1 CURVE SMOOTH",
"415 -1 OFFCURVE",
"429 17 OFFCURVE",
"429 42 CURVE SMOOTH",
"429 113 OFFCURVE",
"429 320 OFFCURVE",
"429 337 CURVE SMOOTH",
"429 440 OFFCURVE",
"353 489 OFFCURVE",
"232 489 CURVE SMOOTH",
"124 489 OFFCURVE",
"83 450 OFFCURVE",
"70 436 CURVE SMOOTH",
"46 411 OFFCURVE",
"48 390 OFFCURVE",
"61 377 CURVE SMOOTH",
"78 360 OFFCURVE",
"104 367 OFFCURVE",
"119 379 CURVE SMOOTH",
"138 394 OFFCURVE",
"168 418 OFFCURVE",
"238 418 CURVE SMOOTH",
"314 418 OFFCURVE",
"349 388 OFFCURVE",
"350 353 CURVE SMOOTH",
"351 324 OFFCURVE",
"331 324 OFFCURVE",
"302 324 CURVE SMOOTH",
"157 324 OFFCURVE",
"31 265 OFFCURVE",
"31 143 CURVE SMOOTH"
);
},
{
closed = 1;
nodes = (
"111 210 OFFCURVE",
"183 233 OFFCURVE",
"232 242 CURVE SMOOTH",
"289 252 OFFCURVE",
"343 248 OFFCURVE",
"356 257 CURVE",
"356 218 OFFCURVE",
"356 199 OFFCURVE",
"356 174 CURVE",
"353 103 OFFCURVE",
"255 69 OFFCURVE",
"201 69 CURVE SMOOTH",
"153 69 OFFCURVE",
"111 99 OFFCURVE",
"111 147 CURVE SMOOTH"
);
}
);
width = 477;
},
{
associatedMasterId = "24C63A81-7FC6-4EE9-AF2B-C1140AFD6C4B";
layerId = "16B85804-1729-42C2-9B17-B945E082A543";
name = "Dec 24 18, 16:07";
paths = (
{
closed = 1;
nodes = (
"363 104 OFFCURVE",
"372 132 OFFCURVE",
"376 180 CURVE SMOOTH",
"384 265 OFFCURVE",
"388 370 OFFCURVE",
"334 435 CURVE SMOOTH",
"251 536 OFFCURVE",
"127 465 OFFCURVE",
"69 420 CURVE SMOOTH",
"49 405 OFFCURVE",
"29 373 OFFCURVE",
"50 353 CURVE SMOOTH",
"70 334 OFFCURVE",
"94 345 OFFCURVE",
"115 361 CURVE SMOOTH",
"171 403 OFFCURVE",
"302 470 OFFCURVE",
"302 268 CURVE",
"222 341 OFFCURVE",
"67 304 OFFCURVE",
"42 174 CURVE SMOOTH",
"6 -12 OFFCURVE",
"204 -44 OFFCURVE",
"318 58 CURVE",
"326 34 OFFCURVE",
"351 13 OFFCURVE",
"377 13 CURVE SMOOTH",
"392 13 OFFCURVE",
"407 22 OFFCURVE",
"413 37 CURVE",
"421 54 OFFCURVE",
"417 76 OFFCURVE",
"395 88 CURVE"
);
},
{
closed = 1;
nodes = (
"283 104 OFFCURVE",
"233 82 OFFCURVE",
"203 78 CURVE SMOOTH",
"151 71 OFFCURVE",
"98 94 OFFCURVE",
"111 158 CURVE",
"124 208 OFFCURVE",
"164 231 OFFCURVE",
"203 232 CURVE SMOOTH",
"265 233 OFFCURVE",
"319 190 OFFCURVE",
"294 130 CURVE SMOOTH"
);
},
{
closed = 1;
nodes = (
"337 56 OFFCURVE",
"337 60 OFFCURVE",
"339 64 CURVE",
"337 60 OFFCURVE",
"337 55 OFFCURVE",
"337 51 CURVE"
);
}
);
width = 447;
},
{
associatedMasterId = "24C63A81-7FC6-4EE9-AF2B-C1140AFD6C4B";
layerId = "6758C538-A3F1-4E4C-B151-7B223B95FCA5";
name = "Dec 24 18, 16:12";
paths = (
{
closed = 1;
nodes = (
"419 73 OFFCURVE",
"404 76 CURVE SMOOTH",
"389 80 OFFCURVE",
"372 85 OFFCURVE",
"372 112 CURVE SMOOTH",
"372 139 OFFCURVE",
"381 218 OFFCURVE",
"381 265 CURVE SMOOTH",
"381 328 OFFCURVE",
"371 391 OFFCURVE",
"334 435 CURVE SMOOTH",
"303 473 OFFCURVE",
"266 487 OFFCURVE",
"229 487 CURVE SMOOTH",
"167 487 OFFCURVE",
"104 448 OFFCURVE",
"79 429 CURVE SMOOTH",
"54 410 OFFCURVE",
"41 391 OFFCURVE",
"41 374 CURVE SMOOTH",
"41 356 OFFCURVE",
"57 343 OFFCURVE",
"74 343 CURVE SMOOTH",
"88 343 OFFCURVE",
"102 351 OFFCURVE",
"115 361 CURVE SMOOTH",
"141 381 OFFCURVE",
"185 406 OFFCURVE",
"223 406 CURVE SMOOTH",
"266 406 OFFCURVE",
"312 365 OFFCURVE",
"312 248 CURVE",
"285 283 OFFCURVE",
"239 305 OFFCURVE",
"186 305 CURVE SMOOTH",
"107 305 OFFCURVE",
"26 256 OFFCURVE",
"26 150 CURVE SMOOTH",
"26 64 OFFCURVE",
"80 1 OFFCURVE",
"185 1 CURVE SMOOTH",
"252 1 OFFCURVE",
"296 28 OFFCURVE",
"318 68 CURVE",
"319 34 OFFCURVE",
"341 3 OFFCURVE",
"387 3 CURVE SMOOTH",
"420 3 OFFCURVE",
"432 21 OFFCURVE",
"432 41 CURVE SMOOTH",
"432 61 OFFCURVE"
);
},
{
closed = 1;
nodes = (
"300 109 OFFCURVE",
"259 77 OFFCURVE",
"202 77 CURVE SMOOTH",
"150 77 OFFCURVE",
"109 105 OFFCURVE",
"109 155 CURVE SMOOTH",
"109 204 OFFCURVE",
"145 232 OFFCURVE",
"199 232 CURVE SMOOTH",
"259 232 OFFCURVE",
"300 196 OFFCURVE",
"300 153 CURVE SMOOTH"
);
}
);
width = 447;
},
{
associatedMasterId = "24C63A81-7FC6-4EE9-AF2B-C1140AFD6C4B";
layerId = "1A13100F-B483-421C-9972-80E55A36E9C4";
name = "Dec 24 18, 16:22";
paths = (
{
closed = 1;
nodes = (
"419 73 OFFCURVE",
"404 76 CURVE SMOOTH",
"389 80 OFFCURVE",
"372 85 OFFCURVE",
"372 112 CURVE SMOOTH",
"372 139 OFFCURVE",
"381 218 OFFCURVE",
"381 265 CURVE SMOOTH",
"381 406 OFFCURVE",
"331 487 OFFCURVE",
"202 487 CURVE SMOOTH",
"90 487 OFFCURVE",
"15 425 OFFCURVE",
"15 378 CURVE SMOOTH",
"15 357 OFFCURVE",
"31 343 OFFCURVE",
"48 343 CURVE SMOOTH",
"81 343 OFFCURVE",
"96 406 OFFCURVE",
"188 406 CURVE SMOOTH",
"253 406 OFFCURVE",
"302 375 OFFCURVE",
"302 248 CURVE",
"275 283 OFFCURVE",
"239 305 OFFCURVE",
"186 305 CURVE SMOOTH",
"107 305 OFFCURVE",
"26 256 OFFCURVE",
"26 154 CURVE SMOOTH",
"26 64 OFFCURVE",
"80 1 OFFCURVE",
"185 1 CURVE SMOOTH",
"252 1 OFFCURVE",
"296 28 OFFCURVE",
"318 68 CURVE",
"319 34 OFFCURVE",
"341 3 OFFCURVE",
"387 3 CURVE SMOOTH",
"420 3 OFFCURVE",
"432 21 OFFCURVE",
"432 41 CURVE SMOOTH",
"432 61 OFFCURVE"
);
},
{
closed = 1;
nodes = (
"300 109 OFFCURVE",
"259 77 OFFCURVE",
"202 77 CURVE SMOOTH",
"150 77 OFFCURVE",
"109 105 OFFCURVE",
"109 155 CURVE SMOOTH",
"109 204 OFFCURVE",
"145 232 OFFCURVE",
"199 232 CURVE SMOOTH",
"259 232 OFFCURVE",
"300 196 OFFCURVE",
"300 153 CURVE SMOOTH"
);
}
);
width = 447;
},
{
associatedMasterId = "24C63A81-7FC6-4EE9-AF2B-C1140AFD6C4B";
layerId = "A95A0CA3-4E03-4C41-8A18-3B2A92A5E5A5";
name = "Dec 24 18, 16:22";
paths = (
{
closed = 1;
nodes = (
"419 73 OFFCURVE",
"404 76 CURVE SMOOTH",
"389 80 OFFCURVE",
"372 85 OFFCURVE",
"372 112 CURVE SMOOTH",
"372 139 OFFCURVE",
"381 218 OFFCURVE",
"381 265 CURVE SMOOTH",
"381 406 OFFCURVE",
"331 487 OFFCURVE",
"202 487 CURVE SMOOTH",
"90 487 OFFCURVE",
"15 425 OFFCURVE",
"15 378 CURVE SMOOTH",
"15 357 OFFCURVE",
"31 343 OFFCURVE",
"48 343 CURVE SMOOTH",
"81 343 OFFCURVE",
"96 406 OFFCURVE",
"188 406 CURVE SMOOTH",
"253 406 OFFCURVE",
"302 375 OFFCURVE",
"302 248 CURVE",
"275 283 OFFCURVE",
"239 305 OFFCURVE",
"186 305 CURVE SMOOTH",
"107 305 OFFCURVE",
"26 256 OFFCURVE",
"26 154 CURVE SMOOTH",
"26 64 OFFCURVE",
"80 1 OFFCURVE",
"185 1 CURVE SMOOTH",
"252 1 OFFCURVE",
"296 28 OFFCURVE",
"318 68 CURVE",
"319 34 OFFCURVE",
"341 3 OFFCURVE",
"387 3 CURVE SMOOTH",
"420 3 OFFCURVE",
"432 21 OFFCURVE",
"432 41 CURVE SMOOTH",
"432 61 OFFCURVE"
);
},
{
closed = 1;
nodes = (
"300 109 OFFCURVE",
"259 77 OFFCURVE",
"202 77 CURVE SMOOTH",
"150 77 OFFCURVE",
"109 105 OFFCURVE",
"109 155 CURVE SMOOTH",
"109 204 OFFCURVE",
"145 232 OFFCURVE",
"199 232 CURVE SMOOTH",
"259 232 OFFCURVE",
"300 196 OFFCURVE",
"300 153 CURVE SMOOTH"
);
}
);
width = 447;
},
{
anchors = (
{
name = bottom;
position = "{250, 0}";
},
{
name = ogonek;
position = "{450, 10}";
},
{
name = top;
position = "{250, 480}";
}
);
associatedMasterId = "24C63A81-7FC6-4EE9-AF2B-C1140AFD6C4B";
layerId = "23F5780A-0A24-41FA-B53F-4322811D0F4E";
name = "Jan 2 19, 00:41";
paths = (
{
closed = 1;
nodes = (
"470 80 OFFCURVE",
"451 80 CURVE SMOOTH",
"439 80 OFFCURVE",
"433 75 OFFCURVE",
"422 75 CURVE SMOOTH",
"402 75 OFFCURVE",
"405 95 OFFCURVE",
"405 112 CURVE SMOOTH",
"405 139 OFFCURVE",
"414 218 OFFCURVE",
"414 265 CURVE SMOOTH",
"414 406 OFFCURVE",
"354 487 OFFCURVE",
"225 487 CURVE SMOOTH",
"113 487 OFFCURVE",
"48 425 OFFCURVE",
"48 380 CURVE SMOOTH",
"48 357 OFFCURVE",
"64 343 OFFCURVE",
"80 343 CURVE SMOOTH",
"114 343 OFFCURVE",
"129 410 OFFCURVE",
"221 410 CURVE SMOOTH",
"286 410 OFFCURVE",
"335 381 OFFCURVE",
"335 268 CURVE",
"308 289 OFFCURVE",
"272 308 OFFCURVE",
"223 308 CURVE SMOOTH",
"140 308 OFFCURVE",
"50 256 OFFCURVE",
"49 154 CURVE SMOOTH",
"48 64 OFFCURVE",
"113 1 OFFCURVE",
"218 1 CURVE SMOOTH",
"295 1 OFFCURVE",
"329 28 OFFCURVE",
"351 57 CURVE",
"351 34 OFFCURVE",
"373 0 OFFCURVE",
"416 0 CURVE SMOOTH",
"446 0 OFFCURVE",
"488 12 OFFCURVE",
"488 46 CURVE SMOOTH",
"488 67 OFFCURVE"
);
},
{
closed = 1;
nodes = (
"331 108 OFFCURVE",
"285 68 OFFCURVE",
"228 68 CURVE SMOOTH",
"176 68 OFFCURVE",
"128 99 OFFCURVE",
"128 156 CURVE SMOOTH",
"128 208 OFFCURVE",
"174 243 OFFCURVE",
"230 243 CURVE SMOOTH",
"288 243 OFFCURVE",
"331 203 OFFCURVE",
"331 156 CURVE SMOOTH"
);
}
);
width = 500;
},
{
anchors = (
{
name = bottom;
position = "{241, -78}";
},
{
name = ogonek;
position = "{506, -65}";
},
{
name = top;
position = "{273, 528}";
}
);
associatedMasterId = "24C63A81-7FC6-4EE9-AF2B-C1140AFD6C4B";
layerId = "157E4BAC-86CB-4CD3-A243-650872483116";
name = "Jan 5 19, 21:09";
paths = (
{
closed = 1;
nodes = (
"38 88 OFFCURVE",
"110 -1 OFFCURVE",
"233 -1 CURVE SMOOTH",
"343 -1 OFFCURVE",
"398 80 OFFCURVE",
"405 158 CURVE",
"389 160 LINE",
"392 141 OFFCURVE",
"378 81 OFFCURVE",
"382 43 CURVE SMOOTH",
"385 11 OFFCURVE",
"395 0 OFFCURVE",
"416 0 CURVE SMOOTH",
"446 0 OFFCURVE",
"449 22 OFFCURVE",
"451 44 CURVE",
"453 117 OFFCURVE",
"453 173 OFFCURVE",
"453 403 CURVE SMOOTH",
"453 453 OFFCURVE",
"427 483 OFFCURVE",
"381 480 CURVE SMOOTH",
"293 475 LINE SMOOTH",
"132 466 OFFCURVE",
"38 371 OFFCURVE",
"38 223 CURVE SMOOTH"
);
},
{
closed = 1;
nodes = (
"119 329 OFFCURVE",
"173 390 OFFCURVE",
"288 397 CURVE SMOOTH",
"375 402 LINE",
"375 244 LINE SMOOTH",
"375 142 OFFCURVE",
"318 80 OFFCURVE",
"239 80 CURVE SMOOTH",
"160 80 OFFCURVE",
"119 132 OFFCURVE",
"119 224 CURVE SMOOTH"
);
}
);
width = 501;
},
{
anchors = (
{
name = bottom;
position = "{241, 0}";
},
{
name = ogonek;
position = "{426, 58}";
},
{
name = top;
position = "{273, 528}";
}
);
associatedMasterId = "24C63A81-7FC6-4EE9-AF2B-C1140AFD6C4B";
layerId = "EA8F75A1-897A-44E8-8A2B-3325CA446932";
name = "Jan 5 19, 21:10";
paths = (
{
closed = 1;
nodes = (
"346 414 OFFCURVE",
"356 413 OFFCURVE",
"364 411 CURVE",
"365 388 OFFCURVE",
"363 182 OFFCURVE",
"362 160 CURVE",
"332 114 OFFCURVE",
"244 89 OFFCURVE",
"190 102 CURVE SMOOTH",
"143 113 OFFCURVE",
"118 152 OFFCURVE",
"118 217 CURVE SMOOTH",
"118 340 OFFCURVE",
"210 414 OFFCURVE",
"332 414 CURVE SMOOTH"
);
},
{
closed = 1;
nodes = (
"419 -1 OFFCURVE",
"437 17 OFFCURVE",
"439 42 CURVE SMOOTH",
"446 170 OFFCURVE",
"450 307 OFFCURVE",
"444 412 CURVE SMOOTH",
"443 432 OFFCURVE",
"439 453 OFFCURVE",
"424 468 CURVE SMOOTH",
"402 490 OFFCURVE",
"360 494 OFFCURVE",
"329 494 CURVE SMOOTH",
"164 490 OFFCURVE",
"38 388 OFFCURVE",
"38 217 CURVE SMOOTH",
"38 98 OFFCURVE",
"108 18 OFFCURVE",
"223 18 CURVE SMOOTH",
"269 18 OFFCURVE",
"317 31 OFFCURVE",
"357 53 CURVE",
"357 49 LINE SMOOTH",
"355 21 OFFCURVE",
"372 -1 OFFCURVE",
"395 -1 CURVE SMOOTH"
);
}
);
width = 501;
},
{
anchors = (
{
name = bottom;
position = "{241, 0}";
},
{
name = ogonek;
position = "{426, 58}";
},
{
name = top;
position = "{273, 528}";
}
);
associatedMasterId = "24C63A81-7FC6-4EE9-AF2B-C1140AFD6C4B";
layerId = "A7A04749-0DE3-40FF-93D5-EEDABCC199D1";
name = "May 11 19, 17:35";
paths = (
{
closed = 1;
nodes = (
"346 414 OFFCURVE",
"356 413 OFFCURVE",
"364 411 CURVE",
"365 388 OFFCURVE",
"363 189 OFFCURVE",
"362 144 CURVE",
"332 98 OFFCURVE",
"248 66 OFFCURVE",
"190 79 CURVE SMOOTH",
"143 90 OFFCURVE",
"118 129 OFFCURVE",
"118 194 CURVE SMOOTH",
"118 340 OFFCURVE",
"210 414 OFFCURVE",
"332 414 CURVE SMOOTH"
);
},
{
closed = 1;
nodes = (
"422 -1 OFFCURVE",
"438 17 OFFCURVE",
"439 42 CURVE SMOOTH",
"442 170 OFFCURVE",
"443 307 OFFCURVE",
"444 410 CURVE SMOOTH",
"444 432 OFFCURVE",
"439 453 OFFCURVE",
"424 468 CURVE SMOOTH",
"402 490 OFFCURVE",
"360 494 OFFCURVE",
"329 494 CURVE SMOOTH",
"164 490 OFFCURVE",
"38 388 OFFCURVE",
"38 194 CURVE SMOOTH",
"38 75 OFFCURVE",
"108 -5 OFFCURVE",
"211 -5 CURVE SMOOTH",
"269 -5 OFFCURVE",
"331 19 OFFCURVE",
"357 60 CURVE",
"355 21 OFFCURVE",
"374 -1 OFFCURVE",
"399 -1 CURVE SMOOTH"
);
}
);
width = 492;
}
);
leftKerningGroup = downRounded;
leftMetricsKey = o;
rightKerningGroup = downRounded;
rightMetricsKey = n;
unicode = 0061;
},
{
glyphname = b;
lastChange = "2019-01-06 00:40:09 +0000";
layers = (
{
anchors = (
{
name = bottom;
position = "{283, 0}";
},
{
name = top;
position = "{89, 800}";
}
);
layerId = "24C63A81-7FC6-4EE9-AF2B-C1140AFD6C4B";
paths = (
{
closed = 1;
nodes = (
"66 704 OFFCURVE",
"50 684 OFFCURVE",
"51 663 CURVE SMOOTH",
"52 640 OFFCURVE",
"71 437 OFFCURVE",
"71 308 CURVE SMOOTH",
"71 203 OFFCURVE",
"58 92 OFFCURVE",
"49 44 CURVE SMOOTH",
"40 -5 OFFCURVE",
"106 -11 OFFCURVE",
"118 32 CURVE SMOOTH",
"121 45 OFFCURVE",
"125 63 OFFCURVE",
"129 88 CURVE",
"171 22 OFFCURVE",
"249 0 OFFCURVE",
"308 0 CURVE SMOOTH",
"422 0 OFFCURVE",
"515 98 OFFCURVE",
"515 240 CURVE SMOOTH",
"515 373 OFFCURVE",
"441 486 OFFCURVE",
"298 486 CURVE SMOOTH",
"227 486 OFFCURVE",
"173 454 OFFCURVE",
"143 411 CURVE",
"138 527 OFFCURVE",
"133 645 OFFCURVE",
"131 667 CURVE SMOOTH",
"129 689 OFFCURVE",
"111 706 OFFCURVE",
"89 705 CURVE SMOOTH"
);
},
{
closed = 1;
nodes = (
"148 239 CURVE SMOOTH",
"148 330 OFFCURVE",
"206 406 OFFCURVE",
"298 406 CURVE SMOOTH",
"399 406 OFFCURVE",
"435 325 OFFCURVE",
"435 241 CURVE SMOOTH",
"435 152 OFFCURVE",
"385 80 OFFCURVE",
"295 80 CURVE SMOOTH",
"209 80 OFFCURVE",
"148 147 OFFCURVE"
);
}
);
width = 563;
},
{
associatedMasterId = "24C63A81-7FC6-4EE9-AF2B-C1140AFD6C4B";
layerId = "38C0C396-6033-4854-91F1-8F9717FF9EE6";
name = "Dec 24 18, 17:18";
paths = (
{
closed = 1;
nodes = (
"388 479 OFFCURVE",
"263 479 CURVE SMOOTH",
"219 479 OFFCURVE",
"174 472 OFFCURVE",
"133 448 CURVE",
"130 652 LINE SMOOTH",
"130 684 OFFCURVE",
"111 701 OFFCURVE",
"90 701 CURVE SMOOTH",
"67 701 OFFCURVE",
"50 682 OFFCURVE",
"50 650 CURVE SMOOTH",
"55 230 LINE SMOOTH",
"55 83 OFFCURVE",
"50 61 OFFCURVE",
"50 40 CURVE SMOOTH",
"50 10 OFFCURVE",
"68 -5 OFFCURVE",
"89 -5 CURVE SMOOTH",
"103 -5 OFFCURVE",
"119 3 OFFCURVE",
"126 30 CURVE",
"168 6 OFFCURVE",
"211 -1 OFFCURVE",
"243 -1 CURVE SMOOTH",
"367 -1 OFFCURVE",
"461 105 OFFCURVE",
"461 251 CURVE SMOOTH",
"461 385 OFFCURVE"
);
},
{
closed = 1;
nodes = (
"134 133 OFFCURVE",
"135 156 OFFCURVE",
"135 186 CURVE SMOOTH",
"135 222 OFFCURVE",
"134 267 OFFCURVE",
"133 362 CURVE",
"168 393 OFFCURVE",
"205 408 OFFCURVE",
"243 408 CURVE SMOOTH",
"326 408 OFFCURVE",
"372 334 OFFCURVE",
"372 244 CURVE SMOOTH",
"372 145 OFFCURVE",
"315 79 OFFCURVE",
"227 79 CURVE SMOOTH",
"200 79 OFFCURVE",
"168 85 OFFCURVE",
"133 95 CURVE"
);
}
);
width = 511;
}
);
leftMetricsKey = n;
rightKerningGroup = downRounded;
unicode = 0062;
},
{
glyphname = c;
lastChange = "2019-06-11 22:55:13 +0000";
layers = (
{
anchors = (
{
name = bottom;
position = "{249, 10}";
},
{
name = top;
position = "{229, 480}";
}
);
layerId = "24C63A81-7FC6-4EE9-AF2B-C1140AFD6C4B";
paths = (
{
closed = 1;
nodes = (
"408 388 OFFCURVE",
"408 408 CURVE SMOOTH",
"408 447 OFFCURVE",
"347 491 OFFCURVE",
"263 491 CURVE SMOOTH",
"123 491 OFFCURVE",
"31 382 OFFCURVE",
"31 241 CURVE",
"31 153 OFFCURVE",
"70 -8 OFFCURVE",
"254 -8 CURVE SMOOTH",
"346 -8 OFFCURVE",
"422 29 OFFCURVE",
"422 76 CURVE SMOOTH",
"422 98 OFFCURVE",
"405 114 OFFCURVE",
"383 114 CURVE SMOOTH",
"349 114 OFFCURVE",
"334 72 OFFCURVE",
"256 72 CURVE SMOOTH",
"144 72 OFFCURVE",
"111 171 OFFCURVE",
"111 241 CURVE SMOOTH",
"111 318 OFFCURVE",
"151 414 OFFCURVE",
"254 414 CURVE SMOOTH",
"318 414 OFFCURVE",
"340 377 OFFCURVE",
"372 377 CURVE SMOOTH",
"390 377 OFFCURVE"
);
}
);
width = 443;
}
);
leftKerningGroup = downRounded;
leftMetricsKey = o;
rightKerningGroup = downRounded;
rightMetricsKey = "=o-10";
unicode = 0063;
},
{
glyphname = d;
lastChange = "2019-06-11 22:31:44 +0000";
layers = (
{
anchors = (
{
name = bottom;
position = "{269, 0}";
},
{
name = center;
position = "{256, 232}";
},
{
name = top;
position = "{462, 700}";
},
{
name = topright;
position = "{495, 685}";
}
);
layerId = "24C63A81-7FC6-4EE9-AF2B-C1140AFD6C4B";
paths = (
{
closed = 1;
nodes = (
"435 706 OFFCURVE",
"416 689 OFFCURVE",
"415 660 CURVE SMOOTH",
"403 424 LINE",
"368 467 OFFCURVE",
"311 489 OFFCURVE",
"248 489 CURVE SMOOTH",
"95 489 OFFCURVE",
"31 363 OFFCURVE",
"31 240 CURVE SMOOTH",
"31 98 OFFCURVE",
"124 0 OFFCURVE",
"238 0 CURVE SMOOTH",
"297 0 OFFCURVE",
"364 22 OFFCURVE",
"405 88 CURVE",
"410 63 OFFCURVE",
"417 45 OFFCURVE",
"420 32 CURVE SMOOTH",
"432 -11 OFFCURVE",
"506 -13 OFFCURVE",
"495 53 CURVE SMOOTH",
"489 91 OFFCURVE",
"475 203 OFFCURVE",
"475 308 CURVE",
"493 656 LINE SMOOTH",
"495 685 OFFCURVE",
"478 704 OFFCURVE",
"457 705 CURVE SMOOTH"
);
},
{
closed = 1;
nodes = (
"337 80 OFFCURVE",
"251 80 CURVE SMOOTH",
"161 80 OFFCURVE",
"111 152 OFFCURVE",
"111 241 CURVE SMOOTH",
"111 315 OFFCURVE",
"147 409 OFFCURVE",
"248 409 CURVE SMOOTH",
"340 409 OFFCURVE",
"398 330 OFFCURVE",
"398 239 CURVE SMOOTH",
"398 147 OFFCURVE"
);
}
);
width = 544;
}
);
leftKerningGroup = downRounded;
leftMetricsKey = o;
rightMetricsKey = n;
unicode = 0064;
},
{
glyphname = e;
lastChange = "2019-06-11 22:41:05 +0000";
layers = (
{
anchors = (
{
name = bottom;
position = "{232, 0}";
},
{
name = ogonek;
position = "{431, 106}";
},
{
name = top;
position = "{232, 480}";
}
);
annotations = (
{
position = "{325, 359}";
type = Text;
}
);
layerId = "24C63A81-7FC6-4EE9-AF2B-C1140AFD6C4B";
paths = (
{
closed = 1;
nodes = (
"31 363 OFFCURVE",
"31 229 CURVE SMOOTH",
"31 98 OFFCURVE",
"110 -7 OFFCURVE",
"249 -7 CURVE SMOOTH",
"358 -7 OFFCURVE",
"444 53 OFFCURVE",
"444 130 CURVE SMOOTH",
"444 154 OFFCURVE",
"436 171 OFFCURVE",
"414 171 CURVE SMOOTH",
"400 171 OFFCURVE",
"381 164 OFFCURVE",
"372 141 CURVE SMOOTH",
"354 94 OFFCURVE",
"299 74 OFFCURVE",
"249 74 CURVE SMOOTH",
"191 74 OFFCURVE",
"131 101 OFFCURVE",
"124 183 CURVE",
"326 211 OFFCURVE",
"400 247 OFFCURVE",
"427 296 CURVE",
"467 379 OFFCURVE",
"374 489 OFFCURVE",
"250 489 CURVE SMOOTH",
"116 489 OFFCURVE"
);
},
{
closed = 1;
nodes = (
"175 412 OFFCURVE",
"256 412 CURVE SMOOTH",
"296 412 OFFCURVE",
"336 394 OFFCURVE",
"356 356 CURVE SMOOTH",
"367 335 OFFCURVE",
"362 320 OFFCURVE",
"337 308 CURVE SMOOTH",
"292 287 OFFCURVE",
"175 256 OFFCURVE",
"116 254 CURVE",
"116 339 OFFCURVE"
);
}
);
width = 475;
},
{
associatedMasterId = "24C63A81-7FC6-4EE9-AF2B-C1140AFD6C4B";
layerId = "25BCA78D-6944-4C71-8EC2-C1C1DC374E50";
name = "Dec 24 18, 17:28";
paths = (
{
closed = 1;
nodes = (
"104 447 OFFCURVE",
"50 338 OFFCURVE",
"50 229 CURVE SMOOTH",
"50 218 OFFCURVE",
"51 206 OFFCURVE",
"52 194 CURVE SMOOTH",
"73 26 OFFCURVE",
"189 -7 OFFCURVE",
"257 -7 CURVE SMOOTH",
"332 -7 OFFCURVE",
"414 28 OFFCURVE",
"448 114 CURVE SMOOTH",
"451 121 OFFCURVE",
"452 127 OFFCURVE",
"452 133 CURVE SMOOTH",
"452 157 OFFCURVE",
"435 174 OFFCURVE",
"415 174 CURVE SMOOTH",
"401 174 OFFCURVE",
"386 165 OFFCURVE",
"375 142 CURVE SMOOTH",
"354 98 OFFCURVE",
"305 74 OFFCURVE",
"257 74 CURVE SMOOTH",
"202 74 OFFCURVE",
"149 105 OFFCURVE",
"142 173 CURVE",
"142 174 OFFCURVE",
"141 180 OFFCURVE",
"150 181 CURVE",
"194 188 OFFCURVE",
"393 228 OFFCURVE",
"428 298 CURVE SMOOTH",
"433 309 OFFCURVE",
"436 321 OFFCURVE",
"436 333 CURVE SMOOTH",
"436 406 OFFCURVE",
"349 488 OFFCURVE",
"255 488 CURVE SMOOTH",
"238 488 OFFCURVE",
"222 485 OFFCURVE",
"206 480 CURVE SMOOTH"
);
},
{
closed = 1;
nodes = (
"239 410 OFFCURVE",
"247 411 OFFCURVE",
"255 411 CURVE SMOOTH",
"295 411 OFFCURVE",
"340 386 OFFCURVE",
"362 336 CURVE SMOOTH",
"372 314 OFFCURVE",
"171 264 OFFCURVE",
"140 257 CURVE SMOOTH",
"132 255 OFFCURVE",
"131 256 OFFCURVE",
"131 268 CURVE SMOOTH",
"131 340 OFFCURVE",
"184 392 OFFCURVE",
"231 408 CURVE"
);
}
);
width = 502;
},
{
anchors = (
{
name = bottom;
position = "{239, 0}";
},
{
name = ogonek;
position = "{438, 106}";
},
{
name = top;
position = "{239, 480}";
}
);
annotations = (
{
position = "{325, 359}";
type = Text;
}
);
associatedMasterId = "24C63A81-7FC6-4EE9-AF2B-C1140AFD6C4B";
layerId = "5930D2AC-7302-47F3-8B36-0B281901403C";
name = "Jun 12 19, 00:27";
paths = (
{
closed = 1;
nodes = (
"38 363 OFFCURVE",
"38 229 CURVE SMOOTH",
"38 98 OFFCURVE",
"117 -7 OFFCURVE",
"256 -7 CURVE SMOOTH",
"365 -7 OFFCURVE",
"461 61 OFFCURVE",
"461 132 CURVE SMOOTH",
"461 162 OFFCURVE",
"443 174 OFFCURVE",
"424 174 CURVE SMOOTH",
"407 174 OFFCURVE",
"391 165 OFFCURVE",
"380 142 CURVE SMOOTH",
"358 98 OFFCURVE",
"306 74 OFFCURVE",
"256 74 CURVE SMOOTH",
"198 74 OFFCURVE",
"138 101 OFFCURVE",
"131 183 CURVE",
"333 211 OFFCURVE",
"407 247 OFFCURVE",
"434 296 CURVE",
"474 379 OFFCURVE",
"381 488 OFFCURVE",
"257 488 CURVE SMOOTH",
"123 488 OFFCURVE"
);
},
{
closed = 1;
nodes = (
"172 411 OFFCURVE",
"253 411 CURVE SMOOTH",
"293 411 OFFCURVE",
"343 394 OFFCURVE",
"365 352 CURVE SMOOTH",
"374 335 OFFCURVE",
"369 320 OFFCURVE",
"352 312 CURVE SMOOTH",
"299 287 OFFCURVE",
"182 256 OFFCURVE",
"123 254 CURVE",
"123 339 OFFCURVE"
);
}
);
width = 499;
}
);
leftKerningGroup = downRounded;
leftMetricsKey = o;
rightKerningGroup = downRounded;
rightMetricsKey = o;
unicode = 0065;
},
{
glyphname = f;
lastChange = "2019-06-11 22:50:52 +0000";
layers = (
{
layerId = "24C63A81-7FC6-4EE9-AF2B-C1140AFD6C4B";
paths = (
{
closed = 1;
nodes = (
"318 637 OFFCURVE",
"321 661 OFFCURVE",
"304 675 CURVE SMOOTH",
"284 690 OFFCURVE",
"258 700 OFFCURVE",
"226 700 CURVE SMOOTH",
"122 700 OFFCURVE",
"98 622 OFFCURVE",
"98 473 CURVE",
"50 473 LINE SMOOTH",
"29 473 OFFCURVE",
"12 455 OFFCURVE",
"12 436 CURVE SMOOTH",
"12 415 OFFCURVE",
"32 396 OFFCURVE",
"53 398 CURVE SMOOTH",
"99 402 LINE",
"99 227 OFFCURVE",
"97 72 OFFCURVE",
"97 41 CURVE SMOOTH",
"97 19 OFFCURVE",
"113 1 OFFCURVE",
"135 0 CURVE",
"136 0 LINE SMOOTH",
"157 0 OFFCURVE",
"176 18 OFFCURVE",
"176 40 CURVE SMOOTH",
"176 71 OFFCURVE",
"178 223 OFFCURVE",
"178 405 CURVE",
"251 406 LINE SMOOTH",
"272 406 OFFCURVE",
"291 425 OFFCURVE",
"291 445 CURVE SMOOTH",
"291 466 OFFCURVE",
"268 483 OFFCURVE",
"245 481 CURVE SMOOTH",
"176 476 LINE",
"176 563 OFFCURVE",
"174 628 OFFCURVE",
"221 628 CURVE SMOOTH",
"234 628 OFFCURVE",
"244 624 OFFCURVE",
"253 618 CURVE SMOOTH",
"270 607 OFFCURVE",
"288 606 OFFCURVE",
"303 621 CURVE SMOOTH"
);
}
);
width = 316;
},
{
associatedMasterId = "24C63A81-7FC6-4EE9-AF2B-C1140AFD6C4B";
layerId = "DC619B96-1E95-4FE5-8679-73ECFB8C28F6";
name = "Jan 5 19, 21:13";
paths = (
{
closed = 1;
nodes = (
"302 700 OFFCURVE",
"226 700 CURVE SMOOTH",
"128 700 OFFCURVE",
"97 607 OFFCURVE",
"97 508 CURVE SMOOTH",
"97 482 OFFCURVE",
"98 457 OFFCURVE",
"98 432 CURVE",
"50 432 LINE SMOOTH",
"29 432 OFFCURVE",
"12 414 OFFCURVE",
"12 395 CURVE SMOOTH",
"12 374 OFFCURVE",
"32 355 OFFCURVE",
"53 357 CURVE SMOOTH",
"99 361 LINE",
"99 335 LINE SMOOTH",
"99 186 OFFCURVE",
"97 43 OFFCURVE",
"97 41 CURVE",
"96 19 OFFCURVE",
"113 1 OFFCURVE",
"135 0 CURVE",
"136 0 LINE SMOOTH",
"157 0 OFFCURVE",
"175 18 OFFCURVE",
"176 40 CURVE",
"176 41 OFFCURVE",
"178 185 OFFCURVE",
"178 335 CURVE SMOOTH",
"178 364 LINE",
"251 365 LINE SMOOTH",
"272 365 OFFCURVE",
"291 384 OFFCURVE",
"291 404 CURVE SMOOTH",
"291 425 OFFCURVE",
"268 442 OFFCURVE",
"245 440 CURVE SMOOTH",
"177 435 LINE",
"176 463 OFFCURVE",
"176 495 OFFCURVE",
"176 526 CURVE SMOOTH",
"176 581 OFFCURVE",
"182 628 OFFCURVE",
"221 628 CURVE SMOOTH",
"252 628 OFFCURVE",
"262 599 OFFCURVE",
"267 584 CURVE SMOOTH",
"274 562 OFFCURVE",
"290 554 OFFCURVE",
"305 554 CURVE SMOOTH",
"328 554 OFFCURVE",
"345 573 OFFCURVE",
"345 600 CURVE SMOOTH",
"345 642 OFFCURVE"
);
}
);
width = 357;
}
);
leftMetricsKey = v;
unicode = 0066;
},
{
glyphname = g;
lastChange = "2019-06-11 22:59:22 +0000";
layers = (
{
anchors = (
{
name = bottom;
position = "{263, -200}";
},
{
name = top;
position = "{233, 510}";
}
);
layerId = "24C63A81-7FC6-4EE9-AF2B-C1140AFD6C4B";
paths = (
{
closed = 1;
nodes = (
"31 87 OFFCURVE",
"120 15 OFFCURVE",
"231 15 CURVE SMOOTH",
"313 15 OFFCURVE",
"357 55 OFFCURVE",
"378 98 CURVE",
"375 48 LINE SMOOTH",
"370 -39 OFFCURVE",
"349 -127 OFFCURVE",
"241 -127 CURVE SMOOTH",
"221 -127 OFFCURVE",
"186 -124 OFFCURVE",
"148 -116 CURVE SMOOTH",
"116 -109 OFFCURVE",
"89 -118 OFFCURVE",
"89 -143 CURVE SMOOTH",
"89 -165 OFFCURVE",
"101 -184 OFFCURVE",
"148 -193 CURVE SMOOTH",
"163 -196 OFFCURVE",
"204 -203 OFFCURVE",
"244 -203 CURVE SMOOTH",
"334 -203 OFFCURVE",
"395 -164 OFFCURVE",
"423 -95 CURVE SMOOTH",
"452 -26 OFFCURVE",
"449 73 OFFCURVE",
"450 192 CURVE SMOOTH",
"451 298 LINE",
"451 302 LINE SMOOTH",
"451 359 OFFCURVE",
"432 409 OFFCURVE",
"394 443 CURVE SMOOTH",
"362 472 OFFCURVE",
"428 507 OFFCURVE",
"452 456 CURVE",
"459 443 OFFCURVE",
"473 436 OFFCURVE",
"488 436 CURVE SMOOTH",
"512 436 OFFCURVE",
"526 455 OFFCURVE",
"526 476 CURVE SMOOTH",
"526 508 OFFCURVE",
"491 544 OFFCURVE",
"439 544 CURVE SMOOTH",
"389 544 OFFCURVE",
"350 515 OFFCURVE",
"337 477 CURVE",
"317 483 OFFCURVE",
"295 487 OFFCURVE",
"264 487 CURVE SMOOTH",
"124 487 OFFCURVE",
"31 397 OFFCURVE",
"31 244 CURVE SMOOTH"
);
},
{
closed = 1;
nodes = (
"111 343 OFFCURVE",
"170 412 OFFCURVE",
"258 412 CURVE SMOOTH",
"337 412 OFFCURVE",
"371 357 OFFCURVE",
"371 283 CURVE SMOOTH",
"371 276 LINE SMOOTH",
"371 175 OFFCURVE",
"324 92 OFFCURVE",
"236 92 CURVE SMOOTH",
"171 92 OFFCURVE",
"111 140 OFFCURVE",
"111 244 CURVE SMOOTH"
);
}
);
width = 526;
},
{
associatedMasterId = "24C63A81-7FC6-4EE9-AF2B-C1140AFD6C4B";
layerId = "BD1441B1-2721-45BE-BE9D-E17EE2ECBCFD";
name = "Dec 24 18, 17:25";
paths = (
{
closed = 1;
nodes = (
"299 57 OFFCURVE",
"149 27 OFFCURVE",
"147 68 CURVE SMOOTH",
"145 104 OFFCURVE",
"184 103 OFFCURVE",
"222 104 CURVE",
"243 103 LINE",
"368 103 OFFCURVE",
"433 182 OFFCURVE",
"433 289 CURVE SMOOTH",
"433 341 OFFCURVE",
"413 391 OFFCURVE",
"376 425 CURVE",
"358 464 OFFCURVE",
"410 489 OFFCURVE",
"434 438 CURVE",
"441 425 OFFCURVE",
"455 418 OFFCURVE",
"469 418 CURVE SMOOTH",
"494 418 OFFCURVE",
"508 437 OFFCURVE",
"508 457 CURVE SMOOTH",
"508 490 OFFCURVE",
"473 526 OFFCURVE",
"421 526 CURVE SMOOTH",
"371 526 OFFCURVE",
"332 497 OFFCURVE",
"319 459 CURVE",
"300 465 OFFCURVE",
"280 469 OFFCURVE",
"257 469 CURVE SMOOTH",
"126 469 OFFCURVE",
"62 388 OFFCURVE",
"62 280 CURVE SMOOTH",
"62 224 OFFCURVE",
"80 175 OFFCURVE",
"119 142 CURVE",
"93 124 OFFCURVE",
"76 99 OFFCURVE",
"76 67 CURVE SMOOTH",
"76 43 OFFCURVE",
"87 21 OFFCURVE",
"108 3 CURVE",
"74 -17 OFFCURVE",
"50 -48 OFFCURVE",
"50 -82 CURVE SMOOTH",
"50 -150 OFFCURVE",
"118 -229 OFFCURVE",
"239 -229 CURVE SMOOTH",
"442 -229 OFFCURVE",
"512 -158 OFFCURVE",
"512 -82 CURVE SMOOTH",
"512 -40 OFFCURVE",
"499 26 OFFCURVE",
"415 39 CURVE SMOOTH"
);
},
{
closed = 1;
nodes = (
"320 397 OFFCURVE",
"353 337 OFFCURVE",
"353 289 CURVE SMOOTH",
"353 219 OFFCURVE",
"314 183 OFFCURVE",
"243 183 CURVE SMOOTH",
"174 183 OFFCURVE",
"142 216 OFFCURVE",
"142 280 CURVE SMOOTH",
"142 339 OFFCURVE",
"167 397 OFFCURVE",
"257 397 CURVE SMOOTH"
);
},
{
closed = 1;
nodes = (
"177 -154 OFFCURVE",
"128 -125 OFFCURVE",
"128 -87 CURVE SMOOTH",
"128 -56 OFFCURVE",
"174 -30 OFFCURVE",
"239 -30 CURVE",
"399 -21 OFFCURVE",
"437 -28 OFFCURVE",
"437 -72 CURVE SMOOTH",
"437 -111 OFFCURVE",
"399 -154 OFFCURVE",
"239 -154 CURVE SMOOTH"
);
}
);
width = 562;
},
{
associatedMasterId = "24C63A81-7FC6-4EE9-AF2B-C1140AFD6C4B";
layerId = "786CC6A5-9801-47D2-8BC7-7650E384EEE3";
name = "Jan 5 19, 20:43";
paths = (
{
closed = 1;
nodes = (
"296 45 OFFCURVE",
"147 27 OFFCURVE",
"145 68 CURVE SMOOTH",
"143 99 OFFCURVE",
"162 103 OFFCURVE",
"241 103 CURVE",
"366 103 OFFCURVE",
"431 182 OFFCURVE",
"431 289 CURVE SMOOTH",
"431 341 OFFCURVE",
"411 391 OFFCURVE",
"374 425 CURVE",
"356 464 OFFCURVE",
"408 489 OFFCURVE",
"432 438 CURVE",
"439 425 OFFCURVE",
"453 418 OFFCURVE",
"467 418 CURVE SMOOTH",
"492 418 OFFCURVE",
"506 437 OFFCURVE",
"506 457 CURVE SMOOTH",
"506 490 OFFCURVE",
"471 526 OFFCURVE",
"419 526 CURVE SMOOTH",
"369 526 OFFCURVE",
"330 497 OFFCURVE",
"317 459 CURVE",
"298 465 OFFCURVE",
"278 469 OFFCURVE",
"255 469 CURVE SMOOTH",
"124 469 OFFCURVE",
"60 388 OFFCURVE",
"60 280 CURVE SMOOTH",
"60 224 OFFCURVE",
"78 175 OFFCURVE",
"117 142 CURVE",
"91 124 OFFCURVE",
"74 99 OFFCURVE",
"74 67 CURVE SMOOTH",
"74 43 OFFCURVE",
"85 21 OFFCURVE",
"117 3 CURVE",
"72 -17 OFFCURVE",
"48 -48 OFFCURVE",
"48 -82 CURVE SMOOTH",
"48 -150 OFFCURVE",
"106 -229 OFFCURVE",
"272 -229 CURVE SMOOTH",
"430 -229 OFFCURVE",
"510 -172 OFFCURVE",
"510 -88 CURVE SMOOTH",
"510 -54 OFFCURVE",
"496 14 OFFCURVE",
"412 27 CURVE SMOOTH"
);
},
{
closed = 1;
nodes = (
"318 397 OFFCURVE",
"351 337 OFFCURVE",
"351 289 CURVE SMOOTH",
"351 219 OFFCURVE",
"312 183 OFFCURVE",
"241 183 CURVE SMOOTH",
"172 183 OFFCURVE",
"140 216 OFFCURVE",
"140 280 CURVE SMOOTH",
"140 339 OFFCURVE",
"165 397 OFFCURVE",
"255 397 CURVE SMOOTH"
);
},
{
closed = 1;
nodes = (
"175 -154 OFFCURVE",
"126 -125 OFFCURVE",
"126 -87 CURVE SMOOTH",
"126 -56 OFFCURVE",
"172 -30 OFFCURVE",
"237 -30 CURVE",
"397 -21 OFFCURVE",
"435 -45 OFFCURVE",
"435 -86 CURVE SMOOTH",
"435 -128 OFFCURVE",
"397 -154 OFFCURVE",
"275 -154 CURVE SMOOTH"
);
}
);
width = 522;
},
{
associatedMasterId = "24C63A81-7FC6-4EE9-AF2B-C1140AFD6C4B";
layerId = "E179B40D-7058-4FF1-8F4C-BCEC2680D7E2";
name = "Jan 6 19, 00:23";
paths = (
{
closed = 1;
nodes = (
"358 38 OFFCURVE",
"260 38 CURVE SMOOTH",
"193 38 OFFCURVE",
"145 44 OFFCURVE",
"145 74 CURVE SMOOTH",
"145 90 OFFCURVE",
"162 103 OFFCURVE",
"241 103 CURVE SMOOTH",
"366 103 OFFCURVE",
"431 182 OFFCURVE",
"431 284 CURVE SMOOTH",
"431 341 OFFCURVE",
"411 391 OFFCURVE",
"374 425 CURVE",
"356 464 OFFCURVE",
"408 489 OFFCURVE",
"432 438 CURVE",
"439 425 OFFCURVE",
"453 418 OFFCURVE",
"468 418 CURVE SMOOTH",
"492 418 OFFCURVE",
"506 437 OFFCURVE",
"506 458 CURVE SMOOTH",
"506 490 OFFCURVE",
"471 526 OFFCURVE",
"419 526 CURVE SMOOTH",
"369 526 OFFCURVE",
"330 497 OFFCURVE",
"317 459 CURVE",
"298 465 OFFCURVE",
"278 469 OFFCURVE",
"255 469 CURVE SMOOTH",
"124 469 OFFCURVE",
"60 388 OFFCURVE",
"60 280 CURVE SMOOTH",
"60 224 OFFCURVE",
"78 175 OFFCURVE",
"127 140 CURVE",
"91 124 OFFCURVE",
"74 99 OFFCURVE",
"74 67 CURVE SMOOTH",
"74 43 OFFCURVE",
"82 24 OFFCURVE",
"114 6 CURVE",
"70 -11 OFFCURVE",
"48 -46 OFFCURVE",
"48 -82 CURVE SMOOTH",
"48 -139 OFFCURVE",
"101 -204 OFFCURVE",
"251 -204 CURVE SMOOTH",
"394 -204 OFFCURVE",
"467 -162 OFFCURVE",
"467 -77 CURVE SMOOTH",
"467 29 OFFCURVE"
);
},
{
closed = 1;
nodes = (
"324 397 OFFCURVE",
"351 337 OFFCURVE",
"351 283 CURVE SMOOTH",
"351 219 OFFCURVE",
"312 183 OFFCURVE",
"241 183 CURVE SMOOTH",
"172 183 OFFCURVE",
"140 216 OFFCURVE",
"140 280 CURVE SMOOTH",
"140 339 OFFCURVE",
"171 397 OFFCURVE",
"247 397 CURVE SMOOTH"
);
},
{
closed = 1;
nodes = (
"161 -134 OFFCURVE",
"120 -110 OFFCURVE",
"120 -78 CURVE SMOOTH",
"120 -50 OFFCURVE",
"155 -29 OFFCURVE",
"259 -29 CURVE SMOOTH",
"345 -29 OFFCURVE",
"397 -41 OFFCURVE",
"397 -76 CURVE SMOOTH",
"397 -113 OFFCURVE",
"348 -134 OFFCURVE",
"252 -134 CURVE SMOOTH"
);
}
);
width = 518;
},
{
anchors = (
{
name = bottom;
position = "{253, -200}";
},
{
name = top;
position = "{221, 480}";
}
);
associatedMasterId = "24C63A81-7FC6-4EE9-AF2B-C1140AFD6C4B";
layerId = "BA8F71EF-109F-46C3-AD05-284CE10F5B4C";
name = "Jan 6 19, 00:51";
paths = (
{
closed = 1;
nodes = (
"344 77 OFFCURVE",
"247 63 CURVE SMOOTH",
"181 53 OFFCURVE",
"133 52 OFFCURVE",
"133 76 CURVE SMOOTH",
"133 90 OFFCURVE",
"150 103 OFFCURVE",
"229 103 CURVE SMOOTH",
"354 103 OFFCURVE",
"419 182 OFFCURVE",
"419 284 CURVE SMOOTH",
"419 341 OFFCURVE",
"399 391 OFFCURVE",
"362 425 CURVE",
"344 464 OFFCURVE",
"396 489 OFFCURVE",
"420 438 CURVE",
"427 425 OFFCURVE",
"441 418 OFFCURVE",
"456 418 CURVE SMOOTH",
"480 418 OFFCURVE",
"494 437 OFFCURVE",
"494 458 CURVE SMOOTH",
"494 490 OFFCURVE",
"459 526 OFFCURVE",
"407 526 CURVE SMOOTH",
"357 526 OFFCURVE",
"318 497 OFFCURVE",
"305 459 CURVE",
"286 465 OFFCURVE",
"266 469 OFFCURVE",
"238 469 CURVE SMOOTH",
"112 469 OFFCURVE",
"48 388 OFFCURVE",
"48 280 CURVE SMOOTH",
"48 224 OFFCURVE",
"66 175 OFFCURVE",
"115 140 CURVE",
"79 124 OFFCURVE",
"62 105 OFFCURVE",
"63 72 CURVE SMOOTH",
"63 46 OFFCURVE",
"73 23 OFFCURVE",
"108 10 CURVE",
"67 -14 OFFCURVE",
"50 -51 OFFCURVE",
"56 -90 CURVE SMOOTH",
"64 -143 OFFCURVE",
"116 -200 OFFCURVE",
"274 -178 CURVE SMOOTH",
"415 -158 OFFCURVE",
"482 -105 OFFCURVE",
"469 -21 CURVE SMOOTH",
"454 84 OFFCURVE"
);
},
{
closed = 1;
nodes = (
"312 397 OFFCURVE",
"339 337 OFFCURVE",
"339 283 CURVE SMOOTH",
"339 219 OFFCURVE",
"300 183 OFFCURVE",
"229 183 CURVE SMOOTH",
"160 183 OFFCURVE",
"128 216 OFFCURVE",
"128 280 CURVE SMOOTH",
"128 339 OFFCURVE",
"159 397 OFFCURVE",
"235 397 CURVE SMOOTH"
);
},
{
closed = 1;
nodes = (
"167 -122 OFFCURVE",
"131 -104 OFFCURVE",
"127 -75 CURVE SMOOTH",
"122 -45 OFFCURVE",
"153 -19 OFFCURVE",
"256 -4 CURVE SMOOTH",
"341 9 OFFCURVE",
"395 5 OFFCURVE",
"400 -30 CURVE SMOOTH",
"405 -67 OFFCURVE",
"360 -96 OFFCURVE",
"265 -109 CURVE SMOOTH"
);
}
);
width = 506;
}
);
leftKerningGroup = downRounded;
leftMetricsKey = o;
unicode = 0067;
},
{
glyphname = h;
lastChange = "2019-06-11 22:47:58 +0000";
layers = (
{
layerId = "24C63A81-7FC6-4EE9-AF2B-C1140AFD6C4B";
paths = (
{
closed = 1;
nodes = (
"48 711 OFFCURVE",
"48 649 CURVE SMOOTH",
"50 228 LINE SMOOTH",
"50 89 OFFCURVE",
"48 60 OFFCURVE",
"48 44 CURVE SMOOTH",
"48 -13 OFFCURVE",
"127 -17 OFFCURVE",
"128 42 CURVE SMOOTH",
"130 231 LINE SMOOTH",
"130 350 OFFCURVE",
"173 414 OFFCURVE",
"267 414 CURVE SMOOTH",
"326 414 OFFCURVE",
"365 389 OFFCURVE",
"364 278 CURVE SMOOTH",
"362 41 LINE SMOOTH",
"362 -10 OFFCURVE",
"436 -15 OFFCURVE",
"436 40 CURVE SMOOTH",
"436 125 OFFCURVE",
"441 218 OFFCURVE",
"441 283 CURVE SMOOTH",
"441 411 OFFCURVE",
"404 489 OFFCURVE",
"288 489 CURVE SMOOTH",
"233 489 OFFCURVE",
"169 471 OFFCURVE",
"136 412 CURVE SMOOTH",
"132 404 OFFCURVE",
"126 406 OFFCURVE",
"126 415 CURVE SMOOTH",
"128 649 LINE",
"128 711 OFFCURVE"
);
}
);
width = 489;
},
{
associatedMasterId = "24C63A81-7FC6-4EE9-AF2B-C1140AFD6C4B";
layerId = "2601E4EC-9AFB-4D2A-9172-416F5A4EA30D";
name = "Jun 12 19, 00:46";
paths = (
{
closed = 1;
nodes = (
"48 711 OFFCURVE",
"48 649 CURVE SMOOTH",
"50 228 LINE SMOOTH",
"50 89 OFFCURVE",
"48 60 OFFCURVE",
"48 49 CURVE SMOOTH",
"48 -13 OFFCURVE",
"127 -17 OFFCURVE",
"128 47 CURVE SMOOTH",
"130 231 LINE",
"130 342 LINE",
"164 376 OFFCURVE",
"224 414 OFFCURVE",
"280 414 CURVE SMOOTH",
"324 414 OFFCURVE",
"365 389 OFFCURVE",
"364 278 CURVE SMOOTH",
"362 46 LINE SMOOTH",
"362 -10 OFFCURVE",
"436 -15 OFFCURVE",
"436 45 CURVE SMOOTH",
"436 125 OFFCURVE",
"441 218 OFFCURVE",
"441 283 CURVE SMOOTH",
"441 411 OFFCURVE",
"398 489 OFFCURVE",
"288 489 CURVE SMOOTH",
"219 489 OFFCURVE",
"174 457 OFFCURVE",
"129 423 CURVE",
"128 649 LINE SMOOTH",
"128 711 OFFCURVE"
);
}
);
width = 489;
}
);
leftMetricsKey = n;
rightMetricsKey = n;
unicode = 0068;
},
{
glyphname = idotless;
lastChange = "2019-06-25 11:10:07 +0000";
layers = (
{
anchors = (
{
name = bottom;
position = "{109, 0}";
},
{
name = ogonek;
position = "{155, 50}";
},
{
name = top;
position = "{119, 520}";
}
);
layerId = "24C63A81-7FC6-4EE9-AF2B-C1140AFD6C4B";
paths = (
{
closed = 1;
nodes = (
"48 473 OFFCURVE",
"48 444 CURVE SMOOTH",
"48 425 OFFCURVE",
"62 414 OFFCURVE",
"73 414 CURVE SMOOTH",
"76 414 OFFCURVE",
"81 415 OFFCURVE",
"84 415 CURVE SMOOTH",
"89 415 OFFCURVE",
"91 411 OFFCURVE",
"91 405 CURVE SMOOTH",
"91 79 LINE SMOOTH",
"91 8 OFFCURVE",
"109 -2 OFFCURVE",
"132 -2 CURVE SMOOTH",
"155 -2 OFFCURVE",
"171 14 OFFCURVE",
"171 48 CURVE SMOOTH",
"171 422 LINE SMOOTH",
"171 467 OFFCURVE",
"140 482 OFFCURVE",
"110 482 CURVE SMOOTH",
"81 482 OFFCURVE"
);
}
);
width = 219;
}
);
leftMetricsKey = n;
rightMetricsKey = n;
unicode = 0131;
},
{
glyphname = ij;
lastChange = "2019-01-06 00:57:54 +0000";
layers = (
{
components = (
{
name = i;
transform = "{1, 0, 0, 1, 40, 0}";
},
{
name = dotaccentcomb;
transform = "{1, 0, 0, 1, 150, -213}";
}
);
layerId = "24C63A81-7FC6-4EE9-AF2B-C1140AFD6C4B";
paths = (
{
closed = 1;
nodes = (
"146 -141 OFFCURVE",
"169 -159 OFFCURVE",
"250 -159 CURVE SMOOTH",
"286 -159 OFFCURVE",
"410 -158 OFFCURVE",
"411 -12 CURVE SMOOTH",
"415 462 LINE SMOOTH",
"415 467 OFFCURVE",
"394 482 OFFCURVE",
"354 482 CURVE SMOOTH",
"319 482 OFFCURVE",
"290 473 OFFCURVE",
"290 444 CURVE SMOOTH",
"290 425 OFFCURVE",
"303 414 OFFCURVE",
"314 414 CURVE SMOOTH",
"320 414 OFFCURVE",
"332 415 OFFCURVE",
"337 416 CURVE",
"339 112 OFFCURVE",
"337 45 OFFCURVE",
"331 -19 CURVE SMOOTH",
"323 -107 OFFCURVE",
"217 -82 OFFCURVE",
"188 -82 CURVE SMOOTH",
"158 -82 OFFCURVE",
"146 -99 OFFCURVE",
"146 -117 CURVE SMOOTH"
);
}
);
width = 463;
}
);
unicode = 0133;
},
{
glyphname = j;
lastChange = "2019-05-11 15:30:26 +0000";
layers = (
{
background = {
paths = (
{
closed = 0;
nodes = (
"115 383 LINE"
);
},
{
closed = 0;
nodes = (
"114 416 LINE"
);
}
);
};
components = (
{
name = jdotless;
},
{
name = dotaccentcomb;
transform = "{1, 0, 0, 1, -66, -147}";
}
);
layerId = "24C63A81-7FC6-4EE9-AF2B-C1140AFD6C4B";
width = 239;
},
{
associatedMasterId = "24C63A81-7FC6-4EE9-AF2B-C1140AFD6C4B";
layerId = "8233342D-35DE-446A-B08F-6C8801034009";
name = "Dec 24 18, 16:30";
paths = (
{
closed = 1;
nodes = (
"105 647 OFFCURVE",
"85 622 OFFCURVE",
"89 592 CURVE SMOOTH",
"90 584 LINE SMOOTH",
"94 556 OFFCURVE",
"117 542 OFFCURVE",
"144 542 CURVE SMOOTH",
"151 542 LINE",
"181 546 OFFCURVE",
"203 570 OFFCURVE",
"196 598 CURVE SMOOTH",
"194 606 LINE SMOOTH",
"186 637 OFFCURVE",
"165 656 OFFCURVE",
"135 651 CURVE SMOOTH"
);
},
{
closed = 1;
nodes = (
"95 463 OFFCURVE",
"67 431 OFFCURVE",
"68 403 CURVE",
"68 383 OFFCURVE",
"78 359 OFFCURVE",
"120 369 CURVE",
"120 242 LINE SMOOTH",
"120 90 OFFCURVE",
"123 50 OFFCURVE",
"114 -19 CURVE",
"109 -49 OFFCURVE",
"100 -70 OFFCURVE",
"90 -82 CURVE SMOOTH",
"84 -89 OFFCURVE",
"75 -98 OFFCURVE",
"53 -101 CURVE",
"31 -105 OFFCURVE",
"16 -125 OFFCURVE",
"19 -147 CURVE SMOOTH",
"22 -167 OFFCURVE",
"39 -181 OFFCURVE",
"59 -181 CURVE SMOOTH",
"61 -181 OFFCURVE",
"63 -180 OFFCURVE",
"65 -180 CURVE",
"150 -166 OFFCURVE",
"184 -89 OFFCURVE",
"190 -32 CURVE SMOOTH",
"198 44 OFFCURVE",
"197 81 OFFCURVE",
"197 244 CURVE SMOOTH",
"197 459 OFFCURVE",
"205 483 OFFCURVE",
"160 475 CURVE SMOOTH"
);
}
);
width = 281;
}
);
leftMetricsKey = v;
rightMetricsKey = n;
unicode = 006A;
},
{
glyphname = jdotless;
lastChange = "2019-06-11 22:45:34 +0000";
layers = (
{
anchors = (
{
name = bottom;
position = "{120, -200}";
},
{
name = top;
position = "{134, 520}";
}
);
background = {
paths = (
{
closed = 0;
nodes = (
"190 401 LINE SMOOTH"
);
},
{
closed = 0;
nodes = (
"113 399 LINE SMOOTH"
);
}
);
};
layerId = "24C63A81-7FC6-4EE9-AF2B-C1140AFD6C4B";
paths = (
{
closed = 1;
nodes = (
"150 -151 OFFCURVE",
"186 -78 OFFCURVE",
"187 -2 CURVE SMOOTH",
"190 404 LINE SMOOTH",
"190 464 OFFCURVE",
"162 481 OFFCURVE",
"132 481 CURVE SMOOTH",
"103 481 OFFCURVE",
"70 472 OFFCURVE",
"70 443 CURVE SMOOTH",
"70 424 OFFCURVE",
"84 413 OFFCURVE",
"95 413 CURVE",
"106 414 LINE",
"111 414 OFFCURVE",
"113 410 OFFCURVE",
"113 404 CURVE SMOOTH",
"113 128 OFFCURVE",
"118 52 OFFCURVE",
"107 -9 CURVE SMOOTH",
"98 -57 OFFCURVE",
"83 -68 OFFCURVE",
"54 -68 CURVE SMOOTH",
"24 -68 OFFCURVE",
"12 -87 OFFCURVE",
"12 -105 CURVE SMOOTH",
"12 -129 OFFCURVE",
"33 -151 OFFCURVE",
"75 -151 CURVE SMOOTH"
);
}
);
width = 239;
}
);
leftMetricsKey = v;
rightMetricsKey = n;
unicode = 0237;
},
{
glyphname = k;
lastChange = "2019-06-11 22:31:44 +0000";
layers = (
{
anchors = (
{
name = bottom;
position = "{232, 0}";
},
{
name = top;
position = "{232, 800}";
}
);
layerId = "24C63A81-7FC6-4EE9-AF2B-C1140AFD6C4B";
paths = (
{
closed = 1;
nodes = (
"69 -1 OFFCURVE",
"89 -1 CURVE SMOOTH",
"107 -1 OFFCURVE",
"126 9 OFFCURVE",
"130 48 CURVE SMOOTH",
"131 62 OFFCURVE",
"132 65 OFFCURVE",
"134 94 CURVE",
"203 128 OFFCURVE",
"272 123 OFFCURVE",
"337 32 CURVE SMOOTH",
"351 12 OFFCURVE",
"362 -2 OFFCURVE",
"384 -2 CURVE SMOOTH",
"403 -2 OFFCURVE",
"418 8 OFFCURVE",
"418 28 CURVE SMOOTH",
"418 36 OFFCURVE",
"416 47 OFFCURVE",
"410 61 CURVE SMOOTH",
"389 107 OFFCURVE",
"352 147 OFFCURVE",
"263 164 CURVE SMOOTH",
"254 166 OFFCURVE",
"254 169 OFFCURVE",
"262 172 CURVE SMOOTH",
"394 216 OFFCURVE",
"426 297 OFFCURVE",
"426 355 CURVE SMOOTH",
"426 433 OFFCURVE",
"363 490 OFFCURVE",
"285 490 CURVE SMOOTH",
"234 490 OFFCURVE",
"166 463 OFFCURVE",
"129 382 CURVE",
"128 661 LINE",
"128 683 OFFCURVE",
"110 701 OFFCURVE",
"88 700 CURVE",
"66 700 OFFCURVE",
"48 682 OFFCURVE",
"48 660 CURVE SMOOTH",
"48 657 OFFCURVE",
"53 370 OFFCURVE",
"53 230 CURVE SMOOTH",
"49 44 LINE SMOOTH",
"48 12 OFFCURVE"
);
},
{
closed = 1;
nodes = (
"135 320 OFFCURVE",
"194 417 OFFCURVE",
"274 417 CURVE SMOOTH",
"313 417 OFFCURVE",
"346 394 OFFCURVE",
"346 354 CURVE SMOOTH",
"346 308 OFFCURVE",
"303 261 OFFCURVE",
"254 231 CURVE SMOOTH",
"226 213 OFFCURVE",
"176 185 OFFCURVE",
"143 169 CURVE",
"136 165 OFFCURVE",
"131 169 OFFCURVE",
"131 177 CURVE SMOOTH"
);
}
);
width = 457;
},
{
associatedMasterId = "24C63A81-7FC6-4EE9-AF2B-C1140AFD6C4B";
layerId = "0219934E-6263-49D1-99F8-EC1ABFD1C13C";
name = "Dec 24 18, 16:33";
paths = (
{
closed = 1;
nodes = (
"293 343 OFFCURVE",
"334 368 OFFCURVE",
"364 388 CURVE SMOOTH",
"411 420 OFFCURVE",
"413 439 OFFCURVE",
"400 458 CURVE SMOOTH",
"386 478 OFFCURVE",
"360 470 OFFCURVE",
"315 445 CURVE SMOOTH",
"239 402 OFFCURVE",
"239 389 OFFCURVE",
"144 330 CURVE",
"143 474 OFFCURVE",
"140 659 OFFCURVE",
"140 661 CURVE SMOOTH",
"140 683 OFFCURVE",
"122 701 OFFCURVE",
"100 700 CURVE",
"78 700 OFFCURVE",
"60 682 OFFCURVE",
"60 660 CURVE SMOOTH",
"60 657 OFFCURVE",
"65 370 OFFCURVE",
"65 230 CURVE SMOOTH",
"65 93 OFFCURVE",
"61 44 OFFCURVE",
"61 44 CURVE",
"58 22 OFFCURVE",
"74 2 OFFCURVE",
"96 0 CURVE",
"156 0 OFFCURVE",
"145 68 OFFCURVE",
"145 230 CURVE SMOOTH",
"145 243 LINE",
"186 243 OFFCURVE",
"247 238 OFFCURVE",
"283 200 CURVE SMOOTH",
"328 151 OFFCURVE",
"329 98 OFFCURVE",
"329 42 CURVE",
"328 20 OFFCURVE",
"344 1 OFFCURVE",
"366 0 CURVE",
"390 0 OFFCURVE",
"408 16 OFFCURVE",
"409 37 CURVE",
"409 133 OFFCURVE",
"394 288 OFFCURVE",
"221 301 CURVE"
);
}
);
width = 469;
},
{
associatedMasterId = "24C63A81-7FC6-4EE9-AF2B-C1140AFD6C4B";
layerId = "09F9386A-8888-43F7-9783-3A3597C43046";
name = "Dec 26 18, 21:44";
paths = (
{
closed = 1;
nodes = (
"275 364 OFFCURVE",
"311 396 OFFCURVE",
"352 424 CURVE SMOOTH",
"387 458 OFFCURVE",
"385 482 OFFCURVE",
"369 499 CURVE SMOOTH",
"345 522 OFFCURVE",
"314 510 OFFCURVE",
"284 480 CURVE SMOOTH",
"222 417 OFFCURVE",
"193 390 OFFCURVE",
"132 330 CURVE",
"131 484 OFFCURVE",
"128 659 OFFCURVE",
"128 661 CURVE SMOOTH",
"128 683 OFFCURVE",
"110 701 OFFCURVE",
"88 700 CURVE",
"66 700 OFFCURVE",
"48 682 OFFCURVE",
"48 660 CURVE SMOOTH",
"48 657 OFFCURVE",
"53 370 OFFCURVE",
"53 230 CURVE",
"49 44 LINE SMOOTH",
"46 22 OFFCURVE",
"62 2 OFFCURVE",
"84 0 CURVE SMOOTH",
"112 0 OFFCURVE",
"124 15 OFFCURVE",
"130 47 CURVE SMOOTH",
"136 82 OFFCURVE",
"133 143 OFFCURVE",
"133 243 CURVE",
"174 243 OFFCURVE",
"235 238 OFFCURVE",
"271 200 CURVE SMOOTH",
"316 151 OFFCURVE",
"317 98 OFFCURVE",
"317 42 CURVE SMOOTH",
"316 20 OFFCURVE",
"332 1 OFFCURVE",
"354 0 CURVE SMOOTH",
"378 0 OFFCURVE",
"396 16 OFFCURVE",
"397 37 CURVE SMOOTH",
"397 133 OFFCURVE",
"382 288 OFFCURVE",
"212 310 CURVE"
);
}
);
width = 445;
},
{
associatedMasterId = "24C63A81-7FC6-4EE9-AF2B-C1140AFD6C4B";
layerId = "8591D5FB-1DFF-4DA5-8192-E3CC6CAD3DD9";
name = "Dec 26 18, 21:50";
paths = (
{
closed = 1;
nodes = (
"112 0 OFFCURVE",
"124 15 OFFCURVE",
"130 47 CURVE SMOOTH",
"133 65 OFFCURVE",
"134 89 OFFCURVE",
"134 121 CURVE SMOOTH",
"134 153 OFFCURVE",
"133 193 OFFCURVE",
"133 243 CURVE",
"174 243 OFFCURVE",
"235 238 OFFCURVE",
"271 200 CURVE SMOOTH",
"316 151 OFFCURVE",
"317 98 OFFCURVE",
"317 42 CURVE",
"316 20 OFFCURVE",
"332 1 OFFCURVE",
"354 0 CURVE",
"378 0 OFFCURVE",
"396 16 OFFCURVE",
"397 37 CURVE",
"397 133 OFFCURVE",
"382 288 OFFCURVE",
"224 295 CURVE",
"321 310 OFFCURVE",
"383 355 OFFCURVE",
"383 415 CURVE SMOOTH",
"383 470 OFFCURVE",
"329 513 OFFCURVE",
"256 513 CURVE SMOOTH",
"218 513 OFFCURVE",
"167 502 OFFCURVE",
"130 454 CURVE",
"128 661 LINE",
"128 683 OFFCURVE",
"110 701 OFFCURVE",
"88 700 CURVE",
"66 700 OFFCURVE",
"48 682 OFFCURVE",
"48 660 CURVE SMOOTH",
"48 657 OFFCURVE",
"53 370 OFFCURVE",
"53 230 CURVE SMOOTH",
"49 44 LINE",
"46 22 OFFCURVE",
"62 2 OFFCURVE",
"84 0 CURVE"
);
},
{
closed = 1;
nodes = (
"150 399 OFFCURVE",
"220 432 OFFCURVE",
"257 432 CURVE SMOOTH",
"279 432 OFFCURVE",
"292 420 OFFCURVE",
"292 403 CURVE SMOOTH",
"292 353 OFFCURVE",
"175 341 OFFCURVE",
"133 331 CURVE"
);
}
);
width = 445;
},
{
associatedMasterId = "24C63A81-7FC6-4EE9-AF2B-C1140AFD6C4B";
layerId = "1EEA806D-64AC-4EBE-8D07-342A4A82F0F8";
name = "Dec 26 18, 21:57";
paths = (
{
closed = 1;
nodes = (
"112 0 OFFCURVE",
"124 15 OFFCURVE",
"130 47 CURVE SMOOTH",
"133 65 OFFCURVE",
"134 89 OFFCURVE",
"134 121 CURVE SMOOTH",
"134 153 OFFCURVE",
"133 156 OFFCURVE",
"133 206 CURVE",
"231 171 OFFCURVE",
"280 121 OFFCURVE",
"320 32 CURVE SMOOTH",
"329 12 OFFCURVE",
"344 -1 OFFCURVE",
"368 -2 CURVE SMOOTH",
"390 -3 OFFCURVE",
"402 15 OFFCURVE",
"392 53 CURVE SMOOTH",
"371 131 OFFCURVE",
"313 206 OFFCURVE",
"200 254 CURVE",
"317 269 OFFCURVE",
"383 318 OFFCURVE",
"383 378 CURVE SMOOTH",
"383 433 OFFCURVE",
"329 476 OFFCURVE",
"256 476 CURVE SMOOTH",
"218 476 OFFCURVE",
"167 465 OFFCURVE",
"130 417 CURVE",
"128 661 LINE",
"128 683 OFFCURVE",
"110 701 OFFCURVE",
"88 700 CURVE",
"66 700 OFFCURVE",
"48 682 OFFCURVE",
"48 660 CURVE SMOOTH",
"48 657 OFFCURVE",
"53 370 OFFCURVE",
"53 230 CURVE SMOOTH",
"49 44 LINE",
"46 22 OFFCURVE",
"62 2 OFFCURVE",
"84 0 CURVE SMOOTH"
);
},
{
closed = 1;
nodes = (
"168 383 OFFCURVE",
"217 400 OFFCURVE",
"246 400 CURVE SMOOTH",
"276 400 OFFCURVE",
"292 383 OFFCURVE",
"292 366 CURVE SMOOTH",
"292 316 OFFCURVE",
"168 312 OFFCURVE",
"126 302 CURVE"
);
}
);
width = 444;
},
{
associatedMasterId = "24C63A81-7FC6-4EE9-AF2B-C1140AFD6C4B";
layerId = "98FC5D4A-20CA-460A-8708-A00A4F03D207";
name = "Jan 5 19, 20:18";
paths = (
{
closed = 1;
nodes = (
"112 0 OFFCURVE",
"124 15 OFFCURVE",
"130 47 CURVE SMOOTH",
"133 65 OFFCURVE",
"134 89 OFFCURVE",
"134 121 CURVE SMOOTH",
"134 153 OFFCURVE",
"134 186 OFFCURVE",
"133 215 CURVE",
"231 171 OFFCURVE",
"280 121 OFFCURVE",
"320 32 CURVE SMOOTH",
"329 12 OFFCURVE",
"344 -1 OFFCURVE",
"368 -2 CURVE SMOOTH",
"390 -3 OFFCURVE",
"402 15 OFFCURVE",
"392 53 CURVE SMOOTH",
"371 131 OFFCURVE",
"313 210 OFFCURVE",
"192 258 CURVE",
"348 275 OFFCURVE",
"404 325 OFFCURVE",
"404 392 CURVE SMOOTH",
"404 453 OFFCURVE",
"358 493 OFFCURVE",
"288 493 CURVE SMOOTH",
"229 493 OFFCURVE",
"168 465 OFFCURVE",
"131 402 CURVE",
"128 661 LINE",
"128 683 OFFCURVE",
"110 701 OFFCURVE",
"88 700 CURVE",
"66 700 OFFCURVE",
"48 682 OFFCURVE",
"48 660 CURVE SMOOTH",
"48 657 OFFCURVE",
"53 370 OFFCURVE",
"53 230 CURVE SMOOTH",
"49 44 LINE",
"46 22 OFFCURVE",
"62 2 OFFCURVE",
"84 0 CURVE SMOOTH"
);
},
{
closed = 1;
nodes = (
"179 391 OFFCURVE",
"232 417 OFFCURVE",
"269 417 CURVE SMOOTH",
"300 417 OFFCURVE",
"319 400 OFFCURVE",
"319 380 CURVE SMOOTH",
"319 325 OFFCURVE",
"177 317 OFFCURVE",
"148 317 CURVE"
);
}
);
width = 416;
},
{
associatedMasterId = "24C63A81-7FC6-4EE9-AF2B-C1140AFD6C4B";
layerId = "021047D3-91E9-478B-85C3-E9FE9B518A2C";
name = "Jan 5 19, 20:23";
paths = (
{
closed = 1;
nodes = (
"112 0 OFFCURVE",
"124 15 OFFCURVE",
"130 47 CURVE SMOOTH",
"133 65 OFFCURVE",
"134 89 OFFCURVE",
"134 121 CURVE SMOOTH",
"134 153 OFFCURVE",
"134 186 OFFCURVE",
"133 215 CURVE",
"231 171 OFFCURVE",
"280 121 OFFCURVE",
"320 32 CURVE SMOOTH",
"329 12 OFFCURVE",
"344 -1 OFFCURVE",
"368 -2 CURVE SMOOTH",
"390 -3 OFFCURVE",
"402 15 OFFCURVE",
"392 53 CURVE SMOOTH",
"371 131 OFFCURVE",
"327 171 OFFCURVE",
"264 225 CURVE",
"388 225 OFFCURVE",
"414 315 OFFCURVE",
"414 367 CURVE SMOOTH",
"414 443 OFFCURVE",
"358 493 OFFCURVE",
"283 493 CURVE SMOOTH",
"229 493 OFFCURVE",
"168 465 OFFCURVE",
"131 402 CURVE",
"128 661 LINE",
"128 683 OFFCURVE",
"110 701 OFFCURVE",
"88 700 CURVE",
"66 700 OFFCURVE",
"48 682 OFFCURVE",
"48 660 CURVE SMOOTH",
"48 657 OFFCURVE",
"53 370 OFFCURVE",
"53 230 CURVE SMOOTH",
"49 44 LINE",
"46 22 OFFCURVE",
"62 2 OFFCURVE",
"84 0 CURVE SMOOTH"
);
},
{
closed = 1;
nodes = (
"158 374 OFFCURVE",
"218 417 OFFCURVE",
"266 417 CURVE SMOOTH",
"301 417 OFFCURVE",
"330 394 OFFCURVE",
"328 353 CURVE SMOOTH",
"324 279 OFFCURVE",
"215 261 OFFCURVE",
"148 288 CURVE"
);
}
);
width = 416;
},
{
associatedMasterId = "24C63A81-7FC6-4EE9-AF2B-C1140AFD6C4B";
layerId = "8AF8CA97-10ED-412D-8409-99B27AA3F276";
name = "Jan 5 19, 20:41";
paths = (
{
closed = 1;
nodes = (
"69 -1 OFFCURVE",
"89 -1 CURVE SMOOTH",
"107 -1 OFFCURVE",
"126 9 OFFCURVE",
"130 48 CURVE SMOOTH",
"131 62 OFFCURVE",
"132 65 OFFCURVE",
"134 94 CURVE",
"162 108 OFFCURVE",
"208 131 OFFCURVE",
"239 145 CURVE",
"274 109 OFFCURVE",
"302 81 OFFCURVE",
"337 32 CURVE SMOOTH",
"351 12 OFFCURVE",
"362 -2 OFFCURVE",
"384 -2 CURVE SMOOTH",
"403 -2 OFFCURVE",
"415 8 OFFCURVE",
"415 28 CURVE SMOOTH",
"415 36 OFFCURVE",
"413 44 OFFCURVE",
"408 55 CURVE SMOOTH",
"385 107 OFFCURVE",
"339 145 OFFCURVE",
"305 178 CURVE",
"403 229 OFFCURVE",
"426 305 OFFCURVE",
"426 352 CURVE SMOOTH",
"426 433 OFFCURVE",
"365 483 OFFCURVE",
"286 483 CURVE SMOOTH",
"236 483 OFFCURVE",
"166 463 OFFCURVE",
"129 382 CURVE",
"128 661 LINE",
"128 683 OFFCURVE",
"110 701 OFFCURVE",
"88 700 CURVE",
"66 700 OFFCURVE",
"48 682 OFFCURVE",
"48 660 CURVE SMOOTH",
"48 657 OFFCURVE",
"53 370 OFFCURVE",
"53 230 CURVE SMOOTH",
"49 44 LINE SMOOTH",
"48 12 OFFCURVE"
);
},
{
closed = 1;
nodes = (
"131 314 OFFCURVE",
"191 412 OFFCURVE",
"278 412 CURVE SMOOTH",
"313 412 OFFCURVE",
"346 394 OFFCURVE",
"346 354 CURVE SMOOTH",
"346 308 OFFCURVE",
"303 261 OFFCURVE",
"254 231 CURVE SMOOTH",
"222 211 OFFCURVE",
"162 177 OFFCURVE",
"131 163 CURVE"
);
}
);
width = 430;
}
);
leftMetricsKey = n;
rightMetricsKey = o;
unicode = 006B;
},
{
glyphname = l;
lastChange = "2019-06-25 11:10:02 +0000";
layers = (
{
anchors = (
{
name = bottom;
position = "{129, 0}";
},
{
name = center;
position = "{129, 373}";
},
{
name = top;
position = "{89, 744}";
},
{
name = topright;
position = "{203, 774}";
}
);
layerId = "24C63A81-7FC6-4EE9-AF2B-C1140AFD6C4B";
paths = (
{
closed = 1;
nodes = (
"67 700 OFFCURVE",
"49 682 OFFCURVE",
"49 650 CURVE SMOOTH",
"49 618 OFFCURVE",
"48 193 OFFCURVE",
"48 100 CURVE SMOOTH",
"48 41 OFFCURVE",
"79 -4 OFFCURVE",
"137 -4 CURVE SMOOTH",
"173 -4 OFFCURVE",
"191 17 OFFCURVE",
"191 37 CURVE SMOOTH",
"191 56 OFFCURVE",
"176 74 OFFCURVE",
"144 74 CURVE SMOOTH",
"134 74 OFFCURVE",
"128 84 OFFCURVE",
"128 102 CURVE SMOOTH",
"128 133 OFFCURVE",
"129 373 OFFCURVE",
"129 650 CURVE SMOOTH",
"129 682 OFFCURVE",
"111 700 OFFCURVE",
"89 700 CURVE SMOOTH"
);
}
);
width = 199;
},
{
anchors = (
{
name = bottom;
position = "{129, 0}";
},
{
name = center;
position = "{129, 373}";
},
{
name = top;
position = "{89, 744}";
},
{
name = topright;
position = "{203, 774}";
}
);
associatedMasterId = "24C63A81-7FC6-4EE9-AF2B-C1140AFD6C4B";
layerId = "833C629B-A10E-47E6-B3D9-A9C6A1A3583C";
name = "Jan 2 19, 00:41";
paths = (
{
closed = 1;
nodes = (
"67 700 OFFCURVE",
"49 682 OFFCURVE",
"49 650 CURVE SMOOTH",
"49 618 OFFCURVE",
"48 197 OFFCURVE",
"48 104 CURVE SMOOTH",
"48 45 OFFCURVE",
"79 0 OFFCURVE",
"137 0 CURVE SMOOTH",
"163 0 OFFCURVE",
"199 9 OFFCURVE",
"222 33 CURVE SMOOTH",
"237 48 OFFCURVE",
"245 66 OFFCURVE",
"245 82 CURVE SMOOTH",
"245 95 OFFCURVE",
"240 106 OFFCURVE",
"232 113 CURVE SMOOTH",
"225 119 OFFCURVE",
"216 122 OFFCURVE",
"206 122 CURVE SMOOTH",
"196 122 OFFCURVE",
"185 120 OFFCURVE",
"177 110 CURVE SMOOTH",
"163 93 OFFCURVE",
"156 78 OFFCURVE",
"144 78 CURVE SMOOTH",
"134 78 OFFCURVE",
"128 88 OFFCURVE",
"128 106 CURVE SMOOTH",
"129 137 OFFCURVE",
"129 373 OFFCURVE",
"129 650 CURVE SMOOTH",
"129 682 OFFCURVE",
"111 700 OFFCURVE",
"89 700 CURVE SMOOTH"
);
}
);
width = 257;
}
);
leftMetricsKey = n;
rightMetricsKey = "=n-40";
unicode = 006C;
},
{
glyphname = ldot;
lastChange = "2014-09-27 15:23:54 +0000";
layers = (
{
layerId = "24C63A81-7FC6-4EE9-AF2B-C1140AFD6C4B";
paths = (
{
closed = 1;
nodes = (
"112 700 LINE",
"90 700 OFFCURVE",
"72 682 OFFCURVE",
"72 660 CURVE SMOOTH",
"71 534 OFFCURVE",
"72 445 OFFCURVE",
"72 366 CURVE SMOOTH",
"72 273 OFFCURVE",
"73 199 OFFCURVE",
"71 107 CURVE SMOOTH",
"70 39 OFFCURVE",
"103 15 OFFCURVE",
"123 6 CURVE SMOOTH",
"132 2 OFFCURVE",
"143 0 OFFCURVE",
"153 0 CURVE SMOOTH",
"186 0 OFFCURVE",
"222 19 OFFCURVE",
"257 54 CURVE SMOOTH",
"272 70 OFFCURVE",
"272 95 OFFCURVE",
"257 111 CURVE",
"241 126 OFFCURVE",
"215 126 OFFCURVE",
"200 110 CURVE SMOOTH",
"177 87 OFFCURVE",
"160 81 OFFCURVE",
"155 80 CURVE",
"153 83 OFFCURVE",
"151 91 OFFCURVE",
"151 106 CURVE SMOOTH",
"153 198 OFFCURVE",
"152 272 OFFCURVE",
"152 366 CURVE SMOOTH",
"152 445 OFFCURVE",
"151 534 OFFCURVE",
"152 660 CURVE"
);
},
{
closed = 1;
nodes = (
"286 362 OFFCURVE",
"261 337 OFFCURVE",
"261 307 CURVE SMOOTH",
"261 277 OFFCURVE",
"286 252 OFFCURVE",
"317 252 CURVE SMOOTH",
"348 252 OFFCURVE",
"372 277 OFFCURVE",
"372 307 CURVE SMOOTH",
"372 337 OFFCURVE",
"348 362 OFFCURVE",
"317 362 CURVE SMOOTH"
);
}
);
width = 301;
}
);
unicode = 0140;
},
{
glyphname = m;
lastChange = "2019-01-06 13:47:29 +0000";
layers = (
{
anchors = (
{
name = bottom;
position = "{311, 10}";
},
{
name = top;
position = "{311, 480}";
}
);
layerId = "24C63A81-7FC6-4EE9-AF2B-C1140AFD6C4B";
paths = (
{
closed = 1;
nodes = (
"549 487 OFFCURVE",
"454 487 CURVE SMOOTH",
"405 487 OFFCURVE",
"360 460 OFFCURVE",
"336 432 CURVE",
"331 468 OFFCURVE",
"290 486 OFFCURVE",
"247 486 CURVE SMOOTH",
"200 486 OFFCURVE",
"160 466 OFFCURVE",
"133 431 CURVE",
"128 451 LINE SMOOTH",
"124 468 OFFCURVE",
"107 480 OFFCURVE",
"88 480 CURVE SMOOTH",
"67 480 OFFCURVE",
"48 464 OFFCURVE",
"48 435 CURVE SMOOTH",
"48 405 OFFCURVE",
"60 344 OFFCURVE",
"60 252 CURVE SMOOTH",
"60 177 OFFCURVE",
"63 81 OFFCURVE",
"60 43 CURVE SMOOTH",
"58 21 OFFCURVE",
"75 0 OFFCURVE",
"99 0 CURVE SMOOTH",
"121 0 OFFCURVE",
"138 16 OFFCURVE",
"140 37 CURVE SMOOTH",
"140 87 OFFCURVE",
"140 190 OFFCURVE",
"140 273 CURVE SMOOTH",
"140 301 OFFCURVE",
"139 329 OFFCURVE",
"137 355 CURVE",
"168 393 OFFCURVE",
"207 411 OFFCURVE",
"231 411 CURVE SMOOTH",
"255 411 OFFCURVE",
"271 394 OFFCURVE",
"271 329 CURVE SMOOTH",
"271 46 LINE SMOOTH",
"271 14 OFFCURVE",
"287 1 OFFCURVE",
"311 1 CURVE SMOOTH",
"334 1 OFFCURVE",
"348 16 OFFCURVE",
"348 45 CURVE SMOOTH",
"348 133 OFFCURVE",
"353 233 OFFCURVE",
"353 299 CURVE SMOOTH",
"353 321 OFFCURVE",
"353 341 OFFCURVE",
"351 360 CURVE",
"380 391 OFFCURVE",
"409 400 OFFCURVE",
"428 400 CURVE SMOOTH",
"454 400 OFFCURVE",
"470 383 OFFCURVE",
"470 329 CURVE SMOOTH",
"470 46 LINE SMOOTH",
"470 14 OFFCURVE",
"486 1 OFFCURVE",
"510 1 CURVE SMOOTH",
"533 1 OFFCURVE",
"547 16 OFFCURVE",
"547 45 CURVE SMOOTH",
"547 128 OFFCURVE",
"551 221 OFFCURVE",
"551 286 CURVE SMOOTH",
"551 381 OFFCURVE"
);
}
);
width = 599;
}
);
leftMetricsKey = n;
rightMetricsKey = n;
unicode = 006D;
},
{
color = 5;
glyphname = n;
lastChange = "2019-06-11 22:49:49 +0000";
layers = (
{
anchors = (
{
name = bottom;
position = "{244, 0}";
},
{
name = top;
position = "{244, 500}";
}
);
layerId = "24C63A81-7FC6-4EE9-AF2B-C1140AFD6C4B";
paths = (
{
closed = 1;
nodes = (
"106 482 OFFCURVE",
"86 482 CURVE SMOOTH",
"67 482 OFFCURVE",
"48 469 OFFCURVE",
"48 438 CURVE SMOOTH",
"51 228 LINE SMOOTH",
"53 89 OFFCURVE",
"49 60 OFFCURVE",
"49 39 CURVE SMOOTH",
"49 12 OFFCURVE",
"70 -2 OFFCURVE",
"90 -2 CURVE SMOOTH",
"110 -2 OFFCURVE",
"129 11 OFFCURVE",
"129 37 CURVE SMOOTH",
"131 231 LINE SMOOTH",
"131 350 OFFCURVE",
"174 414 OFFCURVE",
"268 414 CURVE SMOOTH",
"327 414 OFFCURVE",
"366 389 OFFCURVE",
"365 278 CURVE SMOOTH",
"363 36 LINE SMOOTH",
"363 12 OFFCURVE",
"383 -1 OFFCURVE",
"402 -1 CURVE SMOOTH",
"420 -1 OFFCURVE",
"437 11 OFFCURVE",
"437 35 CURVE SMOOTH",
"437 125 OFFCURVE",
"442 218 OFFCURVE",
"442 275 CURVE SMOOTH",
"442 411 OFFCURVE",
"405 489 OFFCURVE",
"289 489 CURVE SMOOTH",
"234 489 OFFCURVE",
"175 471 OFFCURVE",
"135 415 CURVE SMOOTH",
"130 407 OFFCURVE",
"126 409 OFFCURVE",
"126 418 CURVE SMOOTH",
"125 438 LINE SMOOTH",
"124 469 OFFCURVE"
);
}
);
width = 490;
},
{
anchors = (
{
name = bottom;
position = "{243, 0}";
},
{
name = top;
position = "{243, 500}";
}
);
associatedMasterId = "24C63A81-7FC6-4EE9-AF2B-C1140AFD6C4B";
layerId = "0246385B-6695-42BB-9253-07AC5D7B5CFF";
name = "Jun 12 19, 00:47";
paths = (
{
closed = 1;
nodes = (
"339 526 OFFCURVE",
"174 476 OFFCURVE",
"128 421 CURVE",
"126 459 OFFCURVE",
"113 482 OFFCURVE",
"82 480 CURVE SMOOTH",
"57 478 OFFCURVE",
"46 460 OFFCURVE",
"48 438 CURVE SMOOTH",
"58 333 OFFCURVE",
"52 73 OFFCURVE",
"52 40 CURVE SMOOTH",
"52 18 OFFCURVE",
"70 0 OFFCURVE",
"92 0 CURVE SMOOTH",
"114 0 OFFCURVE",
"132 18 OFFCURVE",
"132 40 CURVE SMOOTH",
"132 49 OFFCURVE",
"133 221 OFFCURVE",
"131 343 CURVE",
"200 425 OFFCURVE",
"361 465 OFFCURVE",
"361 324 CURVE SMOOTH",
"361 46 LINE SMOOTH",
"361 14 OFFCURVE",
"376 1 OFFCURVE",
"397 1 CURVE SMOOTH",
"420 1 OFFCURVE",
"433 16 OFFCURVE",
"433 45 CURVE SMOOTH",
"433 256 OFFCURVE",
"456 400 OFFCURVE",
"404 456 CURVE SMOOTH"
);
}
);
width = 486;
}
);
unicode = 006E;
},
{
color = 5;
glyphname = o;
lastChange = "2019-06-11 22:59:20 +0000";
layers = (
{
anchors = (
{
name = bottom;
position = "{253, 0}";
},
{
name = center;
position = "{253, 240}";
},
{
name = ogonek;
position = "{352, 66}";
},
{
name = top;
position = "{263, 490}";
},
{
name = topright;
position = "{512, 545}";
}
);
layerId = "24C63A81-7FC6-4EE9-AF2B-C1140AFD6C4B";
paths = (
{
closed = 1;
nodes = (
"126 491 OFFCURVE",
"31 376 OFFCURVE",
"31 221 CURVE SMOOTH",
"31 91 OFFCURVE",
"113 -9 OFFCURVE",
"237 -9 CURVE SMOOTH",
"379 -9 OFFCURVE",
"479 108 OFFCURVE",
"479 250 CURVE SMOOTH",
"479 382 OFFCURVE",
"401 491 OFFCURVE",
"264 491 CURVE SMOOTH"
);
},
{
closed = 1;
nodes = (
"345 416 OFFCURVE",
"404 355 OFFCURVE",
"404 246 CURVE SMOOTH",
"404 147 OFFCURVE",
"339 65 OFFCURVE",
"242 65 CURVE SMOOTH",
"153 65 OFFCURVE",
"106 141 OFFCURVE",
"106 231 CURVE SMOOTH",
"106 344 OFFCURVE",
"167 416 OFFCURVE",
"258 416 CURVE SMOOTH"
);
}
);
width = 510;
}
);
leftKerningGroup = downRounded;
rightKerningGroup = downRounded;
unicode = 006F;
},
{
glyphname = p;
lastChange = "2019-06-11 22:31:44 +0000";
layers = (
{
layerId = "24C63A81-7FC6-4EE9-AF2B-C1140AFD6C4B";
paths = (
{
closed = 1;
nodes = (
"437 484 OFFCURVE",
"299 484 CURVE SMOOTH",
"233 484 OFFCURVE",
"170 453 OFFCURVE",
"139 381 CURVE",
"139 442 OFFCURVE",
"118 466 OFFCURVE",
"84 460 CURVE SMOOTH",
"42 453 OFFCURVE",
"55 414 OFFCURVE",
"57 389 CURVE SMOOTH",
"59 365 OFFCURVE",
"67 182 OFFCURVE",
"62 83 CURVE SMOOTH",
"58 6 OFFCURVE",
"48 -148 OFFCURVE",
"48 -172 CURVE SMOOTH",
"48 -194 OFFCURVE",
"63 -215 OFFCURVE",
"85 -216 CURVE",
"88 -216 LINE SMOOTH",
"109 -216 OFFCURVE",
"126 -197 OFFCURVE",
"127 -176 CURVE SMOOTH",
"128 -157 OFFCURVE",
"129 -28 OFFCURVE",
"134 75 CURVE",
"160 35 OFFCURVE",
"217 -4 OFFCURVE",
"290 -4 CURVE SMOOTH",
"413 -4 OFFCURVE",
"497 109 OFFCURVE",
"497 237 CURVE SMOOTH",
"497 359 OFFCURVE"
);
},
{
closed = 1;
nodes = (
"371 78 OFFCURVE",
"277 78 CURVE SMOOTH",
"187 78 OFFCURVE",
"145 151 OFFCURVE",
"145 237 CURVE SMOOTH",
"145 337 OFFCURVE",
"203 405 OFFCURVE",
"287 405 CURVE SMOOTH",
"383 405 OFFCURVE",
"417 315 OFFCURVE",
"417 243 CURVE SMOOTH",
"417 159 OFFCURVE"
);
}
);
width = 528;
}
);
leftMetricsKey = n;
rightKerningGroup = downRounded;
rightMetricsKey = o;
unicode = 0070;
},
{
glyphname = q;
lastChange = "2019-06-11 22:31:44 +0000";
layers = (
{
layerId = "24C63A81-7FC6-4EE9-AF2B-C1140AFD6C4B";
paths = (
{
closed = 1;
nodes = (
"126 487 OFFCURVE",
"31 375 OFFCURVE",
"31 225 CURVE SMOOTH",
"35 100 OFFCURVE",
"107 3 OFFCURVE",
"226 3 CURVE SMOOTH",
"361 3 OFFCURVE",
"460 118 OFFCURVE",
"460 256 CURVE SMOOTH",
"460 383 OFFCURVE",
"389 487 OFFCURVE",
"258 487 CURVE SMOOTH"
);
},
{
closed = 1;
nodes = (
"341 407 OFFCURVE",
"380 351 OFFCURVE",
"380 251 CURVE SMOOTH",
"380 158 OFFCURVE",
"313 83 OFFCURVE",
"226 83 CURVE SMOOTH",
"145 83 OFFCURVE",
"111 152 OFFCURVE",
"111 225 CURVE SMOOTH",
"111 341 OFFCURVE",
"181 407 OFFCURVE",
"258 407 CURVE SMOOTH"
);
},
{
closed = 1;
nodes = (
"276 86 OFFCURVE",
"342 8 OFFCURVE",
"386 -48 CURVE SMOOTH",
"405 -71 OFFCURVE",
"426 -86 OFFCURVE",
"447 -75 CURVE SMOOTH",
"468 -66 OFFCURVE",
"473 -38 OFFCURVE",
"455 -15 CURVE SMOOTH",
"409 41 OFFCURVE",
"344 118 OFFCURVE",
"311 184 CURVE SMOOTH",
"299 210 OFFCURVE",
"273 221 OFFCURVE",
"252 210 CURVE SMOOTH",
"232 198 OFFCURVE",
"231 177 OFFCURVE",
"243 151 CURVE SMOOTH"
);
}
);
width = 478;
},
{
associatedMasterId = "24C63A81-7FC6-4EE9-AF2B-C1140AFD6C4B";
layerId = "E9DB31AD-383C-48ED-938E-19FB1B30B90C";
name = "Jan 6 19, 00:14";
paths = (
{
closed = 1;
nodes = (
"164 490 OFFCURVE",
"38 388 OFFCURVE",
"38 217 CURVE SMOOTH",
"38 98 OFFCURVE",
"108 18 OFFCURVE",
"223 18 CURVE SMOOTH",
"269 18 OFFCURVE",
"317 31 OFFCURVE",
"357 53 CURVE",
"351 -55 OFFCURVE",
"343 -106 OFFCURVE",
"343 -157 CURVE",
"341 -179 OFFCURVE",
"358 -198 OFFCURVE",
"380 -200 CURVE",
"383 -200 LINE SMOOTH",
"404 -200 OFFCURVE",
"421 -184 OFFCURVE",
"423 -163 CURVE SMOOTH",
"438 0 OFFCURVE",
"454 246 OFFCURVE",
"444 412 CURVE SMOOTH",
"443 432 OFFCURVE",
"439 453 OFFCURVE",
"424 468 CURVE SMOOTH",
"402 490 OFFCURVE",
"360 494 OFFCURVE",
"329 494 CURVE SMOOTH"
);
},
{
closed = 1;
nodes = (
"346 414 OFFCURVE",
"356 413 OFFCURVE",
"364 411 CURVE",
"365 398 OFFCURVE",
"363 178 OFFCURVE",
"362 160 CURVE",
"331 114 OFFCURVE",
"244 89 OFFCURVE",
"191 102 CURVE SMOOTH",
"143 113 OFFCURVE",
"118 152 OFFCURVE",
"118 217 CURVE SMOOTH",
"118 340 OFFCURVE",
"210 414 OFFCURVE",
"332 414 CURVE SMOOTH"
);
}
);
width = 495;
}
);
leftKerningGroup = downRounded;
leftMetricsKey = o;
rightMetricsKey = v;
unicode = 0071;
},
{
glyphname = r;
lastChange = "2019-06-25 11:18:50 +0000";
layers = (
{
anchors = (
{
name = bottom;
position = "{-593, -341}";
},
{
name = top;
position = "{165, 480}";
}
);
background = {
paths = (
{
closed = 0;
nodes = (
"193 483 LINE"
);
},
{
closed = 0;
nodes = (
"197 483 LINE SMOOTH"
);
}
);
};
layerId = "24C63A81-7FC6-4EE9-AF2B-C1140AFD6C4B";
paths = (
{
closed = 1;
nodes = (
"112 0 OFFCURVE",
"132 15 OFFCURVE",
"132 43 CURVE SMOOTH",
"132 58 OFFCURVE",
"129 309 OFFCURVE",
"129 425 CURVE SMOOTH",
"129 467 OFFCURVE",
"106 480 OFFCURVE",
"88 480 CURVE SMOOTH",
"67 480 OFFCURVE",
"48 462 OFFCURVE",
"48 429 CURVE SMOOTH",
"48 381 OFFCURVE",
"51 64 OFFCURVE",
"51 42 CURVE SMOOTH",
"51 14 OFFCURVE",
"71 0 OFFCURVE",
"91 0 CURVE SMOOTH"
);
},
{
closed = 1;
nodes = (
"87 267 OFFCURVE",
"129 231 OFFCURVE",
"129 294 CURVE SMOOTH",
"129 350 OFFCURVE",
"223 405 OFFCURVE",
"295 415 CURVE SMOOTH",
"324 419 OFFCURVE",
"331 460 OFFCURVE",
"316 474 CURVE SMOOTH",
"300 489 OFFCURVE",
"264 481 OFFCURVE",
"242 475 CURVE SMOOTH",
"120 442 OFFCURVE",
"76 341 OFFCURVE",
"72 338 CURVE SMOOTH",
"60 328 OFFCURVE",
"58 296 OFFCURVE",
"72 282 CURVE SMOOTH"
);
}
);
width = 336;
},
{
associatedMasterId = "24C63A81-7FC6-4EE9-AF2B-C1140AFD6C4B";
layerId = "7D95E3D2-9C9E-4335-B741-F3F33F94B04E";
name = "Dec 24 18, 16:43";
paths = (
{
closed = 1;
nodes = (
"290 497 OFFCURVE",
"214 494 OFFCURVE",
"164 422 CURVE",
"142 496 OFFCURVE",
"52 484 OFFCURVE",
"52 425 CURVE SMOOTH",
"52 399 OFFCURVE",
"88 397 OFFCURVE",
"88 355 CURVE SMOOTH",
"88 270 OFFCURVE",
"83 55 OFFCURVE",
"83 42 CURVE",
"82 20 OFFCURVE",
"99 1 OFFCURVE",
"122 0 CURVE",
"123 0 LINE SMOOTH",
"144 0 OFFCURVE",
"162 18 OFFCURVE",
"163 39 CURVE",
"163 41 OFFCURVE",
"164 179 OFFCURVE",
"166 296 CURVE",
"175 355 OFFCURVE",
"251 441 OFFCURVE",
"302 381 CURVE SMOOTH",
"317 364 OFFCURVE",
"345 368 OFFCURVE",
"359 385 CURVE SMOOTH",
"373 402 OFFCURVE",
"371 427 OFFCURVE",
"355 441 CURVE SMOOTH"
);
}
);
width = 406;
},
{
anchors = (
{
name = bottom;
position = "{116, 0}";
},
{
name = top;
position = "{197, 480}";
}
);
associatedMasterId = "24C63A81-7FC6-4EE9-AF2B-C1140AFD6C4B";
layerId = "2F5C52FC-D04A-4F32-838D-9961890C2BFA";
name = "Jan 2 19, 00:37";
paths = (
{
closed = 1;
nodes = (
"330 471 OFFCURVE",
"249 471 CURVE SMOOTH",
"223 471 OFFCURVE",
"177 461 OFFCURVE",
"152 431 CURVE",
"139 459 OFFCURVE",
"121 476 OFFCURVE",
"94 476 CURVE SMOOTH",
"71 476 OFFCURVE",
"48 463 OFFCURVE",
"48 437 CURVE SMOOTH",
"48 404 OFFCURVE",
"84 397 OFFCURVE",
"84 355 CURVE SMOOTH",
"84 263 OFFCURVE",
"80 65 OFFCURVE",
"79 44 CURVE SMOOTH",
"78 18 OFFCURVE",
"94 0 OFFCURVE",
"116 0 CURVE SMOOTH",
"140 -1 OFFCURVE",
"157 18 OFFCURVE",
"159 43 CURVE SMOOTH",
"160 58 OFFCURVE",
"162 160 OFFCURVE",
"162 276 CURVE SMOOTH",
"162 321 OFFCURVE",
"181 394 OFFCURVE",
"238 394 CURVE SMOOTH",
"255 394 OFFCURVE",
"273 388 OFFCURVE",
"278 371 CURVE SMOOTH",
"282 356 OFFCURVE",
"287 329 OFFCURVE",
"322 329 CURVE SMOOTH",
"356 329 OFFCURVE",
"361 355 OFFCURVE",
"361 372 CURVE SMOOTH",
"361 410 OFFCURVE"
);
}
);
width = 393;
},
{
anchors = (
{
name = bottom;
position = "{-591, -341}";
},
{
name = top;
position = "{167, 480}";
}
);
associatedMasterId = "24C63A81-7FC6-4EE9-AF2B-C1140AFD6C4B";
layerId = "E0FE5156-19C4-433F-A915-BC3DA6048AB2";
name = "Jun 12 19, 12:30";
paths = (
{
closed = 1;
nodes = (
"67 0 OFFCURVE",
"87 0 CURVE SMOOTH",
"108 0 OFFCURVE",
"129 15 OFFCURVE",
"129 43 CURVE SMOOTH",
"129 58 OFFCURVE",
"132 174 OFFCURVE",
"132 290 CURVE SMOOTH",
"132 332 OFFCURVE",
"132 373 OFFCURVE",
"146 392 CURVE SMOOTH",
"159 410 OFFCURVE",
"186 411 OFFCURVE",
"222 411 CURVE SMOOTH",
"258 411 OFFCURVE",
"276 428 OFFCURVE",
"276 450 CURVE SMOOTH",
"276 469 OFFCURVE",
"263 486 OFFCURVE",
"233 486 CURVE SMOOTH",
"167 486 OFFCURVE",
"115 478 OFFCURVE",
"86 448 CURVE SMOOTH",
"59 421 OFFCURVE",
"52 374 OFFCURVE",
"52 319 CURVE SMOOTH",
"52 271 OFFCURVE",
"48 64 OFFCURVE",
"48 42 CURVE SMOOTH",
"48 14 OFFCURVE"
);
}
);
width = 288;
},
{
anchors = (
{
name = bottom;
position = "{-593, -341}";
},
{
name = top;
position = "{165, 480}";
}
);
associatedMasterId = "24C63A81-7FC6-4EE9-AF2B-C1140AFD6C4B";
layerId = "50CF797E-58A4-41D9-B6CC-6176639CE436";
name = "Jun 25 19, 13:14";
paths = (
{
closed = 1;
nodes = (
"71 0 OFFCURVE",
"91 0 CURVE SMOOTH",
"112 0 OFFCURVE",
"132 15 OFFCURVE",
"132 43 CURVE SMOOTH",
"132 58 OFFCURVE",
"129 174 OFFCURVE",
"129 290 CURVE SMOOTH",
"129 377 OFFCURVE",
"153 409 OFFCURVE",
"195 409 CURVE SMOOTH",
"232 409 OFFCURVE",
"258 385 OFFCURVE",
"282 385 CURVE SMOOTH",
"302 385 OFFCURVE",
"319 401 OFFCURVE",
"319 420 CURVE SMOOTH",
"319 457 OFFCURVE",
"252 483 OFFCURVE",
"193 483 CURVE SMOOTH",
"104 483 OFFCURVE",
"48 425 OFFCURVE",
"48 319 CURVE SMOOTH",
"48 271 OFFCURVE",
"51 64 OFFCURVE",
"51 42 CURVE SMOOTH",
"51 14 OFFCURVE"
);
}
);
width = 331;
},
{
anchors = (
{
name = bottom;
position = "{-593, -341}";
},
{
name = top;
position = "{165, 480}";
}
);
associatedMasterId = "24C63A81-7FC6-4EE9-AF2B-C1140AFD6C4B";
background = {
paths = (
{
closed = 0;
nodes = (
"193 483 LINE"
);
},
{
closed = 0;
nodes = (
"197 483 LINE SMOOTH"
);
}
);
};
layerId = "6853B007-181F-40DB-B31A-C18EC11957C1";
name = "Jun 25 19, 13:18";
paths = (
{
closed = 1;
nodes = (
"112 0 OFFCURVE",
"132 15 OFFCURVE",
"132 43 CURVE SMOOTH",
"132 58 OFFCURVE",
"129 309 OFFCURVE",
"129 425 CURVE SMOOTH",
"129 467 OFFCURVE",
"106 480 OFFCURVE",
"88 480 CURVE SMOOTH",
"67 480 OFFCURVE",
"48 462 OFFCURVE",
"48 429 CURVE SMOOTH",
"48 381 OFFCURVE",
"51 64 OFFCURVE",
"51 42 CURVE SMOOTH",
"51 14 OFFCURVE",
"71 0 OFFCURVE",
"91 0 CURVE SMOOTH"
);
},
{
closed = 1;
nodes = (
"87 267 OFFCURVE",
"129 231 OFFCURVE",
"129 294 CURVE SMOOTH",
"129 350 OFFCURVE",
"223 405 OFFCURVE",
"295 415 CURVE SMOOTH",
"324 419 OFFCURVE",
"331 460 OFFCURVE",
"316 474 CURVE SMOOTH",
"300 489 OFFCURVE",
"264 481 OFFCURVE",
"242 475 CURVE SMOOTH",
"120 442 OFFCURVE",
"76 341 OFFCURVE",
"72 338 CURVE SMOOTH",
"60 328 OFFCURVE",
"58 296 OFFCURVE",
"72 282 CURVE SMOOTH"
);
}
);
width = 336;
}
);
leftMetricsKey = n;
rightMetricsKey = v;
unicode = 0072;
},
{
glyphname = s;
lastChange = "2019-06-11 22:31:44 +0000";
layers = (
{
anchors = (
{
name = bottom;
position = "{196, 0}";
},
{
name = top;
position = "{206, 480}";
}
);
layerId = "24C63A81-7FC6-4EE9-AF2B-C1140AFD6C4B";
paths = (
{
closed = 1;
nodes = (
"108 486 OFFCURVE",
"44 437 OFFCURVE",
"44 354 CURVE SMOOTH",
"44 263 OFFCURVE",
"120 235 OFFCURVE",
"200 211 CURVE SMOOTH",
"262 193 OFFCURVE",
"303 178 OFFCURVE",
"303 136 CURVE SMOOTH",
"303 96 OFFCURVE",
"265 67 OFFCURVE",
"209 67 CURVE SMOOTH",
"160 67 OFFCURVE",
"124 100 OFFCURVE",
"114 117 CURVE SMOOTH",
"98 141 OFFCURVE",
"77 159 OFFCURVE",
"52 147 CURVE SMOOTH",
"18 132 OFFCURVE",
"33 95 OFFCURVE",
"41 80 CURVE SMOOTH",
"50 65 OFFCURVE",
"98 -7 OFFCURVE",
"206 -7 CURVE SMOOTH",
"307 -7 OFFCURVE",
"378 40 OFFCURVE",
"378 135 CURVE SMOOTH",
"378 215 OFFCURVE",
"326 253 OFFCURVE",
"229 281 CURVE SMOOTH",
"163 301 OFFCURVE",
"118 321 OFFCURVE",
"118 358 CURVE SMOOTH",
"118 391 OFFCURVE",
"152 415 OFFCURVE",
"194 415 CURVE SMOOTH",
"236 415 OFFCURVE",
"269 391 OFFCURVE",
"288 376 CURVE SMOOTH",
"303 364 OFFCURVE",
"329 357 OFFCURVE",
"346 374 CURVE SMOOTH",
"359 387 OFFCURVE",
"361 408 OFFCURVE",
"337 433 CURVE SMOOTH",
"324 447 OFFCURVE",
"287 486 OFFCURVE",
"202 486 CURVE SMOOTH"
);
}
);
width = 409;
},
{
associatedMasterId = "24C63A81-7FC6-4EE9-AF2B-C1140AFD6C4B";
layerId = "552E1A6F-82A3-49FB-BB64-1FD6FC2F23D2";
name = "Dec 24 18, 16:52";
paths = (
{
closed = 1;
nodes = (
"191 487 OFFCURVE",
"75 428 OFFCURVE",
"60 361 CURVE SMOOTH",
"37 259 OFFCURVE",
"172 227 OFFCURVE",
"272 199 CURVE SMOOTH",
"330 184 OFFCURVE",
"343 164 OFFCURVE",
"333 127 CURVE SMOOTH",
"328 108 OFFCURVE",
"303 67 OFFCURVE",
"241 67 CURVE SMOOTH",
"214 67 OFFCURVE",
"133 75 OFFCURVE",
"133 116 CURVE SMOOTH",
"133 141 OFFCURVE",
"136 161 OFFCURVE",
"116 170 CURVE",
"96 180 OFFCURVE",
"72 173 OFFCURVE",
"64 151 CURVE SMOOTH",
"35 70 OFFCURVE",
"94 -7 OFFCURVE",
"241 -7 CURVE SMOOTH",
"316 -7 OFFCURVE",
"394 29 OFFCURVE",
"411 112 CURVE SMOOTH",
"418 145 OFFCURVE",
"422 200 OFFCURVE",
"387 233 CURVE SMOOTH",
"365 254 OFFCURVE",
"333 263 OFFCURVE",
"294 274 CURVE SMOOTH",
"253 286 OFFCURVE",
"153 316 OFFCURVE",
"140 336 CURVE",
"139 339 OFFCURVE",
"138 340 OFFCURVE",
"139 343 CURVE",
"145 374 OFFCURVE",
"227 406 OFFCURVE",
"265 406 CURVE",
"288 405 OFFCURVE",
"299 392 OFFCURVE",
"303 368 CURVE SMOOTH",
"307 346 OFFCURVE",
"327 331 OFFCURVE",
"349 334 CURVE",
"371 338 OFFCURVE",
"386 358 OFFCURVE",
"382 380 CURVE SMOOTH",
"372 442 OFFCURVE",
"330 483 OFFCURVE",
"268 485 CURVE SMOOTH"
);
}
);
width = 474;
},
{
associatedMasterId = "24C63A81-7FC6-4EE9-AF2B-C1140AFD6C4B";
layerId = "D841F08F-42A5-46C6-9CF9-2E21D69E784F";
name = "Dec 26 18, 21:27";
paths = (
{
closed = 1;
nodes = (
"148 486 OFFCURVE",
"80 437 OFFCURVE",
"80 351 CURVE SMOOTH",
"80 263 OFFCURVE",
"161 235 OFFCURVE",
"246 211 CURVE SMOOTH",
"312 193 OFFCURVE",
"355 178 OFFCURVE",
"355 136 CURVE SMOOTH",
"355 96 OFFCURVE",
"315 67 OFFCURVE",
"250 67 CURVE SMOOTH",
"203 67 OFFCURVE",
"154 90 OFFCURVE",
"135 109 CURVE SMOOTH",
"114 130 OFFCURVE",
"89 144 OFFCURVE",
"65 128 CURVE SMOOTH",
"33 106 OFFCURVE",
"54 73 OFFCURVE",
"66 60 CURVE SMOOTH",
"78 47 OFFCURVE",
"137 -7 OFFCURVE",
"260 -7 CURVE SMOOTH",
"359 -7 OFFCURVE",
"435 40 OFFCURVE",
"435 135 CURVE SMOOTH",
"435 215 OFFCURVE",
"380 253 OFFCURVE",
"277 281 CURVE SMOOTH",
"206 301 OFFCURVE",
"159 321 OFFCURVE",
"159 358 CURVE SMOOTH",
"159 391 OFFCURVE",
"195 415 OFFCURVE",
"237 415 CURVE SMOOTH",
"278 415 OFFCURVE",
"321 393 OFFCURVE",
"341 378 CURVE SMOOTH",
"357 366 OFFCURVE",
"384 362 OFFCURVE",
"401 379 CURVE SMOOTH",
"415 392 OFFCURVE",
"421 413 OFFCURVE",
"396 438 CURVE SMOOTH",
"382 452 OFFCURVE",
"338 486 OFFCURVE",
"234 486 CURVE SMOOTH"
);
}
);
width = 483;
}
);
leftKerningGroup = downRounded;
leftMetricsKey = o;
rightKerningGroup = downRounded;
rightMetricsKey = o;
unicode = 0073;
},
{
glyphname = t;
lastChange = "2019-06-12 10:35:51 +0000";
layers = (
{
anchors = (
{
name = bottom;
position = "{235, 0}";
},
{
name = center;
position = "{143, 270}";
},
{
name = top;
position = "{149, 700}";
},
{
name = topright;
position = "{345, 480}";
}
);
layerId = "24C63A81-7FC6-4EE9-AF2B-C1140AFD6C4B";
paths = (
{
closed = 1;
nodes = (
"325 4 OFFCURVE",
"325 43 CURVE SMOOTH",
"325 62 OFFCURVE",
"312 79 OFFCURVE",
"288 79 CURVE SMOOTH",
"273 79 OFFCURVE",
"258 73 OFFCURVE",
"244 73 CURVE SMOOTH",
"188 73 OFFCURVE",
"183 132 OFFCURVE",
"183 209 CURVE SMOOTH",
"183 262 OFFCURVE",
"184 346 OFFCURVE",
"185 405 CURVE",
"200 405 OFFCURVE",
"209 404 OFFCURVE",
"262 407 CURVE SMOOTH",
"283 408 OFFCURVE",
"299 426 OFFCURVE",
"299 446 CURVE SMOOTH",
"299 465 OFFCURVE",
"280 482 OFFCURVE",
"259 482 CURVE SMOOTH",
"226 482 OFFCURVE",
"202 481 OFFCURVE",
"187 479 CURVE",
"189 566 OFFCURVE",
"191 592 OFFCURVE",
"191 609 CURVE",
"192 632 OFFCURVE",
"174 650 OFFCURVE",
"150 650 CURVE SMOOTH",
"129 650 OFFCURVE",
"112 632 OFFCURVE",
"111 611 CURVE",
"111 587 OFFCURVE",
"109 559 OFFCURVE",
"106 474 CURVE",
"48 473 LINE SMOOTH",
"27 473 OFFCURVE",
"12 456 OFFCURVE",
"12 436 CURVE SMOOTH",
"12 413 OFFCURVE",
"30 396 OFFCURVE",
"52 396 CURVE SMOOTH",
"53 396 OFFCURVE",
"54 396 OFFCURVE",
"55 396 CURVE",
"105 397 LINE",
"104 345 OFFCURVE",
"103 269 OFFCURVE",
"103 222 CURVE SMOOTH",
"103 98 OFFCURVE",
"114 -6 OFFCURVE",
"232 -6 CURVE SMOOTH",
"272 -6 OFFCURVE"
);
}
);
width = 337;
},
{
anchors = (
{
name = bottom;
position = "{235, 0}";
},
{
name = center;
position = "{143, 270}";
},
{
name = top;
position = "{149, 700}";
},
{
name = topright;
position = "{345, 480}";
}
);
associatedMasterId = "24C63A81-7FC6-4EE9-AF2B-C1140AFD6C4B";
layerId = "70656095-FDD8-4406-871D-9BDBA53B0A94";
name = "Jun 12 19, 12:34";
paths = (
{
closed = 1;
nodes = (
"266 1 OFFCURVE",
"283 22 OFFCURVE",
"283 43 CURVE SMOOTH",
"283 63 OFFCURVE",
"267 83 OFFCURVE",
"233 83 CURVE SMOOTH",
"189 83 OFFCURVE",
"183 158 OFFCURVE",
"183 237 CURVE SMOOTH",
"183 290 OFFCURVE",
"184 346 OFFCURVE",
"185 405 CURVE",
"200 409 OFFCURVE",
"209 404 OFFCURVE",
"262 407 CURVE SMOOTH",
"283 408 OFFCURVE",
"299 426 OFFCURVE",
"299 446 CURVE SMOOTH",
"299 465 OFFCURVE",
"280 482 OFFCURVE",
"259 482 CURVE SMOOTH",
"226 482 OFFCURVE",
"202 481 OFFCURVE",
"187 479 CURVE",
"189 566 OFFCURVE",
"191 592 OFFCURVE",
"191 609 CURVE",
"192 632 OFFCURVE",
"174 650 OFFCURVE",
"150 650 CURVE SMOOTH",
"129 650 OFFCURVE",
"112 632 OFFCURVE",
"111 611 CURVE",
"111 587 OFFCURVE",
"109 559 OFFCURVE",
"106 474 CURVE",
"48 469 LINE SMOOTH",
"27 467 OFFCURVE",
"12 452 OFFCURVE",
"12 432 CURVE SMOOTH",
"12 409 OFFCURVE",
"30 392 OFFCURVE",
"52 392 CURVE SMOOTH",
"53 392 OFFCURVE",
"54 392 OFFCURVE",
"55 392 CURVE",
"105 397 LINE",
"104 345 OFFCURVE",
"103 297 OFFCURVE",
"103 250 CURVE SMOOTH",
"103 113 OFFCURVE",
"117 1 OFFCURVE",
"233 1 CURVE SMOOTH"
);
}
);
width = 311;
}
);
leftMetricsKey = v;
rightMetricsKey = v;
unicode = 0074;
},
{
glyphname = u;
lastChange = "2019-06-11 22:52:41 +0000";
layers = (
{
anchors = (
{
name = bottom;
position = "{257, 0}";
},
{
name = ogonek;
position = "{431, 47}";
},
{
name = top;
position = "{258, 480}";
},
{
name = topright;
position = "{553, 571}";
}
);
layerId = "24C63A81-7FC6-4EE9-AF2B-C1140AFD6C4B";
paths = (
{
closed = 1;
nodes = (
"75 483 OFFCURVE",
"54 470 OFFCURVE",
"53 439 CURVE SMOOTH",
"49 302 LINE SMOOTH",
"43 125 OFFCURVE",
"68 0 OFFCURVE",
"231 0 CURVE SMOOTH",
"293 0 OFFCURVE",
"342 18 OFFCURVE",
"369 66 CURVE SMOOTH",
"375 76 OFFCURVE",
"381 75 OFFCURVE",
"381 66 CURVE SMOOTH",
"383 26 LINE",
"388 -25 OFFCURVE",
"471 -16 OFFCURVE",
"459 43 CURVE SMOOTH",
"457 53 OFFCURVE",
"442 100 OFFCURVE",
"453 228 CURVE SMOOTH",
"461 306 OFFCURVE",
"459 379 OFFCURVE",
"465 432 CURVE SMOOTH",
"468 460 OFFCURVE",
"450 479 OFFCURVE",
"425 479 CURVE SMOOTH",
"402 479 OFFCURVE",
"386 463 OFFCURVE",
"385 434 CURVE SMOOTH",
"384 403 OFFCURVE",
"383 315 OFFCURVE",
"378 242 CURVE SMOOTH",
"372 155 OFFCURVE",
"324 78 OFFCURVE",
"234 78 CURVE SMOOTH",
"136 78 OFFCURVE",
"122 169 OFFCURVE",
"129 298 CURVE SMOOTH",
"136 434 LINE SMOOTH",
"138 466 OFFCURVE",
"121 483 OFFCURVE",
"96 483 CURVE SMOOTH"
);
}
);
width = 513;
}
);
leftMetricsKey = n;
rightMetricsKey = n;
unicode = 0075;
},
{
color = 5;
glyphname = v;
lastChange = "2019-06-11 22:10:19 +0000";
layers = (
{
layerId = "24C63A81-7FC6-4EE9-AF2B-C1140AFD6C4B";
paths = (
{
closed = 1;
nodes = (
"374 487 OFFCURVE",
"352 475 OFFCURVE",
"345 454 CURVE SMOOTH",
"325 399 OFFCURVE",
"306 343 OFFCURVE",
"296 315 CURVE SMOOTH",
"277 263 OFFCURVE",
"231 153 OFFCURVE",
"206 98 CURVE SMOOTH",
"202 90 OFFCURVE",
"196 91 OFFCURVE",
"193 99 CURVE SMOOTH",
"180 141 OFFCURVE",
"160 192 OFFCURVE",
"139 271 CURVE SMOOTH",
"90 452 LINE SMOOTH",
"84 473 OFFCURVE",
"63 486 OFFCURVE",
"42 481 CURVE SMOOTH",
"20 476 OFFCURVE",
"8 454 OFFCURVE",
"13 433 CURVE SMOOTH",
"14 429 OFFCURVE",
"38 323 OFFCURVE",
"69 223 CURVE SMOOTH",
"90 158 OFFCURVE",
"121 63 OFFCURVE",
"149 26 CURVE SMOOTH",
"167 2 OFFCURVE",
"186 -5 OFFCURVE",
"201 -5 CURVE SMOOTH",
"213 -5 OFFCURVE",
"225 -1 OFFCURVE",
"236 11 CURVE SMOOTH",
"261 38 OFFCURVE",
"327 164 OFFCURVE",
"360 257 CURVE SMOOTH",
"422 431 LINE SMOOTH",
"429 452 OFFCURVE",
"416 474 OFFCURVE",
"395 481 CURVE"
);
}
);
width = 436;
}
);
unicode = 0076;
},
{
glyphname = w;
lastChange = "2019-06-11 22:05:58 +0000";
layers = (
{
anchors = (
{
name = bottom;
position = "{320, 0}";
},
{
name = top;
position = "{320, 480}";
}
);
layerId = "24C63A81-7FC6-4EE9-AF2B-C1140AFD6C4B";
paths = (
{
closed = 1;
nodes = (
"565 485 OFFCURVE",
"548 473 OFFCURVE",
"542 452 CURVE SMOOTH",
"438 82 LINE SMOOTH",
"437 78 OFFCURVE",
"434 75 OFFCURVE",
"432 75 CURVE SMOOTH",
"430 75 OFFCURVE",
"428 78 OFFCURVE",
"427 82 CURVE SMOOTH",
"403 167 OFFCURVE",
"373 344 OFFCURVE",
"357 398 CURVE SMOOTH",
"352 415 OFFCURVE",
"335 428 OFFCURVE",
"314 428 CURVE SMOOTH",
"295 428 OFFCURVE",
"277 419 OFFCURVE",
"270 402 CURVE SMOOTH",
"243 337 OFFCURVE",
"208 161 OFFCURVE",
"190 82 CURVE SMOOTH",
"189 77 OFFCURVE",
"188 74 OFFCURVE",
"186 74 CURVE SMOOTH",
"185 74 OFFCURVE",
"183 77 OFFCURVE",
"182 81 CURVE SMOOTH",
"159 162 OFFCURVE",
"125 349 OFFCURVE",
"98 454 CURVE SMOOTH",
"93 473 OFFCURVE",
"77 486 OFFCURVE",
"57 486 CURVE SMOOTH",
"31 486 OFFCURVE",
"12 467 OFFCURVE",
"12 446 CURVE SMOOTH",
"12 443 OFFCURVE",
"12 440 OFFCURVE",
"13 437 CURVE",
"71 227 LINE SMOOTH",
"105 101 OFFCURVE",
"121 -8 OFFCURVE",
"186 -8 CURVE SMOOTH",
"252 -8 OFFCURVE",
"267 106 OFFCURVE",
"290 206 CURVE SMOOTH",
"294 222 OFFCURVE",
"303 276 OFFCURVE",
"305 310 CURVE SMOOTH",
"306 319 OFFCURVE",
"313 318 OFFCURVE",
"314 309 CURVE SMOOTH",
"318 274 OFFCURVE",
"326 220 OFFCURVE",
"328 206 CURVE SMOOTH",
"359 34 OFFCURVE",
"386 -8 OFFCURVE",
"428 -8 CURVE SMOOTH",
"487 -8 OFFCURVE",
"500 78 OFFCURVE",
"536 182 CURVE SMOOTH",
"571 282 OFFCURVE",
"618 401 OFFCURVE",
"626 436 CURVE",
"627 439 OFFCURVE",
"627 442 OFFCURVE",
"627 445 CURVE SMOOTH",
"627 466 OFFCURVE",
"608 485 OFFCURVE",
"584 485 CURVE SMOOTH"
);
}
);
width = 639;
},
{
anchors = (
{
name = bottom;
position = "{320, 0}";
},
{
name = top;
position = "{320, 480}";
}
);
associatedMasterId = "24C63A81-7FC6-4EE9-AF2B-C1140AFD6C4B";
layerId = "C6341176-38DA-4A8E-93E3-F2A8518AE726";
name = "Jun 12 19, 00:03";
paths = (
{
closed = 1;
nodes = (
"574 491 OFFCURVE",
"550 478 OFFCURVE",
"542 452 CURVE SMOOTH",
"430 93 LINE",
"424 154 OFFCURVE",
"375 338 OFFCURVE",
"357 398 CURVE SMOOTH",
"352 415 OFFCURVE",
"335 428 OFFCURVE",
"314 428 CURVE SMOOTH",
"295 428 OFFCURVE",
"277 419 OFFCURVE",
"270 402 CURVE SMOOTH",
"240 329 OFFCURVE",
"192 141 OFFCURVE",
"187 100 CURVE",
"98 454 LINE SMOOTH",
"92 476 OFFCURVE",
"73 489 OFFCURVE",
"49 485 CURVE SMOOTH",
"24 481 OFFCURVE",
"7 459 OFFCURVE",
"13 437 CURVE SMOOTH",
"71 227 LINE",
"105 101 OFFCURVE",
"136 -8 OFFCURVE",
"186 -8 CURVE SMOOTH",
"237 -8 OFFCURVE",
"267 106 OFFCURVE",
"290 206 CURVE SMOOTH",
"295 228 OFFCURVE",
"305 285 OFFCURVE",
"311 306 CURVE",
"313 280 OFFCURVE",
"325 225 OFFCURVE",
"328 206 CURVE SMOOTH",
"359 34 OFFCURVE",
"394 -8 OFFCURVE",
"424 -8 CURVE SMOOTH",
"468 -8 OFFCURVE",
"500 78 OFFCURVE",
"536 182 CURVE SMOOTH",
"571 282 OFFCURVE",
"618 401 OFFCURVE",
"626 436 CURVE SMOOTH",
"631 457 OFFCURVE",
"618 476 OFFCURVE",
"598 483 CURVE SMOOTH"
);
}
);
width = 639;
}
);
leftMetricsKey = v;
rightMetricsKey = v;
unicode = 0077;
},
{
glyphname = x;
lastChange = "2019-06-11 22:18:20 +0000";
layers = (
{
layerId = "24C63A81-7FC6-4EE9-AF2B-C1140AFD6C4B";
paths = (
{
closed = 1;
nodes = (
"333 137 OFFCURVE",
"293 176 OFFCURVE",
"247 236 CURVE SMOOTH",
"244 241 OFFCURVE",
"244 245 OFFCURVE",
"247 250 CURVE SMOOTH",
"286 302 OFFCURVE",
"324 353 OFFCURVE",
"367 412 CURVE SMOOTH",
"374 422 OFFCURVE",
"378 435 OFFCURVE",
"378 445 CURVE SMOOTH",
"378 468 OFFCURVE",
"359 485 OFFCURVE",
"337 485 CURVE SMOOTH",
"327 485 OFFCURVE",
"314 480 OFFCURVE",
"306 467 CURVE",
"276 422 OFFCURVE",
"242 366 OFFCURVE",
"207 304 CURVE SMOOTH",
"203 297 OFFCURVE",
"197 297 OFFCURVE",
"193 304 CURVE SMOOTH",
"166 355 OFFCURVE",
"134 403 OFFCURVE",
"96 465 CURVE SMOOTH",
"86 481 OFFCURVE",
"74 487 OFFCURVE",
"63 487 CURVE SMOOTH",
"43 487 OFFCURVE",
"22 472 OFFCURVE",
"22 449 CURVE SMOOTH",
"22 438 OFFCURVE",
"28 423 OFFCURVE",
"35 413 CURVE SMOOTH",
"155 254 LINE SMOOTH",
"158 250 OFFCURVE",
"158 245 OFFCURVE",
"155 240 CURVE SMOOTH",
"114 188 OFFCURVE",
"73 135 OFFCURVE",
"25 76 CURVE SMOOTH",
"16 65 OFFCURVE",
"12 53 OFFCURVE",
"12 41 CURVE SMOOTH",
"12 17 OFFCURVE",
"27 -4 OFFCURVE",
"49 -4 CURVE SMOOTH",
"61 -4 OFFCURVE",
"79 2 OFFCURVE",
"102 31 CURVE SMOOTH",
"136 75 OFFCURVE",
"164 128 OFFCURVE",
"196 182 CURVE SMOOTH",
"200 189 OFFCURVE",
"206 189 OFFCURVE",
"210 183 CURVE SMOOTH",
"248 123 OFFCURVE",
"286 71 OFFCURVE",
"324 11 CURVE SMOOTH",
"329 3 OFFCURVE",
"339 1 OFFCURVE",
"348 1 CURVE SMOOTH",
"367 1 OFFCURVE",
"388 14 OFFCURVE",
"388 39 CURVE SMOOTH",
"388 49 OFFCURVE",
"386 60 OFFCURVE",
"377 73 CURVE SMOOTH"
);
}
);
width = 400;
}
);
leftMetricsKey = v;
rightMetricsKey = v;
unicode = 0078;
},
{
glyphname = y;
lastChange = "2019-06-11 22:18:36 +0000";
layers = (
{
anchors = (
{
name = bottom;
position = "{231, -200}";
},
{
name = top;
position = "{231, 480}";
}
);
layerId = "24C63A81-7FC6-4EE9-AF2B-C1140AFD6C4B";
paths = (
{
closed = 1;
nodes = (
"50 -141 CURVE SMOOTH",
"50 -163 OFFCURVE",
"62 -182 OFFCURVE",
"109 -191 CURVE SMOOTH",
"124 -194 OFFCURVE",
"165 -201 OFFCURVE",
"205 -201 CURVE SMOOTH",
"415 -201 OFFCURVE",
"409 -43 OFFCURVE",
"411 174 CURVE SMOOTH",
"414 447 LINE SMOOTH",
"414 469 OFFCURVE",
"397 488 OFFCURVE",
"375 488 CURVE",
"353 489 OFFCURVE",
"334 472 OFFCURVE",
"334 450 CURVE SMOOTH",
"331 176 LINE SMOOTH",
"331 137 OFFCURVE",
"299 74 OFFCURVE",
"225 74 CURVE SMOOTH",
"84 74 OFFCURVE",
"129 313 OFFCURVE",
"129 450 CURVE",
"128 472 OFFCURVE",
"109 489 OFFCURVE",
"87 487 CURVE",
"65 486 OFFCURVE",
"48 467 OFFCURVE",
"49 445 CURVE",
"49 200 OFFCURVE",
"25 -6 OFFCURVE",
"205 -6 CURVE SMOOTH",
"255 -6 OFFCURVE",
"291 4 OFFCURVE",
"321 46 CURVE SMOOTH",
"326 54 OFFCURVE",
"334 52 OFFCURVE",
"334 42 CURVE SMOOTH",
"330 -54 OFFCURVE",
"315 -125 OFFCURVE",
"199 -125 CURVE SMOOTH",
"178 -125 OFFCURVE",
"147 -122 OFFCURVE",
"109 -114 CURVE SMOOTH",
"77 -107 OFFCURVE",
"50 -116 OFFCURVE"
);
}
);
width = 462;
}
);
leftMetricsKey = n;
rightMetricsKey = n;
unicode = 0079;
},
{
glyphname = z;
lastChange = "2019-06-11 22:19:42 +0000";
layers = (
{
anchors = (
{
name = bottom;
position = "{257, 0}";
},
{
name = center;
position = "{257, 240}";
},
{
name = top;
position = "{257, 480}";
}
);
layerId = "24C63A81-7FC6-4EE9-AF2B-C1140AFD6C4B";
paths = (
{
closed = 1;
nodes = (
"86 490 OFFCURVE",
"60 476 OFFCURVE",
"60 450 CURVE SMOOTH",
"60 429 OFFCURVE",
"77 423 OFFCURVE",
"110 419 CURVE SMOOTH",
"162 413 OFFCURVE",
"313 410 OFFCURVE",
"361 414 CURVE SMOOTH",
"370 415 OFFCURVE",
"374 410 OFFCURVE",
"367 403 CURVE SMOOTH",
"295 331 OFFCURVE",
"152 152 OFFCURVE",
"59 59 CURVE SMOOTH",
"47 47 OFFCURVE",
"44 28 OFFCURVE",
"52 13 CURVE SMOOTH",
"60 -2 OFFCURVE",
"71 -8 OFFCURVE",
"95 -8 CURVE",
"95 -8 OFFCURVE",
"155 4 OFFCURVE",
"226 8 CURVE SMOOTH",
"405 18 OFFCURVE",
"437 -38 OFFCURVE",
"462 13 CURVE SMOOTH",
"472 33 OFFCURVE",
"463 57 OFFCURVE",
"444 67 CURVE SMOOTH",
"402 89 OFFCURVE",
"256 84 OFFCURVE",
"177 68 CURVE SMOOTH",
"167 66 OFFCURVE",
"165 70 OFFCURVE",
"172 77 CURVE SMOOTH",
"248 153 OFFCURVE",
"404 340 OFFCURVE",
"445 399 CURVE SMOOTH",
"454 412 OFFCURVE",
"469 442 OFFCURVE",
"453 468 CURVE",
"448 475 OFFCURVE",
"432 489 OFFCURVE",
"392 485 CURVE SMOOTH",
"319 478 OFFCURVE",
"195 480 OFFCURVE",
"107 488 CURVE SMOOTH"
);
}
);
width = 514;
}
);
leftMetricsKey = n;
rightMetricsKey = n;
unicode = 007A;
},
{
glyphname = d_o_g_e;
lastChange = "2019-05-11 15:30:56 +0000";
layers = (
{
layerId = "24C63A81-7FC6-4EE9-AF2B-C1140AFD6C4B";
paths = (
{
closed = 1;
nodes = (
"181 691 OFFCURVE",
"158 656 OFFCURVE",
"158 639 CURVE SMOOTH",
"158 635 OFFCURVE",
"160 631 OFFCURVE",
"163 631 CURVE SMOOTH",
"182 631 OFFCURVE",
"181 661 OFFCURVE",
"207 661 CURVE",
"190 646 OFFCURVE",
"180 624 OFFCURVE",
"180 600 CURVE SMOOTH",
"180 591 LINE",
"183 567 OFFCURVE",
"196 544 OFFCURVE",
"215 525 CURVE",
"256 538 OFFCURVE",
"305 596 OFFCURVE",
"305 622 CURVE SMOOTH",
"305 628 OFFCURVE",
"304 633 OFFCURVE",
"299 636 CURVE SMOOTH",
"289 642 OFFCURVE",
"288 655 OFFCURVE",
"276 670 CURVE",
"263 685 OFFCURVE",
"232 691 OFFCURVE",
"221 691 CURVE SMOOTH"
);
},
{
closed = 1;
nodes = (
"221 646 OFFCURVE",
"228 640 OFFCURVE",
"227 638 CURVE SMOOTH",
"223 629 OFFCURVE",
"210 626 OFFCURVE",
"206 626 CURVE",
"206 633 OFFCURVE",
"209 646 OFFCURVE",
"216 646 CURVE SMOOTH"
);
},
{
closed = 1;
nodes = (
"270 640 OFFCURVE",
"275 632 OFFCURVE",
"275 627 CURVE SMOOTH",
"275 620 OFFCURVE",
"267 612 OFFCURVE",
"260 612 CURVE SMOOTH",
"256 612 OFFCURVE",
"255 616 OFFCURVE",
"255 620 CURVE SMOOTH",
"255 628 OFFCURVE",
"259 640 OFFCURVE",
"265 640 CURVE SMOOTH"
);
},
{
closed = 1;
nodes = (
"864 527 OFFCURVE",
"782 593 OFFCURVE",
"735 593 CURVE SMOOTH",
"661 593 OFFCURVE",
"609 500 OFFCURVE",
"609 469 CURVE SMOOTH",
"609 444 OFFCURVE",
"667 411 OFFCURVE",
"731 411 CURVE SMOOTH",
"777 411 OFFCURVE",
"864 465 OFFCURVE",
"864 497 CURVE SMOOTH"
);
},
{
closed = 1;
nodes = (
"724 558 OFFCURVE",
"722 556 OFFCURVE",
"719 554 CURVE",
"735 553 OFFCURVE",
"742 543 OFFCURVE",
"742 536 CURVE SMOOTH",
"742 531 OFFCURVE",
"739 528 OFFCURVE",
"734 528 CURVE SMOOTH",
"729 528 OFFCURVE",
"720 532 OFFCURVE",
"709 543 CURVE",
"698 529 OFFCURVE",
"692 512 OFFCURVE",
"692 493 CURVE SMOOTH",
"692 470 OFFCURVE",
"702 449 OFFCURVE",
"717 434 CURVE",
"664 434 OFFCURVE",
"642 455 OFFCURVE",
"642 482 CURVE SMOOTH",
"642 520 OFFCURVE",
"680 565 OFFCURVE",
"726 560 CURVE"
);
},
{
closed = 1;
nodes = (
"81 378 OFFCURVE",
"38 338 OFFCURVE",
"38 302 CURVE SMOOTH",
"38 281 OFFCURVE",
"52 260 OFFCURVE",
"85 251 CURVE SMOOTH",
"92 249 OFFCURVE",
"94 247 OFFCURVE",
"94 245 CURVE SMOOTH",
"94 244 OFFCURVE",
"93 238 OFFCURVE",
"79 238 CURVE SMOOTH",
"69 238 OFFCURVE",
"56 244 OFFCURVE",
"52 244 CURVE SMOOTH",
"31 244 OFFCURVE",
"86 142 OFFCURVE",
"141 142 CURVE SMOOTH",
"206 142 OFFCURVE",
"292 245 OFFCURVE",
"292 305 CURVE SMOOTH",
"292 362 OFFCURVE",
"235 378 OFFCURVE",
"145 378 CURVE SMOOTH"
);
},
{
closed = 1;
nodes = (
"297 -48 OFFCURVE",
"119 64 OFFCURVE",
"75 64 CURVE SMOOTH",
"62 64 OFFCURVE",
"55 59 OFFCURVE",
"55 49 CURVE SMOOTH",
"55 -11 OFFCURVE",
"246 -60 OFFCURVE",
"367 -60 CURVE SMOOTH",
"421 -60 OFFCURVE",
"592 -44 OFFCURVE",
"592 -7 CURVE SMOOTH",
"592 1 OFFCURVE",
"583 7 OFFCURVE",
"565 7 CURVE SMOOTH",
"505 7 OFFCURVE",
"436 -48 OFFCURVE",
"371 -48 CURVE SMOOTH"
);
}
);
width = 902;
}
);
leftMetricsKey = d;
rightMetricsKey = e;
},
{
glyphname = "Gje-cy";
lastChange = "2014-11-05 23:48:12 +0000";
layers = (
{
layerId = "24C63A81-7FC6-4EE9-AF2B-C1140AFD6C4B";
paths = (
{
closed = 1;
nodes = (
"315 741 LINE SMOOTH",
"348 768 OFFCURVE",
"337 787 OFFCURVE",
"326 796 CURVE SMOOTH",
"315 805 OFFCURVE",
"297 810 OFFCURVE",
"254 773 CURVE SMOOTH",
"227 750 OFFCURVE",
"205 734 OFFCURVE",
"195 714 CURVE SMOOTH",
"189 701 OFFCURVE",
"191 687 OFFCURVE",
"196 680 CURVE",
"202 670 OFFCURVE",
"221 661 OFFCURVE",
"240 677 CURVE SMOOTH"
);
},
{
closed = 1;
nodes = (
"356 596 OFFCURVE",
"296 596 OFFCURVE",
"227 597 CURVE SMOOTH",
"156 598 OFFCURVE",
"86 597 OFFCURVE",
"87 555 CURVE SMOOTH",
"88 529 OFFCURVE",
"88 527 OFFCURVE",
"88 485 CURVE SMOOTH",
"88 400 OFFCURVE",
"83 55 OFFCURVE",
"83 42 CURVE",
"82 20 OFFCURVE",
"99 1 OFFCURVE",
"122 0 CURVE",
"123 0 LINE SMOOTH",
"144 0 OFFCURVE",
"162 18 OFFCURVE",
"163 39 CURVE",
"163 41 OFFCURVE",
"164 399 OFFCURVE",
"166 516 CURVE",
"233 516 OFFCURVE",
"377 520 OFFCURVE",
"402 520 CURVE SMOOTH",
"472 520 OFFCURVE",
"462 589 OFFCURVE",
"415 592 CURVE SMOOTH"
);
}
);
width = 564;
}
);
unicode = 0403;
},
{
glyphname = zero;
lastChange = "2019-06-11 23:01:37 +0000";
layers = (
{
layerId = "24C63A81-7FC6-4EE9-AF2B-C1140AFD6C4B";
paths = (
{
closed = 1;
nodes = (
"451 0 OFFCURVE",
"535 163 OFFCURVE",
"535 350 CURVE SMOOTH",
"535 541 OFFCURVE",
"449 700 OFFCURVE",
"285 700 CURVE SMOOTH",
"119 700 OFFCURVE",
"25 547 OFFCURVE",
"25 360 CURVE SMOOTH",
"25 169 OFFCURVE",
"121 0 OFFCURVE",
"285 0 CURVE SMOOTH"
);
},
{
closed = 1;
nodes = (
"153 80 OFFCURVE",
"105 260 OFFCURVE",
"105 361 CURVE SMOOTH",
"105 478 OFFCURVE",
"161 620 OFFCURVE",
"285 620 CURVE SMOOTH",
"417 620 OFFCURVE",
"455 451 OFFCURVE",
"455 350 CURVE SMOOTH",
"455 187 OFFCURVE",
"390 80 OFFCURVE",
"285 80 CURVE SMOOTH"
);
},
{
closed = 1;
nodes = (
"310 304 OFFCURVE",
"334 328 OFFCURVE",
"334 356 CURVE SMOOTH",
"334 385 OFFCURVE",
"310 409 OFFCURVE",
"282 409 CURVE SMOOTH",
"253 409 OFFCURVE",
"229 385 OFFCURVE",
"229 356 CURVE SMOOTH",
"229 328 OFFCURVE",
"253 304 OFFCURVE",
"282 304 CURVE SMOOTH"
);
}
);
width = 560;
}
);
leftKerningGroup = zero;
rightKerningGroup = zero;
unicode = 0030;
},
{
glyphname = one;
lastChange = "2018-12-27 12:28:44 +0000";
layers = (
{
layerId = "24C63A81-7FC6-4EE9-AF2B-C1140AFD6C4B";
paths = (
{
closed = 1;
nodes = (
"460 2 LINE SMOOTH",
"482 2 OFFCURVE",
"498 21 OFFCURVE",
"496 42 CURVE SMOOTH",
"494 62 OFFCURVE",
"475 75 OFFCURVE",
"453 75 CURVE SMOOTH",
"354 75 LINE",
"354 665 LINE SMOOTH",
"354 684 OFFCURVE",
"337 698 OFFCURVE",
"318 700 CURVE SMOOTH",
"307 701 OFFCURVE",
"295 698 OFFCURVE",
"287 695 CURVE SMOOTH",
"279 692 OFFCURVE",
"150 658 OFFCURVE",
"123 641 CURVE SMOOTH",
"107 631 OFFCURVE",
"96 611 OFFCURVE",
"107 594 CURVE",
"117 578 OFFCURVE",
"140 573 OFFCURVE",
"158 579 CURVE SMOOTH",
"274 615 LINE",
"274 74 LINE",
"156 74 LINE SMOOTH",
"134 74 OFFCURVE",
"118 54 OFFCURVE",
"120 33 CURVE SMOOTH",
"122 15 OFFCURVE",
"139 0 OFFCURVE",
"159 0 CURVE SMOOTH"
);
}
);
width = 560;
},
{
associatedMasterId = "24C63A81-7FC6-4EE9-AF2B-C1140AFD6C4B";
layerId = "3C82937D-A4FD-48B2-9AE3-35B326BD9909";
name = "Dec 27 18, 13:09";
paths = (
{
closed = 1;
nodes = (
"354 67 OFFCURVE",
"335 83 OFFCURVE",
"313 81 CURVE",
"266 81 LINE",
"266 660 LINE SMOOTH",
"266 682 OFFCURVE",
"249 699 OFFCURVE",
"227 700 CURVE",
"219 701 OFFCURVE",
"212 699 OFFCURVE",
"205 694 CURVE SMOOTH",
"202 692 OFFCURVE",
"200 690 OFFCURVE",
"198 688 CURVE",
"115 622 LINE SMOOTH",
"98 608 OFFCURVE",
"88 587 OFFCURVE",
"99 568 CURVE",
"109 549 OFFCURVE",
"131 542 OFFCURVE",
"150 550 CURVE",
"153 552 LINE",
"186 577 LINE",
"186 80 LINE",
"136 80 LINE",
"114 78 OFFCURVE",
"98 58 OFFCURVE",
"100 36 CURVE",
"101 16 OFFCURVE",
"119 0 OFFCURVE",
"139 0 CURVE SMOOTH",
"143 0 LINE",
"320 2 LINE",
"342 4 OFFCURVE",
"358 23 OFFCURVE",
"356 45 CURVE SMOOTH"
);
}
);
width = 560;
}
);
leftKerningGroup = zero;
rightKerningGroup = zero;
unicode = 0031;
},
{
glyphname = two;
lastChange = "2019-01-06 19:19:20 +0000";
layers = (
{
layerId = "24C63A81-7FC6-4EE9-AF2B-C1140AFD6C4B";
paths = (
{
closed = 1;
nodes = (
"141 704 OFFCURVE",
"52 615 OFFCURVE",
"52 494 CURVE SMOOTH",
"52 440 OFFCURVE",
"132 441 OFFCURVE",
"132 492 CURVE SMOOTH",
"132 583 OFFCURVE",
"192 624 OFFCURVE",
"269 624 CURVE SMOOTH",
"357 624 OFFCURVE",
"416 572 OFFCURVE",
"416 497 CURVE SMOOTH",
"416 411 OFFCURVE",
"338 366 OFFCURVE",
"261 328 CURVE SMOOTH",
"178 287 OFFCURVE",
"49 203 OFFCURVE",
"49 80 CURVE SMOOTH",
"49 66 OFFCURVE",
"49 44 OFFCURVE",
"53 28 CURVE",
"58 11 OFFCURVE",
"74 0 OFFCURVE",
"92 0 CURVE SMOOTH",
"456 0 LINE SMOOTH",
"479 0 OFFCURVE",
"496 17 OFFCURVE",
"496 38 CURVE SMOOTH",
"496 58 OFFCURVE",
"479 75 OFFCURVE",
"456 75 CURVE SMOOTH",
"133 75 LINE",
"133 186 OFFCURVE",
"227 228 OFFCURVE",
"315 273 CURVE SMOOTH",
"409 321 OFFCURVE",
"496 376 OFFCURVE",
"496 491 CURVE SMOOTH",
"496 616 OFFCURVE",
"416 704 OFFCURVE",
"274 704 CURVE SMOOTH"
);
}
);
width = 560;
}
);
leftKerningGroup = zero;
rightKerningGroup = zero;
unicode = 0032;
},
{
glyphname = three;
lastChange = "2019-01-06 19:19:35 +0000";
layers = (
{
layerId = "24C63A81-7FC6-4EE9-AF2B-C1140AFD6C4B";
paths = (
{
closed = 1;
nodes = (
"445 0 OFFCURVE",
"519 97 OFFCURVE",
"514 198 CURVE SMOOTH",
"510 266 OFFCURVE",
"477 344 OFFCURVE",
"377 360 CURVE",
"478 376 OFFCURVE",
"504 458 OFFCURVE",
"501 515 CURVE SMOOTH",
"495 635 OFFCURVE",
"424 701 OFFCURVE",
"273 701 CURVE SMOOTH",
"149 701 OFFCURVE",
"50 603 OFFCURVE",
"55 503 CURVE SMOOTH",
"56 480 OFFCURVE",
"65 465 OFFCURVE",
"96 463 CURVE SMOOTH",
"142 460 OFFCURVE",
"127 504 OFFCURVE",
"155 560 CURVE SMOOTH",
"180 608 OFFCURVE",
"233 625 OFFCURVE",
"284 625 CURVE SMOOTH",
"358 625 OFFCURVE",
"417 591 OFFCURVE",
"421 518 CURVE SMOOTH",
"426 428 OFFCURVE",
"340 390 OFFCURVE",
"224 390 CURVE SMOOTH",
"198 390 OFFCURVE",
"190 372 OFFCURVE",
"191 360 CURVE SMOOTH",
"191 348 OFFCURVE",
"201 330 OFFCURVE",
"227 330 CURVE SMOOTH",
"338 330 OFFCURVE",
"427 290 OFFCURVE",
"432 204 CURVE SMOOTH",
"436 122 OFFCURVE",
"358 80 OFFCURVE",
"284 80 CURVE SMOOTH",
"209 80 OFFCURVE",
"146 123 OFFCURVE",
"127 195 CURVE SMOOTH",
"121 219 OFFCURVE",
"104 230 OFFCURVE",
"88 230 CURVE SMOOTH",
"67 230 OFFCURVE",
"46 212 OFFCURVE",
"48 184 CURVE SMOOTH",
"54 73 OFFCURVE",
"154 0 OFFCURVE",
"281 0 CURVE SMOOTH"
);
}
);
width = 560;
}
);
leftKerningGroup = zero;
rightKerningGroup = zero;
unicode = 0033;
},
{
glyphname = four;
lastChange = "2018-12-27 12:37:03 +0000";
layers = (
{
layerId = "24C63A81-7FC6-4EE9-AF2B-C1140AFD6C4B";
paths = (
{
closed = 1;
nodes = (
"462 282 LINE",
"462 392 LINE SMOOTH",
"462 420 OFFCURVE",
"444 437 OFFCURVE",
"422 437 CURVE SMOOTH",
"399 437 OFFCURVE",
"382 420 OFFCURVE",
"382 392 CURVE SMOOTH",
"382 282 LINE",
"141 282 LINE",
"231 401 OFFCURVE",
"302 526 OFFCURVE",
"352 645 CURVE SMOOTH",
"360 664 OFFCURVE",
"359 688 OFFCURVE",
"341 700 CURVE SMOOTH",
"323 712 OFFCURVE",
"295 711 OFFCURVE",
"285 689 CURVE SMOOTH",
"222 550 OFFCURVE",
"143 400 OFFCURVE",
"33 266 CURVE SMOOTH",
"24 255 OFFCURVE",
"24 240 OFFCURVE",
"31 228 CURVE SMOOTH",
"38 215 OFFCURVE",
"51 207 OFFCURVE",
"66 207 CURVE SMOOTH",
"382 207 LINE",
"382 43 LINE SMOOTH",
"382 18 OFFCURVE",
"399 0 OFFCURVE",
"422 0 CURVE SMOOTH",
"444 0 OFFCURVE",
"462 18 OFFCURVE",
"462 43 CURVE SMOOTH",
"462 207 LINE",
"501 207 LINE SMOOTH",
"523 207 OFFCURVE",
"541 224 OFFCURVE",
"541 245 CURVE SMOOTH",
"541 266 OFFCURVE",
"523 282 OFFCURVE",
"501 282 CURVE SMOOTH"
);
}
);
width = 560;
}
);
leftKerningGroup = zero;
rightKerningGroup = zero;
unicode = 0034;
},
{
glyphname = five;
lastChange = "2018-12-27 12:26:51 +0000";
layers = (
{
layerId = "24C63A81-7FC6-4EE9-AF2B-C1140AFD6C4B";
paths = (
{
closed = 1;
nodes = (
"139 700 LINE SMOOTH",
"112 700 OFFCURVE",
"90 678 OFFCURVE",
"90 651 CURVE SMOOTH",
"90 359 LINE SMOOTH",
"90 346 OFFCURVE",
"96 334 OFFCURVE",
"107 327 CURVE SMOOTH",
"118 319 OFFCURVE",
"131 317 OFFCURVE",
"144 322 CURVE SMOOTH",
"154 325 OFFCURVE",
"191 339 OFFCURVE",
"248 347 CURVE SMOOTH",
"368 364 OFFCURVE",
"438 339 OFFCURVE",
"438 241 CURVE SMOOTH",
"438 73 OFFCURVE",
"242 83 OFFCURVE",
"135 83 CURVE",
"113 86 OFFCURVE",
"93 71 OFFCURVE",
"90 49 CURVE SMOOTH",
"87 27 OFFCURVE",
"103 7 OFFCURVE",
"123 4 CURVE SMOOTH",
"133 2 OFFCURVE",
"154 0 OFFCURVE",
"194 0 CURVE SMOOTH",
"311 0 OFFCURVE",
"518 37 OFFCURVE",
"518 241 CURVE SMOOTH",
"518 458 OFFCURVE",
"301 447 OFFCURVE",
"170 413 CURVE",
"170 620 LINE",
"424 620 LINE SMOOTH",
"456 620 OFFCURVE",
"474 638 OFFCURVE",
"474 660 CURVE SMOOTH",
"474 682 OFFCURVE",
"456 700 OFFCURVE",
"424 700 CURVE SMOOTH"
);
}
);
width = 560;
}
);
leftKerningGroup = zero;
rightKerningGroup = zero;
unicode = 0035;
},
{
glyphname = six;
lastChange = "2018-12-27 12:26:28 +0000";
layers = (
{
layerId = "24C63A81-7FC6-4EE9-AF2B-C1140AFD6C4B";
paths = (
{
closed = 1;
nodes = (
"285 682 OFFCURVE",
"50 566 OFFCURVE",
"50 250 CURVE SMOOTH",
"50 70 OFFCURVE",
"166 1 OFFCURVE",
"276 1 CURVE SMOOTH",
"394 1 OFFCURVE",
"509 70 OFFCURVE",
"509 211 CURVE SMOOTH",
"509 333 OFFCURVE",
"419 428 OFFCURVE",
"298 428 CURVE SMOOTH",
"250 428 OFFCURVE",
"199 412 OFFCURVE",
"144 375 CURVE",
"174 450 OFFCURVE",
"216 516 OFFCURVE",
"265 561 CURVE SMOOTH",
"295 589 OFFCURVE",
"327 610 OFFCURVE",
"353 626 CURVE SMOOTH",
"382 644 OFFCURVE",
"392 664 OFFCURVE",
"379 684 CURVE SMOOTH",
"362 710 OFFCURVE",
"332 702 OFFCURVE",
"318 696 CURVE SMOOTH"
);
},
{
closed = 1;
nodes = (
"427 118 OFFCURVE",
"344 79 OFFCURVE",
"274 79 CURVE SMOOTH",
"196 79 OFFCURVE",
"129 125 OFFCURVE",
"129 208 CURVE SMOOTH",
"129 305 OFFCURVE",
"214 349 OFFCURVE",
"286 349 CURVE SMOOTH",
"365 349 OFFCURVE",
"431 295 OFFCURVE",
"429 211 CURVE SMOOTH"
);
}
);
width = 560;
}
);
leftKerningGroup = zero;
rightKerningGroup = zero;
unicode = 0036;
},
{
glyphname = seven;
lastChange = "2018-12-27 12:36:12 +0000";
layers = (
{
layerId = "24C63A81-7FC6-4EE9-AF2B-C1140AFD6C4B";
paths = (
{
closed = 1;
nodes = (
"80 699 LINE SMOOTH",
"58 699 OFFCURVE",
"40 685 OFFCURVE",
"40 662 CURVE SMOOTH",
"40 641 OFFCURVE",
"58 624 OFFCURVE",
"80 624 CURVE SMOOTH",
"426 624 LINE",
"280 443 OFFCURVE",
"206 221 OFFCURVE",
"149 51 CURVE SMOOTH",
"140 24 OFFCURVE",
"156 0 OFFCURVE",
"184 0 CURVE SMOOTH",
"200 0 OFFCURVE",
"217 7 OFFCURVE",
"226 34 CURVE SMOOTH",
"282 202 OFFCURVE",
"366 440 OFFCURVE",
"530 637 CURVE SMOOTH",
"540 649 OFFCURVE",
"543 664 OFFCURVE",
"537 677 CURVE",
"530 691 OFFCURVE",
"516 699 OFFCURVE",
"500 699 CURVE SMOOTH"
);
}
);
width = 560;
}
);
leftKerningGroup = zero;
rightKerningGroup = zero;
unicode = 0037;
},
{
glyphname = eight;
lastChange = "2018-12-27 12:36:38 +0000";
layers = (
{
layerId = "24C63A81-7FC6-4EE9-AF2B-C1140AFD6C4B";
paths = (
{
closed = 1;
nodes = (
"384 356 OFFCURVE",
"372 363 OFFCURVE",
"361 370 CURVE",
"382 385 LINE SMOOTH",
"445 430 OFFCURVE",
"476 475 OFFCURVE",
"476 530 CURVE SMOOTH",
"476 622 OFFCURVE",
"388 705 OFFCURVE",
"280 705 CURVE SMOOTH",
"172 705 OFFCURVE",
"84 622 OFFCURVE",
"84 524 CURVE SMOOTH",
"84 465 OFFCURVE",
"115 430 OFFCURVE",
"178 385 CURVE SMOOTH",
"185 380 OFFCURVE",
"192 375 OFFCURVE",
"198 370 CURVE",
"161 347 LINE SMOOTH",
"83 298 OFFCURVE",
"50 247 OFFCURVE",
"50 180 CURVE SMOOTH",
"50 59 OFFCURVE",
"168 0 OFFCURVE",
"280 0 CURVE SMOOTH",
"391 0 OFFCURVE",
"510 59 OFFCURVE",
"510 180 CURVE SMOOTH",
"510 247 OFFCURVE",
"476 297 OFFCURVE",
"398 347 CURVE SMOOTH"
);
},
{
closed = 1;
nodes = (
"164 575 OFFCURVE",
"216 625 OFFCURVE",
"280 625 CURVE SMOOTH",
"344 625 OFFCURVE",
"396 575 OFFCURVE",
"396 528 CURVE SMOOTH",
"396 468 OFFCURVE",
"311 416 OFFCURVE",
"280 400 CURVE",
"240 420 OFFCURVE",
"164 469 OFFCURVE",
"164 527 CURVE SMOOTH"
);
},
{
closed = 1;
nodes = (
"209 80 OFFCURVE",
"130 119 OFFCURVE",
"130 184 CURVE SMOOTH",
"130 258 OFFCURVE",
"233 313 OFFCURVE",
"280 335 CURVE",
"327 313 OFFCURVE",
"430 258 OFFCURVE",
"430 184 CURVE SMOOTH",
"430 119 OFFCURVE",
"350 80 OFFCURVE",
"280 80 CURVE SMOOTH"
);
}
);
width = 560;
}
);
leftKerningGroup = zero;
rightKerningGroup = zero;
unicode = 0038;
},
{
glyphname = nine;
lastChange = "2018-12-27 12:25:58 +0000";
layers = (
{
layerId = "24C63A81-7FC6-4EE9-AF2B-C1140AFD6C4B";
paths = (
{
closed = 1;
nodes = (
"174 707 OFFCURVE",
"50 626 OFFCURVE",
"50 480 CURVE SMOOTH",
"50 358 OFFCURVE",
"156 273 OFFCURVE",
"270 273 CURVE SMOOTH",
"319 273 OFFCURVE",
"370 289 OFFCURVE",
"425 332 CURVE",
"376 152 OFFCURVE",
"224 87 OFFCURVE",
"139 75 CURVE SMOOTH",
"111 71 OFFCURVE",
"96 43 OFFCURVE",
"109 19 CURVE SMOOTH",
"125 -11 OFFCURVE",
"166 2 OFFCURVE",
"189 7 CURVE SMOOTH",
"218 13 OFFCURVE",
"511 67 OFFCURVE",
"511 453 CURVE SMOOTH",
"511 471 OFFCURVE",
"510 489 OFFCURVE",
"509 509 CURVE SMOOTH",
"502 645 OFFCURVE",
"399 707 OFFCURVE",
"294 707 CURVE SMOOTH"
);
},
{
closed = 1;
nodes = (
"367 629 OFFCURVE",
"430 581 OFFCURVE",
"430 494 CURVE SMOOTH",
"430 395 OFFCURVE",
"346 351 OFFCURVE",
"276 351 CURVE SMOOTH",
"198 351 OFFCURVE",
"132 404 OFFCURVE",
"132 485 CURVE SMOOTH",
"132 575 OFFCURVE",
"215 629 OFFCURVE",
"293 629 CURVE SMOOTH"
);
}
);
width = 560;
}
);
leftKerningGroup = zero;
rightKerningGroup = zero;
unicode = 0039;
},
{
glyphname = fraction;
lastChange = "2014-09-27 15:23:54 +0000";
layers = (
{
layerId = "24C63A81-7FC6-4EE9-AF2B-C1140AFD6C4B";
paths = (
{
closed = 1;
nodes = (
"161 110 OFFCURVE",
"561 588 OFFCURVE",
"601 632 CURVE SMOOTH",
"609 641 OFFCURVE",
"637 682 OFFCURVE",
"607 700 CURVE SMOOTH",
"575 719 OFFCURVE",
"546 694 OFFCURVE",
"527 672 CURVE SMOOTH",
"491 631 OFFCURVE",
"77 150 OFFCURVE",
"49 107 CURVE SMOOTH",
"34 84 OFFCURVE",
"-7 38 OFFCURVE",
"27 10 CURVE SMOOTH",
"52 -10 OFFCURVE",
"83 16 OFFCURVE",
"107 45 CURVE SMOOTH"
);
}
);
width = 600;
}
);
unicode = 2044;
},
{
glyphname = period;
lastChange = "2019-01-06 14:05:24 +0000";
layers = (
{
layerId = "24C63A81-7FC6-4EE9-AF2B-C1140AFD6C4B";
paths = (
{
closed = 1;
nodes = (
"54 95 OFFCURVE",
"28 79 OFFCURVE",
"28 46 CURVE SMOOTH",
"28 14 OFFCURVE",
"52 -1 OFFCURVE",
"78 -1 CURVE SMOOTH",
"104 -1 OFFCURVE",
"130 15 OFFCURVE",
"130 46 CURVE SMOOTH",
"130 80 OFFCURVE",
"105 95 OFFCURVE",
"79 95 CURVE SMOOTH"
);
}
);
width = 158;
}
);
unicode = 002E;
},
{
glyphname = comma;
lastChange = "2019-01-06 14:20:48 +0000";
layers = (
{
layerId = "24C63A81-7FC6-4EE9-AF2B-C1140AFD6C4B";
paths = (
{
closed = 1;
nodes = (
"51 97 OFFCURVE",
"18 62 OFFCURVE",
"41 26 CURVE SMOOTH",
"50 12 LINE",
"35 -31 LINE SMOOTH",
"28 -51 OFFCURVE",
"21 -70 OFFCURVE",
"42 -80 CURVE SMOOTH",
"62 -89 OFFCURVE",
"77 -78 OFFCURVE",
"88 -57 CURVE SMOOTH",
"129 17 LINE SMOOTH",
"147 50 OFFCURVE",
"125 97 OFFCURVE",
"84 97 CURVE SMOOTH"
);
}
);
width = 163;
}
);
unicode = 002C;
},
{
glyphname = ellipsis;
lastChange = "2019-01-06 14:05:24 +0000";
layers = (
{
layerId = "24C63A81-7FC6-4EE9-AF2B-C1140AFD6C4B";
paths = (
{
closed = 1;
nodes = (
"53 98 OFFCURVE",
"28 81 OFFCURVE",
"28 48 CURVE SMOOTH",
"28 16 OFFCURVE",
"52 2 OFFCURVE",
"77 2 CURVE SMOOTH",
"103 2 OFFCURVE",
"129 17 OFFCURVE",
"130 46 CURVE SMOOTH",
"130 82 OFFCURVE",
"105 98 OFFCURVE",
"79 98 CURVE SMOOTH"
);
},
{
closed = 1;
nodes = (
"298 97 OFFCURVE",
"273 80 OFFCURVE",
"273 48 CURVE SMOOTH",
"273 16 OFFCURVE",
"297 1 OFFCURVE",
"321 1 CURVE SMOOTH",
"349 1 OFFCURVE",
"375 16 OFFCURVE",
"375 48 CURVE SMOOTH",
"375 82 OFFCURVE",
"350 98 OFFCURVE",
"324 98 CURVE"
);
},
{
closed = 1;
nodes = (
"533 98 OFFCURVE",
"507 81 OFFCURVE",
"507 48 CURVE SMOOTH",
"507 17 OFFCURVE",
"531 1 OFFCURVE",
"556 1 CURVE SMOOTH",
"581 1 OFFCURVE",
"609 15 OFFCURVE",
"609 46 CURVE SMOOTH",
"609 81 OFFCURVE",
"585 97 OFFCURVE",
"559 98 CURVE"
);
}
);
width = 637;
}
);
unicode = 2026;
},
{
glyphname = exclam;
lastChange = "2019-01-06 14:06:26 +0000";
layers = (
{
components = (
{
name = period;
}
);
layerId = "24C63A81-7FC6-4EE9-AF2B-C1140AFD6C4B";
paths = (
{
closed = 1;
nodes = (
"49 706 OFFCURVE",
"31 691 OFFCURVE",
"33 659 CURVE",
"36 499 OFFCURVE",
"46 290 OFFCURVE",
"46 189 CURVE SMOOTH",
"46 169 OFFCURVE",
"60 155 OFFCURVE",
"79 155 CURVE SMOOTH",
"98 155 OFFCURVE",
"111 169 OFFCURVE",
"111 189 CURVE SMOOTH",
"111 275 OFFCURVE",
"120 451 OFFCURVE",
"120 577 CURVE SMOOTH",
"120 657 LINE SMOOTH",
"120 690 OFFCURVE",
"96 706 OFFCURVE",
"72 706 CURVE SMOOTH"
);
}
);
width = 158;
}
);
unicode = 0021;
},
{
glyphname = question;
lastChange = "2019-01-06 14:05:38 +0000";
layers = (
{
components = (
{
name = period;
transform = "{1, 0, 0, 1, 171, 0}";
}
);
layerId = "24C63A81-7FC6-4EE9-AF2B-C1140AFD6C4B";
paths = (
{
closed = 1;
nodes = (
"41 575 OFFCURVE",
"38 547 OFFCURVE",
"61 530 CURVE SMOOTH",
"82 515 OFFCURVE",
"108 522 OFFCURVE",
"121 543 CURVE SMOOTH",
"144 580 OFFCURVE",
"181 637 OFFCURVE",
"257 637 CURVE SMOOTH",
"314 637 OFFCURVE",
"374 603 OFFCURVE",
"374 520 CURVE SMOOTH",
"374 431 OFFCURVE",
"303 403 OFFCURVE",
"262 374 CURVE SMOOTH",
"219 344 OFFCURVE",
"204 313 OFFCURVE",
"204 212 CURVE SMOOTH",
"204 181 OFFCURVE",
"205 132 OFFCURVE",
"248 132 CURVE SMOOTH",
"296 132 OFFCURVE",
"291 183 OFFCURVE",
"291 212 CURVE SMOOTH",
"291 274 OFFCURVE",
"289 297 OFFCURVE",
"322 320 CURVE SMOOTH",
"368 352 OFFCURVE",
"455 386 OFFCURVE",
"455 520 CURVE SMOOTH",
"455 661 OFFCURVE",
"363 712 OFFCURVE",
"261 712 CURVE SMOOTH",
"147 712 OFFCURVE",
"90 651 OFFCURVE",
"57 600 CURVE SMOOTH"
);
}
);
width = 499;
},
{
associatedMasterId = "24C63A81-7FC6-4EE9-AF2B-C1140AFD6C4B";
layerId = "8E4F163C-EB4A-4CAF-BCA1-BB8080ED8C70";
name = "Jan 5 19, 21:44";
paths = (
{
closed = 1;
nodes = (
"16 695 OFFCURVE",
"38 523 OFFCURVE",
"38 483 CURVE SMOOTH",
"38 416 OFFCURVE",
"127 419 OFFCURVE",
"127 485 CURVE SMOOTH",
"127 540 OFFCURVE",
"108 607 OFFCURVE",
"230 607 CURVE SMOOTH",
"291 607 OFFCURVE",
"346 561 OFFCURVE",
"346 479 CURVE SMOOTH",
"346 413 OFFCURVE",
"325 381 OFFCURVE",
"266 381 CURVE SMOOTH",
"164 381 OFFCURVE",
"154 298 OFFCURVE",
"154 256 CURVE SMOOTH",
"154 211 OFFCURVE",
"154 132 OFFCURVE",
"197 132 CURVE SMOOTH",
"240 132 OFFCURVE",
"236 173 OFFCURVE",
"238 213 CURVE SMOOTH",
"240 251 OFFCURVE",
"237 298 OFFCURVE",
"259 298 CURVE SMOOTH",
"363 298 OFFCURVE",
"432 367 OFFCURVE",
"431 479 CURVE SMOOTH",
"429 607 OFFCURVE",
"344 695 OFFCURVE",
"236 695 CURVE SMOOTH"
);
},
{
closed = 1;
nodes = (
"148 15 OFFCURVE",
"173 0 OFFCURVE",
"199 0 CURVE SMOOTH",
"224 0 OFFCURVE",
"250 16 OFFCURVE",
"250 46 CURVE SMOOTH",
"251 82 OFFCURVE",
"224 98 OFFCURVE",
"198 98 CURVE",
"173 97 OFFCURVE",
"148 80 OFFCURVE",
"148 48 CURVE SMOOTH"
);
}
);
width = 470;
}
);
leftMetricsKey = H;
rightMetricsKey = H;
unicode = 003F;
},
{
glyphname = bullet;
lastChange = "2019-01-06 14:07:00 +0000";
layers = (
{
layerId = "24C63A81-7FC6-4EE9-AF2B-C1140AFD6C4B";
paths = (
{
closed = 1;
nodes = (
"161 207 OFFCURVE",
"199 250 OFFCURVE",
"199 297 CURVE SMOOTH",
"199 344 OFFCURVE",
"156 377 OFFCURVE",
"114 377 CURVE SMOOTH",
"66 377 OFFCURVE",
"26 339 OFFCURVE",
"28 292 CURVE SMOOTH",
"31 244 OFFCURVE",
"66 205 OFFCURVE",
"114 206 CURVE SMOOTH"
);
}
);
width = 227;
}
);
unicode = 2022;
},
{
glyphname = asterisk;
lastChange = "2019-01-06 14:05:24 +0000";
layers = (
{
layerId = "24C63A81-7FC6-4EE9-AF2B-C1140AFD6C4B";
paths = (
{
closed = 1;
nodes = (
"112 682 OFFCURVE",
"105 658 OFFCURVE",
"116 638 CURVE SMOOTH",
"153 575 LINE",
"160 562 OFFCURVE",
"174 555 OFFCURVE",
"188 555 CURVE SMOOTH",
"194 555 OFFCURVE",
"201 557 OFFCURVE",
"208 561 CURVE SMOOTH",
"227 572 OFFCURVE",
"233 596 OFFCURVE",
"222 615 CURVE SMOOTH",
"186 678 LINE SMOOTH",
"175 698 OFFCURVE",
"150 704 OFFCURVE",
"131 693 CURVE SMOOTH"
);
},
{
closed = 1;
nodes = (
"314 701 OFFCURVE",
"289 695 OFFCURVE",
"278 675 CURVE SMOOTH",
"242 612 LINE SMOOTH",
"231 593 OFFCURVE",
"237 569 OFFCURVE",
"256 558 CURVE SMOOTH",
"263 554 OFFCURVE",
"270 552 OFFCURVE",
"276 552 CURVE SMOOTH",
"290 552 OFFCURVE",
"304 559 OFFCURVE",
"311 572 CURVE",
"348 635 LINE SMOOTH",
"359 655 OFFCURVE",
"352 679 OFFCURVE",
"333 690 CURVE SMOOTH"
);
},
{
closed = 1;
nodes = (
"68 560 LINE SMOOTH",
"46 560 OFFCURVE",
"28 542 OFFCURVE",
"28 520 CURVE SMOOTH",
"28 498 OFFCURVE",
"46 480 OFFCURVE",
"68 480 CURVE SMOOTH",
"141 480 LINE SMOOTH",
"163 480 OFFCURVE",
"181 498 OFFCURVE",
"181 520 CURVE SMOOTH",
"181 542 OFFCURVE",
"163 560 OFFCURVE",
"141 560 CURVE SMOOTH"
);
},
{
closed = 1;
nodes = (
"318 554 LINE SMOOTH",
"296 554 OFFCURVE",
"278 536 OFFCURVE",
"278 514 CURVE SMOOTH",
"278 492 OFFCURVE",
"296 474 OFFCURVE",
"318 474 CURVE SMOOTH",
"391 474 LINE SMOOTH",
"413 474 OFFCURVE",
"431 492 OFFCURVE",
"431 514 CURVE SMOOTH",
"431 536 OFFCURVE",
"413 554 OFFCURVE",
"391 554 CURVE SMOOTH"
);
},
{
closed = 1;
nodes = (
"183 487 OFFCURVE",
"159 481 OFFCURVE",
"148 462 CURVE SMOOTH",
"111 398 LINE SMOOTH",
"100 379 OFFCURVE",
"107 355 OFFCURVE",
"126 344 CURVE",
"132 340 OFFCURVE",
"139 338 OFFCURVE",
"146 338 CURVE SMOOTH",
"160 338 OFFCURVE",
"173 345 OFFCURVE",
"181 358 CURVE",
"217 422 LINE SMOOTH",
"228 441 OFFCURVE",
"221 465 OFFCURVE",
"202 476 CURVE SMOOTH"
);
},
{
closed = 1;
nodes = (
"232 462 OFFCURVE",
"225 438 OFFCURVE",
"236 418 CURVE SMOOTH",
"273 355 LINE",
"280 342 OFFCURVE",
"294 335 OFFCURVE",
"308 335 CURVE SMOOTH",
"314 335 OFFCURVE",
"321 337 OFFCURVE",
"328 341 CURVE SMOOTH",
"347 352 OFFCURVE",
"353 376 OFFCURVE",
"342 395 CURVE SMOOTH",
"306 458 LINE SMOOTH",
"295 478 OFFCURVE",
"270 484 OFFCURVE",
"251 473 CURVE SMOOTH"
);
}
);
width = 459;
}
);
unicode = 002A;
},
{
glyphname = numbersign;
lastChange = "2019-01-06 14:05:24 +0000";
layers = (
{
layerId = "24C63A81-7FC6-4EE9-AF2B-C1140AFD6C4B";
paths = (
{
closed = 1;
nodes = (
"479 320 LINE",
"487 437 LINE",
"567 443 LINE SMOOTH",
"589 445 OFFCURVE",
"605 465 OFFCURVE",
"603 487 CURVE SMOOTH",
"601 509 OFFCURVE",
"581 525 OFFCURVE",
"559 523 CURVE SMOOTH",
"492 518 LINE",
"501 663 LINE",
"501 685 OFFCURVE",
"483 703 OFFCURVE",
"461 703 CURVE SMOOTH",
"438 703 OFFCURVE",
"421 685 OFFCURVE",
"421 663 CURVE",
"411 512 LINE",
"247 500 LINE",
"257 663 LINE",
"257 685 OFFCURVE",
"239 703 OFFCURVE",
"217 703 CURVE SMOOTH",
"194 703 OFFCURVE",
"177 685 OFFCURVE",
"177 663 CURVE",
"166 495 LINE",
"73 488 LINE SMOOTH",
"51 486 OFFCURVE",
"35 467 OFFCURVE",
"37 445 CURVE SMOOTH",
"39 424 OFFCURVE",
"57 409 OFFCURVE",
"77 409 CURVE SMOOTH",
"81 409 LINE",
"161 415 LINE",
"153 296 LINE",
"64 290 LINE SMOOTH",
"42 288 OFFCURVE",
"26 269 OFFCURVE",
"28 247 CURVE SMOOTH",
"30 226 OFFCURVE",
"48 211 OFFCURVE",
"68 211 CURVE SMOOTH",
"72 211 LINE",
"148 216 LINE",
"137 40 LINE",
"137 18 OFFCURVE",
"154 0 OFFCURVE",
"177 0 CURVE SMOOTH",
"199 0 OFFCURVE",
"217 18 OFFCURVE",
"217 40 CURVE",
"229 222 LINE",
"393 233 LINE",
"381 40 LINE",
"381 18 OFFCURVE",
"398 0 OFFCURVE",
"421 0 CURVE SMOOTH",
"443 0 OFFCURVE",
"461 18 OFFCURVE",
"461 40 CURVE",
"474 239 LINE",
"558 245 LINE SMOOTH",
"580 247 OFFCURVE",
"596 267 OFFCURVE",
"594 289 CURVE SMOOTH",
"592 311 OFFCURVE",
"572 327 OFFCURVE",
"550 325 CURVE SMOOTH"
);
},
{
closed = 1;
nodes = (
"399 314 LINE",
"234 302 LINE",
"241 420 LINE",
"406 432 LINE"
);
}
);
width = 631;
}
);
unicode = 0023;
},
{
glyphname = slash;
lastChange = "2019-01-06 14:05:24 +0000";
layers = (
{
layerId = "24C63A81-7FC6-4EE9-AF2B-C1140AFD6C4B";
paths = (
{
closed = 1;
nodes = (
"86 -103 OFFCURVE",
"102 -92 OFFCURVE",
"107 -74 CURVE SMOOTH",
"335 708 LINE SMOOTH",
"341 729 OFFCURVE",
"329 751 OFFCURVE",
"307 757 CURVE SMOOTH",
"286 763 OFFCURVE",
"264 751 OFFCURVE",
"258 730 CURVE SMOOTH",
"30 -52 LINE SMOOTH",
"24 -73 OFFCURVE",
"36 -95 OFFCURVE",
"57 -101 CURVE SMOOTH",
"61 -102 OFFCURVE",
"65 -103 OFFCURVE",
"68 -103 CURVE SMOOTH"
);
}
);
width = 365;
}
);
unicode = 002F;
},
{
glyphname = backslash;
lastChange = "2019-01-06 14:05:24 +0000";
layers = (
{
layerId = "24C63A81-7FC6-4EE9-AF2B-C1140AFD6C4B";
paths = (
{
closed = 1;
nodes = (
"36 754 OFFCURVE",
"24 732 OFFCURVE",
"30 711 CURVE SMOOTH",
"258 -71 LINE SMOOTH",
"263 -89 OFFCURVE",
"279 -100 OFFCURVE",
"297 -100 CURVE SMOOTH",
"300 -100 OFFCURVE",
"304 -99 OFFCURVE",
"308 -98 CURVE SMOOTH",
"329 -92 OFFCURVE",
"341 -70 OFFCURVE",
"335 -49 CURVE SMOOTH",
"107 733 LINE SMOOTH",
"101 754 OFFCURVE",
"79 766 OFFCURVE",
"58 760 CURVE SMOOTH"
);
}
);
width = 365;
}
);
unicode = 005C;
},
{
glyphname = parenleft;
lastChange = "2019-01-06 14:05:24 +0000";
layers = (
{
layerId = "24C63A81-7FC6-4EE9-AF2B-C1140AFD6C4B";
paths = (
{
closed = 1;
nodes = (
"161 746 OFFCURVE",
"136 739 OFFCURVE",
"126 720 CURVE",
"92 661 OFFCURVE",
"67 596 OFFCURVE",
"51 529 CURVE SMOOTH",
"36 465 OFFCURVE",
"28 396 OFFCURVE",
"28 325 CURVE SMOOTH",
"28 253 OFFCURVE",
"36 184 OFFCURVE",
"51 120 CURVE SMOOTH",
"67 53 OFFCURVE",
"92 -12 OFFCURVE",
"126 -71 CURVE SMOOTH",
"133 -84 OFFCURVE",
"147 -91 OFFCURVE",
"161 -91 CURVE SMOOTH",
"167 -91 OFFCURVE",
"174 -90 OFFCURVE",
"180 -86 CURVE",
"199 -75 OFFCURVE",
"206 -51 OFFCURVE",
"195 -32 CURVE SMOOTH",
"166 21 OFFCURVE",
"143 78 OFFCURVE",
"129 139 CURVE SMOOTH",
"115 197 OFFCURVE",
"108 259 OFFCURVE",
"108 325 CURVE SMOOTH",
"108 390 OFFCURVE",
"115 452 OFFCURVE",
"129 510 CURVE SMOOTH",
"143 571 OFFCURVE",
"166 628 OFFCURVE",
"195 681 CURVE SMOOTH",
"206 700 OFFCURVE",
"199 724 OFFCURVE",
"180 735 CURVE SMOOTH"
);
}
);
width = 228;
}
);
unicode = 0028;
},
{
glyphname = parenright;
lastChange = "2019-01-06 14:05:24 +0000";
layers = (
{
layerId = "24C63A81-7FC6-4EE9-AF2B-C1140AFD6C4B";
paths = (
{
closed = 1;
nodes = (
"61 742 OFFCURVE",
"54 741 OFFCURVE",
"48 737 CURVE",
"29 726 OFFCURVE",
"22 702 OFFCURVE",
"33 683 CURVE SMOOTH",
"62 630 OFFCURVE",
"85 573 OFFCURVE",
"99 512 CURVE SMOOTH",
"113 454 OFFCURVE",
"120 392 OFFCURVE",
"120 327 CURVE SMOOTH",
"120 261 OFFCURVE",
"113 199 OFFCURVE",
"99 141 CURVE SMOOTH",
"85 80 OFFCURVE",
"62 23 OFFCURVE",
"33 -30 CURVE SMOOTH",
"22 -49 OFFCURVE",
"29 -73 OFFCURVE",
"48 -84 CURVE SMOOTH",
"67 -95 OFFCURVE",
"92 -88 OFFCURVE",
"103 -69 CURVE SMOOTH",
"136 -10 OFFCURVE",
"161 55 OFFCURVE",
"177 122 CURVE SMOOTH",
"192 186 OFFCURVE",
"200 255 OFFCURVE",
"200 327 CURVE SMOOTH",
"200 398 OFFCURVE",
"192 467 OFFCURVE",
"177 531 CURVE SMOOTH",
"161 598 OFFCURVE",
"136 663 OFFCURVE",
"103 722 CURVE",
"95 735 OFFCURVE",
"82 742 OFFCURVE",
"68 742 CURVE SMOOTH"
);
}
);
width = 228;
}
);
unicode = 0029;
},
{
glyphname = braceleft;
lastChange = "2019-01-06 14:05:24 +0000";
layers = (
{
layerId = "24C63A81-7FC6-4EE9-AF2B-C1140AFD6C4B";
paths = (
{
closed = 1;
nodes = (
"208 767 OFFCURVE",
"165 699 OFFCURVE",
"142 611 CURVE SMOOTH",
"125 541 OFFCURVE",
"123 464 OFFCURVE",
"123 424 CURVE SMOOTH",
"123 400 OFFCURVE",
"114 386 OFFCURVE",
"92 377 CURVE SMOOTH",
"74 369 OFFCURVE",
"55 368 OFFCURVE",
"55 368 CURVE SMOOTH",
"22 367 OFFCURVE",
"17 288 OFFCURVE",
"55 285 CURVE",
"55 285 OFFCURVE",
"74 284 OFFCURVE",
"92 276 CURVE SMOOTH",
"114 267 OFFCURVE",
"123 253 OFFCURVE",
"123 229 CURVE SMOOTH",
"123 189 OFFCURVE",
"125 112 OFFCURVE",
"142 42 CURVE SMOOTH",
"164 -43 OFFCURVE",
"206 -114 OFFCURVE",
"287 -114 CURVE",
"307 -112 OFFCURVE",
"307 -31 OFFCURVE",
"287 -34 CURVE",
"217 -34 OFFCURVE",
"203 150 OFFCURVE",
"203 229 CURVE SMOOTH",
"203 269 OFFCURVE",
"188 303 OFFCURVE",
"161 326 CURVE",
"188 350 OFFCURVE",
"203 384 OFFCURVE",
"203 424 CURVE SMOOTH",
"203 491 OFFCURVE",
"214 687 OFFCURVE",
"287 687 CURVE SMOOTH",
"318 688 OFFCURVE",
"317 767 OFFCURVE",
"287 767 CURVE SMOOTH"
);
}
);
width = 338;
}
);
unicode = 007B;
},
{
glyphname = braceright;
lastChange = "2019-01-06 14:05:24 +0000";
layers = (
{
layerId = "24C63A81-7FC6-4EE9-AF2B-C1140AFD6C4B";
paths = (
{
closed = 1;
nodes = (
"20 767 OFFCURVE",
"23 687 OFFCURVE",
"49 687 CURVE SMOOTH",
"59 687 OFFCURVE",
"71 684 OFFCURVE",
"85 665 CURVE",
"98 649 OFFCURVE",
"108 624 OFFCURVE",
"116 591 CURVE SMOOTH",
"131 530 OFFCURVE",
"133 460 OFFCURVE",
"133 423 CURVE SMOOTH",
"133 383 OFFCURVE",
"148 350 OFFCURVE",
"175 326 CURVE",
"148 302 OFFCURVE",
"133 269 OFFCURVE",
"133 229 CURVE SMOOTH",
"133 192 OFFCURVE",
"131 122 OFFCURVE",
"116 61 CURVE SMOOTH",
"108 29 OFFCURVE",
"98 4 OFFCURVE",
"85 -13 CURVE SMOOTH",
"71 -32 OFFCURVE",
"59 -34 OFFCURVE",
"49 -34 CURVE SMOOTH",
"21 -34 OFFCURVE",
"20 -114 OFFCURVE",
"49 -114 CURVE SMOOTH",
"77 -114 OFFCURVE",
"117 -105 OFFCURVE",
"150 -60 CURVE SMOOTH",
"168 -35 OFFCURVE",
"183 -1 OFFCURVE",
"193 42 CURVE SMOOTH",
"211 111 OFFCURVE",
"213 189 OFFCURVE",
"213 229 CURVE SMOOTH",
"213 253 OFFCURVE",
"222 267 OFFCURVE",
"243 276 CURVE SMOOTH",
"261 284 OFFCURVE",
"281 285 OFFCURVE",
"281 285 CURVE",
"313 286 OFFCURVE",
"317 369 OFFCURVE",
"281 368 CURVE SMOOTH",
"281 368 OFFCURVE",
"261 368 OFFCURVE",
"243 376 CURVE SMOOTH",
"222 386 OFFCURVE",
"213 400 OFFCURVE",
"213 423 CURVE SMOOTH",
"213 463 OFFCURVE",
"211 541 OFFCURVE",
"193 610 CURVE SMOOTH",
"183 653 OFFCURVE",
"168 688 OFFCURVE",
"150 713 CURVE SMOOTH",
"117 757 OFFCURVE",
"77 767 OFFCURVE",
"49 767 CURVE SMOOTH"
);
}
);
width = 335;
}
);
unicode = 007D;
},
{
glyphname = bracketleft;
lastChange = "2019-01-06 14:05:24 +0000";
layers = (
{
layerId = "24C63A81-7FC6-4EE9-AF2B-C1140AFD6C4B";
paths = (
{
closed = 1;
nodes = (
"68 735 LINE SMOOTH",
"46 735 OFFCURVE",
"28 717 OFFCURVE",
"28 695 CURVE SMOOTH",
"28 -48 LINE SMOOTH",
"28 -70 OFFCURVE",
"46 -88 OFFCURVE",
"68 -88 CURVE SMOOTH",
"195 -88 LINE SMOOTH",
"217 -88 OFFCURVE",
"235 -70 OFFCURVE",
"235 -48 CURVE SMOOTH",
"235 -26 OFFCURVE",
"217 -8 OFFCURVE",
"195 -8 CURVE SMOOTH",
"108 -8 LINE",
"108 655 LINE",
"195 655 LINE SMOOTH",
"217 655 OFFCURVE",
"235 673 OFFCURVE",
"235 695 CURVE SMOOTH",
"235 717 OFFCURVE",
"217 735 OFFCURVE",
"195 735 CURVE SMOOTH"
);
}
);
width = 263;
}
);
unicode = 005B;
},
{
glyphname = bracketright;
lastChange = "2019-01-06 14:05:24 +0000";
layers = (
{
layerId = "24C63A81-7FC6-4EE9-AF2B-C1140AFD6C4B";
paths = (
{
closed = 1;
nodes = (
"68 732 LINE SMOOTH",
"46 732 OFFCURVE",
"28 714 OFFCURVE",
"28 692 CURVE SMOOTH",
"28 670 OFFCURVE",
"46 652 OFFCURVE",
"68 652 CURVE SMOOTH",
"155 652 LINE",
"155 -11 LINE",
"68 -11 LINE SMOOTH",
"46 -11 OFFCURVE",
"28 -29 OFFCURVE",
"28 -51 CURVE SMOOTH",
"28 -73 OFFCURVE",
"46 -91 OFFCURVE",
"68 -91 CURVE SMOOTH",
"195 -91 LINE SMOOTH",
"217 -91 OFFCURVE",
"235 -73 OFFCURVE",
"235 -51 CURVE SMOOTH",
"235 692 LINE SMOOTH",
"235 714 OFFCURVE",
"217 732 OFFCURVE",
"195 732 CURVE SMOOTH"
);
}
);
width = 263;
}
);
unicode = 005D;
},
{
glyphname = hyphen;
lastChange = "2019-01-06 14:05:24 +0000";
layers = (
{
layerId = "24C63A81-7FC6-4EE9-AF2B-C1140AFD6C4B";
paths = (
{
closed = 1;
nodes = (
"16 311 OFFCURVE",
"29 317 OFFCURVE",
"28 264 CURVE SMOOTH",
"27 230 OFFCURVE",
"25 236 OFFCURVE",
"190 235 CURVE SMOOTH",
"313 234 OFFCURVE",
"315 225 OFFCURVE",
"315 271 CURVE SMOOTH",
"315 322 OFFCURVE",
"341 311 OFFCURVE",
"179 311 CURVE SMOOTH"
);
}
);
width = 345;
}
);
unicode = 002D;
},
{
glyphname = endash;
lastChange = "2019-01-06 14:05:24 +0000";
layers = (
{
layerId = "24C63A81-7FC6-4EE9-AF2B-C1140AFD6C4B";
paths = (
{
closed = 1;
nodes = (
"24 311 OFFCURVE",
"27 317 OFFCURVE",
"28 264 CURVE SMOOTH",
"29 230 OFFCURVE",
"25 236 OFFCURVE",
"280 235 CURVE SMOOTH",
"463 234 OFFCURVE",
"467 225 OFFCURVE",
"465 271 CURVE SMOOTH",
"463 322 OFFCURVE",
"469 311 OFFCURVE",
"267 311 CURVE SMOOTH"
);
}
);
width = 493;
}
);
unicode = 2013;
},
{
glyphname = emdash;
lastChange = "2019-01-06 14:05:24 +0000";
layers = (
{
layerId = "24C63A81-7FC6-4EE9-AF2B-C1140AFD6C4B";
paths = (
{
closed = 1;
nodes = (
"24 311 OFFCURVE",
"27 317 OFFCURVE",
"28 274 CURVE SMOOTH",
"29 240 OFFCURVE",
"25 236 OFFCURVE",
"400 235 CURVE SMOOTH",
"693 234 OFFCURVE",
"697 235 OFFCURVE",
"695 281 CURVE SMOOTH",
"693 322 OFFCURVE",
"699 311 OFFCURVE",
"387 311 CURVE SMOOTH"
);
}
);
width = 723;
}
);
unicode = 2014;
},
{
glyphname = underscore;
lastChange = "2019-01-06 14:07:38 +0000";
layers = (
{
layerId = "24C63A81-7FC6-4EE9-AF2B-C1140AFD6C4B";
paths = (
{
closed = 1;
nodes = (
"-4 -2 OFFCURVE",
"-1 4 OFFCURVE",
"0 -39 CURVE SMOOTH",
"1 -73 OFFCURVE",
"-3 -67 OFFCURVE",
"252 -68 CURVE SMOOTH",
"445 -69 OFFCURVE",
"449 -78 OFFCURVE",
"447 -32 CURVE SMOOTH",
"445 9 OFFCURVE",
"451 -2 OFFCURVE",
"239 -2 CURVE SMOOTH"
);
}
);
width = 447;
}
);
unicode = 005F;
},
{
glyphname = guillemetright;
lastChange = "2019-01-06 14:23:10 +0000";
layers = (
{
layerId = "24C63A81-7FC6-4EE9-AF2B-C1140AFD6C4B";
paths = (
{
closed = 1;
nodes = (
"273 53 OFFCURVE",
"304 82 OFFCURVE",
"347 122 CURVE SMOOTH",
"373 146 OFFCURVE",
"393 166 OFFCURVE",
"408 182 CURVE SMOOTH",
"437 213 OFFCURVE",
"446 227 OFFCURVE",
"446 245 CURVE SMOOTH",
"446 262 OFFCURVE",
"437 277 OFFCURVE",
"408 307 CURVE SMOOTH",
"393 323 OFFCURVE",
"373 343 OFFCURVE",
"347 367 CURVE SMOOTH",
"304 408 OFFCURVE",
"284 429 OFFCURVE",
"260 447 CURVE SMOOTH",
"244 461 OFFCURVE",
"219 460 OFFCURVE",
"204 443 CURVE SMOOTH",
"189 426 OFFCURVE",
"191 401 OFFCURVE",
"207 387 CURVE SMOOTH",
"219 375 OFFCURVE",
"245 354 OFFCURVE",
"284 317 CURVE SMOOTH",
"324 279 OFFCURVE",
"346 257 OFFCURVE",
"357 245 CURVE",
"346 232 OFFCURVE",
"324 210 OFFCURVE",
"284 172 CURVE SMOOTH",
"245 136 OFFCURVE",
"216 113 OFFCURVE",
"207 103 CURVE SMOOTH",
"191 88 OFFCURVE",
"189 63 OFFCURVE",
"204 46 CURVE SMOOTH",
"218 30 OFFCURVE",
"246 29 OFFCURVE",
"260 43 CURVE SMOOTH"
);
},
{
closed = 1;
nodes = (
"112 82 OFFCURVE",
"192 163 OFFCURVE",
"210 182 CURVE SMOOTH",
"239 213 OFFCURVE",
"247 227 OFFCURVE",
"247 245 CURVE SMOOTH",
"247 262 OFFCURVE",
"239 277 OFFCURVE",
"210 307 CURVE SMOOTH",
"195 323 OFFCURVE",
"174 342 OFFCURVE",
"149 367 CURVE SMOOTH",
"136 380 OFFCURVE",
"116 395 OFFCURVE",
"101 410 CURVE",
"85 424 OFFCURVE",
"59 423 OFFCURVE",
"45 406 CURVE SMOOTH",
"30 389 OFFCURVE",
"32 364 OFFCURVE",
"48 350 CURVE SMOOTH",
"60 338 OFFCURVE",
"85 313 OFFCURVE",
"124 280 CURVE SMOOTH",
"136 270 OFFCURVE",
"147 257 OFFCURVE",
"159 245 CURVE",
"147 232 OFFCURVE",
"55 146 OFFCURVE",
"41 131 CURVE",
"25 116 OFFCURVE",
"23 91 OFFCURVE",
"38 74 CURVE SMOOTH",
"51 60 OFFCURVE",
"70 55 OFFCURVE",
"94 71 CURVE SMOOTH"
);
}
);
width = 474;
}
);
unicode = 00BB;
},
{
glyphname = guilsinglleft;
lastChange = "2019-01-06 14:23:20 +0000";
layers = (
{
layerId = "24C63A81-7FC6-4EE9-AF2B-C1140AFD6C4B";
paths = (
{
closed = 1;
nodes = (
"230 31 OFFCURVE",
"256 30 OFFCURVE",
"270 46 CURVE SMOOTH",
"285 63 OFFCURVE",
"283 88 OFFCURVE",
"267 103 CURVE SMOOTH",
"257 112 OFFCURVE",
"229 136 OFFCURVE",
"190 172 CURVE SMOOTH",
"149 209 OFFCURVE",
"128 232 OFFCURVE",
"117 245 CURVE",
"128 257 OFFCURVE",
"150 279 OFFCURVE",
"190 317 CURVE SMOOTH",
"229 354 OFFCURVE",
"255 375 OFFCURVE",
"267 387 CURVE SMOOTH",
"282 402 OFFCURVE",
"285 426 OFFCURVE",
"270 443 CURVE SMOOTH",
"255 460 OFFCURVE",
"230 461 OFFCURVE",
"214 447 CURVE SMOOTH",
"191 427 OFFCURVE",
"171 407 OFFCURVE",
"127 367 CURVE SMOOTH",
"101 343 OFFCURVE",
"81 323 OFFCURVE",
"66 307 CURVE SMOOTH",
"37 277 OFFCURVE",
"28 262 OFFCURVE",
"28 245 CURVE SMOOTH",
"28 227 OFFCURVE",
"37 213 OFFCURVE",
"66 182 CURVE SMOOTH",
"81 166 OFFCURVE",
"101 146 OFFCURVE",
"127 122 CURVE SMOOTH",
"170 82 OFFCURVE",
"201 53 OFFCURVE",
"214 43 CURVE SMOOTH"
);
}
);
width = 308;
}
);
unicode = 2039;
},
{
glyphname = quotesingle;
lastChange = "2019-01-06 14:17:31 +0000";
layers = (
{
layerId = "24C63A81-7FC6-4EE9-AF2B-C1140AFD6C4B";
paths = (
{
closed = 1;
nodes = (
"42 704 OFFCURVE",
"27 689 OFFCURVE",
"28 670 CURVE SMOOTH",
"33 577 LINE SMOOTH",
"34 558 OFFCURVE",
"46 543 OFFCURVE",
"60 543 CURVE SMOOTH",
"74 543 OFFCURVE",
"86 558 OFFCURVE",
"87 577 CURVE SMOOTH",
"92 670 LINE SMOOTH",
"93 689 OFFCURVE",
"78 704 OFFCURVE",
"60 704 CURVE SMOOTH"
);
}
);
width = 120;
}
);
unicode = 0027;
},
{
glyphname = .notdef;
lastChange = "2014-09-27 15:23:54 +0000";
layers = (
{
layerId = "24C63A81-7FC6-4EE9-AF2B-C1140AFD6C4B";
paths = (
{
closed = 1;
nodes = (
"0 0 LINE",
"500 0 LINE",
"500 700 LINE",
"0 700 LINE"
);
},
{
closed = 1;
nodes = (
"250 395 LINE",
"80 650 LINE",
"420 650 LINE"
);
},
{
closed = 1;
nodes = (
"280 350 LINE",
"450 605 LINE",
"450 95 LINE"
);
},
{
closed = 1;
nodes = (
"80 50 LINE",
"250 305 LINE",
"420 50 LINE"
);
},
{
closed = 1;
nodes = (
"50 605 LINE",
"220 350 LINE",
"50 95 LINE"
);
}
);
width = 500;
}
);
},
{
glyphname = cent;
lastChange = "2019-01-05 20:55:31 +0000";
layers = (
{
layerId = "24C63A81-7FC6-4EE9-AF2B-C1140AFD6C4B";
paths = (
{
closed = 1;
nodes = (
"451 206 OFFCURVE",
"432 206 CURVE SMOOTH",
"408 206 OFFCURVE",
"384 182 OFFCURVE",
"339 177 CURVE",
"342 277 OFFCURVE",
"346 376 OFFCURVE",
"349 476 CURVE",
"372 469 OFFCURVE",
"390 465 OFFCURVE",
"402 465 CURVE SMOOTH",
"428 465 OFFCURVE",
"446 483 OFFCURVE",
"446 502 CURVE SMOOTH",
"446 533 OFFCURVE",
"395 550 OFFCURVE",
"351 560 CURVE",
"354 637 LINE SMOOTH",
"355 662 OFFCURVE",
"337 675 OFFCURVE",
"319 675 CURVE SMOOTH",
"302 675 OFFCURVE",
"284 663 OFFCURVE",
"284 637 CURVE SMOOTH",
"282 562 LINE",
"186 551 OFFCURVE",
"64 495 OFFCURVE",
"64 333 CURVE SMOOTH",
"64 205 OFFCURVE",
"141 106 OFFCURVE",
"266 90 CURVE",
"264 20 LINE SMOOTH",
"264 10 OFFCURVE",
"283 4 OFFCURVE",
"301 4 CURVE SMOOTH",
"318 4 OFFCURVE",
"334 9 OFFCURVE",
"334 20 CURVE SMOOTH",
"336 91 LINE",
"381 98 OFFCURVE",
"419 115 OFFCURVE",
"446 131 CURVE SMOOTH",
"460 140 OFFCURVE",
"468 153 OFFCURVE",
"468 168 CURVE SMOOTH",
"468 189 OFFCURVE"
);
},
{
closed = 1;
nodes = (
"152 420 OFFCURVE",
"225 465 OFFCURVE",
"279 475 CURVE",
"269 177 LINE",
"202 190 OFFCURVE",
"152 256 OFFCURVE",
"152 333 CURVE SMOOTH"
);
}
);
width = 600;
}
);
unicode = 00A2;
},
{
glyphname = currency;
lastChange = "2019-01-05 20:55:49 +0000";
layers = (
{
layerId = "24C63A81-7FC6-4EE9-AF2B-C1140AFD6C4B";
paths = (
{
closed = 1;
nodes = (
"516 590 OFFCURVE",
"490 590 OFFCURVE",
"475 575 CURVE SMOOTH",
"409 509 LINE",
"379 528 OFFCURVE",
"343 540 OFFCURVE",
"304 540 CURVE SMOOTH",
"265 540 OFFCURVE",
"229 528 OFFCURVE",
"199 509 CURVE",
"133 575 LINE SMOOTH",
"118 590 OFFCURVE",
"92 590 OFFCURVE",
"77 575 CURVE SMOOTH",
"61 559 OFFCURVE",
"61 534 OFFCURVE",
"77 518 CURVE SMOOTH",
"146 459 LINE",
"123 422 OFFCURVE",
"112 386 OFFCURVE",
"112 347 CURVE SMOOTH",
"112 309 OFFCURVE",
"123 273 OFFCURVE",
"143 243 CURVE",
"77 177 LINE SMOOTH",
"61 161 OFFCURVE",
"61 136 OFFCURVE",
"77 120 CURVE SMOOTH",
"92 105 OFFCURVE",
"119 104 OFFCURVE",
"133 120 CURVE",
"199 186 LINE",
"229 167 OFFCURVE",
"265 155 OFFCURVE",
"304 155 CURVE SMOOTH",
"343 155 OFFCURVE",
"379 167 OFFCURVE",
"409 186 CURVE",
"475 120 LINE SMOOTH",
"490 105 OFFCURVE",
"517 104 OFFCURVE",
"531 120 CURVE",
"547 136 OFFCURVE",
"547 161 OFFCURVE",
"531 177 CURVE SMOOTH",
"465 243 LINE",
"485 273 OFFCURVE",
"496 309 OFFCURVE",
"496 347 CURVE SMOOTH",
"496 386 OFFCURVE",
"485 422 OFFCURVE",
"465 452 CURVE",
"531 518 LINE SMOOTH",
"547 534 OFFCURVE",
"547 559 OFFCURVE",
"531 575 CURVE SMOOTH"
);
},
{
closed = 1;
nodes = (
"376 460 OFFCURVE",
"416 409 OFFCURVE",
"416 347 CURVE SMOOTH",
"416 286 OFFCURVE",
"376 235 OFFCURVE",
"304 235 CURVE SMOOTH",
"231 235 OFFCURVE",
"192 286 OFFCURVE",
"192 347 CURVE SMOOTH",
"192 409 OFFCURVE",
"231 460 OFFCURVE",
"304 460 CURVE SMOOTH"
);
}
);
width = 600;
}
);
unicode = 00A4;
},
{
glyphname = dollar;
lastChange = "2019-01-06 13:50:01 +0000";
layers = (
{
components = (
{
name = S;
}
);
layerId = "24C63A81-7FC6-4EE9-AF2B-C1140AFD6C4B";
paths = (
{
closed = 1;
nodes = (
"219 -20 LINE SMOOTH",
"219 -47 OFFCURVE",
"231 -60 OFFCURVE",
"247 -61 CURVE SMOOTH",
"262 -62 OFFCURVE",
"275 -51 OFFCURVE",
"276 -24 CURVE SMOOTH",
"299 741 LINE SMOOTH",
"299 768 OFFCURVE",
"288 779 OFFCURVE",
"272 780 CURVE SMOOTH",
"256 781 OFFCURVE",
"243 771 OFFCURVE",
"242 744 CURVE SMOOTH"
);
}
);
width = 514;
}
);
unicode = 0024;
},
{
glyphname = euro;
lastChange = "2019-01-05 20:57:41 +0000";
layers = (
{
layerId = "24C63A81-7FC6-4EE9-AF2B-C1140AFD6C4B";
paths = (
{
closed = 1;
nodes = (
"482 221 OFFCURVE",
"458 211 OFFCURVE",
"450 191 CURVE SMOOTH",
"423 125 OFFCURVE",
"374 85 OFFCURVE",
"303 85 CURVE SMOOTH",
"226 85 OFFCURVE",
"164 135 OFFCURVE",
"140 240 CURVE",
"271 243 OFFCURVE",
"351 248 OFFCURVE",
"368 248 CURVE SMOOTH",
"414 249 OFFCURVE",
"416 319 OFFCURVE",
"365 318 CURVE SMOOTH",
"348 318 OFFCURVE",
"266 312 OFFCURVE",
"130 309 CURVE",
"129 317 OFFCURVE",
"129 345 OFFCURVE",
"129 360 CURVE",
"274 362 OFFCURVE",
"371 368 OFFCURVE",
"388 368 CURVE SMOOTH",
"434 369 OFFCURVE",
"436 439 OFFCURVE",
"385 438 CURVE SMOOTH",
"368 438 OFFCURVE",
"276 432 OFFCURVE",
"137 429 CURVE",
"156 536 OFFCURVE",
"202 616 OFFCURVE",
"306 616 CURVE SMOOTH",
"374 616 OFFCURVE",
"422 584 OFFCURVE",
"445 529 CURVE",
"452 508 OFFCURVE",
"475 497 OFFCURVE",
"496 505 CURVE",
"517 512 OFFCURVE",
"527 535 OFFCURVE",
"520 556 CURVE SMOOTH",
"486 650 OFFCURVE",
"410 697 OFFCURVE",
"307 697 CURVE SMOOTH",
"159 697 OFFCURVE",
"77 602 OFFCURVE",
"55 428 CURVE",
"3 428 LINE SMOOTH",
"-47 428 OFFCURVE",
"-48 358 OFFCURVE",
"5 358 CURVE SMOOTH",
"20 358 OFFCURVE",
"35 358 OFFCURVE",
"50 358 CURVE",
"50 349 OFFCURVE",
"50 320 OFFCURVE",
"51 308 CURVE",
"3 308 LINE SMOOTH",
"-47 308 OFFCURVE",
"-48 238 OFFCURVE",
"5 238 CURVE SMOOTH",
"59 238 LINE",
"87 82 OFFCURVE",
"182 3 OFFCURVE",
"297 3 CURVE SMOOTH",
"389 3 OFFCURVE",
"480 50 OFFCURVE",
"524 161 CURVE SMOOTH",
"533 182 OFFCURVE",
"523 205 OFFCURVE",
"502 213 CURVE SMOOTH"
);
}
);
width = 600;
}
);
unicode = 20AC;
},
{
glyphname = sterling;
lastChange = "2014-09-27 15:23:54 +0000";
layers = (
{
layerId = "24C63A81-7FC6-4EE9-AF2B-C1140AFD6C4B";
paths = (
{
closed = 1;
nodes = (
"537 216 OFFCURVE",
"512 249 OFFCURVE",
"451 239 CURVE SMOOTH",
"430 235 OFFCURVE",
"415 214 OFFCURVE",
"419 192 CURVE SMOOTH",
"424 158 OFFCURVE",
"459 160 OFFCURVE",
"475 160 CURVE",
"475 153 OFFCURVE",
"472 138 OFFCURVE",
"460 126 CURVE",
"421 79 OFFCURVE",
"364 73 OFFCURVE",
"330 82 CURVE SMOOTH",
"313 87 OFFCURVE",
"295 96 OFFCURVE",
"276 107 CURVE SMOOTH",
"247 123 OFFCURVE",
"214 141 OFFCURVE",
"175 143 CURVE",
"190 168 OFFCURVE",
"204 193 OFFCURVE",
"215 220 CURVE SMOOTH",
"224 243 OFFCURVE",
"230 265 OFFCURVE",
"233 285 CURVE",
"306 289 LINE SMOOTH",
"328 290 OFFCURVE",
"346 307 OFFCURVE",
"346 329 CURVE SMOOTH",
"346 351 OFFCURVE",
"328 370 OFFCURVE",
"306 369 CURVE SMOOTH",
"232 365 LINE",
"214 459 OFFCURVE",
"148 517 OFFCURVE",
"184 577 CURVE SMOOTH",
"202 606 OFFCURVE",
"243 624 OFFCURVE",
"280 621 CURVE SMOOTH",
"298 619 OFFCURVE",
"322 611 OFFCURVE",
"333 583 CURVE SMOOTH",
"341 563 OFFCURVE",
"364 553 OFFCURVE",
"385 561 CURVE SMOOTH",
"405 569 OFFCURVE",
"415 592 OFFCURVE",
"407 613 CURVE SMOOTH",
"388 663 OFFCURVE",
"344 695 OFFCURVE",
"287 700 CURVE SMOOTH",
"222 706 OFFCURVE",
"152 675 OFFCURVE",
"116 619 CURVE SMOOTH",
"53 516 OFFCURVE",
"132 452 OFFCURVE",
"152 361 CURVE",
"102 359 LINE SMOOTH",
"80 358 OFFCURVE",
"62 341 OFFCURVE",
"62 319 CURVE SMOOTH",
"62 297 OFFCURVE",
"80 278 OFFCURVE",
"102 279 CURVE SMOOTH",
"152 281 LINE",
"149 272 OFFCURVE",
"146 262 OFFCURVE",
"142 251 CURVE",
"118 195 OFFCURVE",
"78 142 OFFCURVE",
"39 92 CURVE SMOOTH",
"28 78 OFFCURVE",
"27 58 OFFCURVE",
"38 44 CURVE",
"48 29 OFFCURVE",
"67 23 OFFCURVE",
"84 30 CURVE SMOOTH",
"164 62 OFFCURVE",
"162 81 OFFCURVE",
"236 37 CURVE",
"281 14 OFFCURVE",
"303 0 OFFCURVE",
"350 0 CURVE SMOOTH",
"408 0 OFFCURVE",
"480 24 OFFCURVE",
"520 73 CURVE",
"554 111 OFFCURVE",
"567 163 OFFCURVE",
"545 201 CURVE SMOOTH"
);
}
);
width = 570;
}
);
unicode = 00A3;
},
{
glyphname = yen;
lastChange = "2019-01-05 20:58:27 +0000";
layers = (
{
layerId = "24C63A81-7FC6-4EE9-AF2B-C1140AFD6C4B";
paths = (
{
closed = 1;
nodes = (
"525 710 OFFCURVE",
"500 705 OFFCURVE",
"488 686 CURVE SMOOTH",
"291 389 LINE",
"112 683 LINE SMOOTH",
"101 702 OFFCURVE",
"76 708 OFFCURVE",
"57 696 CURVE",
"38 685 OFFCURVE",
"33 660 OFFCURVE",
"44 642 CURVE SMOOTH",
"171 434 LINE",
"90 431 LINE SMOOTH",
"68 430 OFFCURVE",
"50 413 OFFCURVE",
"50 391 CURVE SMOOTH",
"50 369 OFFCURVE",
"68 350 OFFCURVE",
"90 351 CURVE SMOOTH",
"139 353 OFFCURVE",
"200 356 OFFCURVE",
"218 356 CURVE",
"250 304 LINE",
"250 259 LINE",
"116 255 LINE SMOOTH",
"94 254 OFFCURVE",
"76 237 OFFCURVE",
"76 215 CURVE SMOOTH",
"76 193 OFFCURVE",
"94 174 OFFCURVE",
"116 175 CURVE SMOOTH",
"250 179 LINE",
"250 40 LINE SMOOTH",
"250 18 OFFCURVE",
"268 0 OFFCURVE",
"290 0 CURVE SMOOTH",
"312 0 OFFCURVE",
"330 18 OFFCURVE",
"330 40 CURVE SMOOTH",
"330 181 LINE",
"462 185 LINE SMOOTH",
"484 186 OFFCURVE",
"502 203 OFFCURVE",
"502 225 CURVE SMOOTH",
"502 247 OFFCURVE",
"484 266 OFFCURVE",
"462 265 CURVE SMOOTH",
"330 261 LINE",
"330 302 LINE",
"369 362 LINE",
"482 371 LINE SMOOTH",
"504 373 OFFCURVE",
"522 389 OFFCURVE",
"522 411 CURVE SMOOTH",
"522 433 OFFCURVE",
"504 453 OFFCURVE",
"482 451 CURVE SMOOTH",
"425 446 LINE",
"554 642 LINE SMOOTH",
"567 661 OFFCURVE",
"561 686 OFFCURVE",
"543 698 CURVE SMOOTH"
);
}
);
width = 600;
}
);
unicode = 00A5;
},
{
glyphname = plus;
lastChange = "2014-09-27 15:23:54 +0000";
layers = (
{
layerId = "24C63A81-7FC6-4EE9-AF2B-C1140AFD6C4B";
paths = (
{
closed = 1;
nodes = (
"511 320 OFFCURVE",
"517 312 OFFCURVE",
"338 311 CURVE",
"344 476 LINE SMOOTH",
"345 498 OFFCURVE",
"327 517 OFFCURVE",
"305 517 CURVE",
"283 518 OFFCURVE",
"265 501 OFFCURVE",
"264 479 CURVE SMOOTH",
"258 311 LINE",
"73 312 OFFCURVE",
"75 312 OFFCURVE",
"76 264 CURVE SMOOTH",
"77 234 OFFCURVE",
"74 235 OFFCURVE",
"255 235 CURVE",
"249 84 LINE SMOOTH",
"248 62 OFFCURVE",
"265 44 OFFCURVE",
"287 43 CURVE",
"289 43 LINE SMOOTH",
"310 43 OFFCURVE",
"328 60 OFFCURVE",
"329 81 CURVE SMOOTH",
"335 235 LINE",
"511 234 OFFCURVE",
"515 226 OFFCURVE",
"513 271 CURVE SMOOTH"
);
}
);
width = 600;
}
);
unicode = 002B;
},
{
glyphname = minus;
lastChange = "2014-09-27 15:23:54 +0000";
layers = (
{
layerId = "24C63A81-7FC6-4EE9-AF2B-C1140AFD6C4B";
paths = (
{
closed = 1;
nodes = (
"106 297 LINE SMOOTH",
"84 296 OFFCURVE",
"66 279 OFFCURVE",
"66 257 CURVE SMOOTH",
"66 235 OFFCURVE",
"84 217 OFFCURVE",
"106 217 CURVE SMOOTH",
"497 228 LINE SMOOTH",
"519 229 OFFCURVE",
"537 246 OFFCURVE",
"536 268 CURVE",
"536 290 OFFCURVE",
"519 308 OFFCURVE",
"496 308 CURVE SMOOTH"
);
}
);
width = 600;
}
);
unicode = 2212;
},
{
glyphname = multiply;
lastChange = "2014-11-05 20:01:03 +0000";
layers = (
{
layerId = "24C63A81-7FC6-4EE9-AF2B-C1140AFD6C4B";
paths = (
{
closed = 1;
nodes = (
"61 461 OFFCURVE",
"60 436 OFFCURVE",
"75 420 CURVE SMOOTH",
"241 240 LINE",
"73 72 LINE SMOOTH",
"57 56 OFFCURVE",
"57 31 OFFCURVE",
"73 15 CURVE SMOOTH",
"90 -2 OFFCURVE",
"112 -2 OFFCURVE",
"129 15 CURVE SMOOTH",
"296 181 LINE",
"453 5 LINE",
"468 -10 OFFCURVE",
"494 -11 OFFCURVE",
"510 3 CURVE SMOOTH",
"526 18 OFFCURVE",
"527 44 OFFCURVE",
"512 60 CURVE SMOOTH",
"348 233 LINE",
"520 405 LINE SMOOTH",
"535 420 OFFCURVE",
"535 446 OFFCURVE",
"519 461 CURVE",
"504 477 OFFCURVE",
"479 477 OFFCURVE",
"463 461 CURVE SMOOTH",
"293 291 LINE",
"133 475 LINE SMOOTH",
"118 493 OFFCURVE",
"93 492 OFFCURVE",
"77 476 CURVE SMOOTH"
);
}
);
width = 600;
}
);
unicode = 00D7;
},
{
glyphname = divide;
lastChange = "2014-09-27 15:23:54 +0000";
layers = (
{
layerId = "24C63A81-7FC6-4EE9-AF2B-C1140AFD6C4B";
paths = (
{
closed = 1;
nodes = (
"250 544 OFFCURVE",
"222 516 OFFCURVE",
"222 482 CURVE SMOOTH",
"222 448 OFFCURVE",
"250 420 OFFCURVE",
"284 420 CURVE SMOOTH",
"318 420 OFFCURVE",
"346 448 OFFCURVE",
"346 482 CURVE SMOOTH",
"346 516 OFFCURVE",
"318 544 OFFCURVE",
"284 544 CURVE SMOOTH"
);
},
{
closed = 1;
nodes = (
"71 348 OFFCURVE",
"74 354 OFFCURVE",
"75 301 CURVE SMOOTH",
"76 267 OFFCURVE",
"72 273 OFFCURVE",
"327 272 CURVE SMOOTH",
"510 271 OFFCURVE",
"514 262 OFFCURVE",
"512 308 CURVE SMOOTH",
"510 359 OFFCURVE",
"516 348 OFFCURVE",
"314 348 CURVE SMOOTH"
);
},
{
closed = 1;
nodes = (
"260 208 OFFCURVE",
"232 180 OFFCURVE",
"232 146 CURVE SMOOTH",
"232 112 OFFCURVE",
"260 84 OFFCURVE",
"294 84 CURVE SMOOTH",
"328 84 OFFCURVE",
"356 112 OFFCURVE",
"356 146 CURVE SMOOTH",
"356 180 OFFCURVE",
"328 208 OFFCURVE",
"294 208 CURVE SMOOTH"
);
}
);
width = 578;
}
);
unicode = 00F7;
},
{
glyphname = equal;
lastChange = "2019-01-05 20:59:01 +0000";
layers = (
{
layerId = "24C63A81-7FC6-4EE9-AF2B-C1140AFD6C4B";
paths = (
{
closed = 1;
nodes = (
"536 374 OFFCURVE",
"518 391 OFFCURVE",
"490 390 CURVE SMOOTH",
"93 379 LINE SMOOTH",
"71 378 OFFCURVE",
"53 361 OFFCURVE",
"53 339 CURVE SMOOTH",
"53 317 OFFCURVE",
"71 299 OFFCURVE",
"93 299 CURVE SMOOTH",
"494 310 LINE SMOOTH",
"526 311 OFFCURVE",
"536 330 OFFCURVE",
"536 350 CURVE SMOOTH"
);
},
{
closed = 1;
nodes = (
"93 229 LINE SMOOTH",
"71 228 OFFCURVE",
"53 211 OFFCURVE",
"53 189 CURVE SMOOTH",
"53 167 OFFCURVE",
"71 149 OFFCURVE",
"93 149 CURVE SMOOTH",
"494 160 LINE SMOOTH",
"516 161 OFFCURVE",
"534 178 OFFCURVE",
"534 200 CURVE SMOOTH",
"534 222 OFFCURVE",
"516 241 OFFCURVE",
"494 240 CURVE SMOOTH"
);
}
);
width = 600;
}
);
unicode = 003D;
},
{
glyphname = less;
lastChange = "2019-01-06 14:25:59 +0000";
layers = (
{
layerId = "24C63A81-7FC6-4EE9-AF2B-C1140AFD6C4B";
paths = (
{
closed = 1;
nodes = (
"374 103 OFFCURVE",
"360 125 OFFCURVE",
"341 137 CURVE SMOOTH",
"321 150 OFFCURVE",
"291 167 OFFCURVE",
"247 189 CURVE SMOOTH",
"230 196 OFFCURVE",
"164 236 OFFCURVE",
"126 253 CURVE",
"170 274 OFFCURVE",
"305 346 OFFCURVE",
"341 373 CURVE SMOOTH",
"359 387 OFFCURVE",
"374 401 OFFCURVE",
"369 421 CURVE SMOOTH",
"363 443 OFFCURVE",
"341 451 OFFCURVE",
"319 449 CURVE SMOOTH",
"290 446 OFFCURVE",
"140 348 OFFCURVE",
"108 329 CURVE SMOOTH",
"68 305 OFFCURVE",
"28 284 OFFCURVE",
"28 251 CURVE SMOOTH",
"28 236 OFFCURVE",
"37 220 OFFCURVE",
"49 211 CURVE SMOOTH",
"77 191 OFFCURVE",
"291 67 OFFCURVE",
"316 56 CURVE SMOOTH",
"338 46 OFFCURVE",
"359 61 OFFCURVE",
"366 80 CURVE SMOOTH"
);
}
);
width = 398;
}
);
unicode = 003C;
},
{
glyphname = plusminus;
lastChange = "2014-09-27 15:23:54 +0000";
layers = (
{
layerId = "24C63A81-7FC6-4EE9-AF2B-C1140AFD6C4B";
paths = (
{
closed = 1;
nodes = (
"255 247 LINE SMOOTH",
"255 225 OFFCURVE",
"271 207 OFFCURVE",
"293 206 CURVE",
"295 206 LINE SMOOTH",
"316 206 OFFCURVE",
"335 223 OFFCURVE",
"335 244 CURVE SMOOTH",
"335 315 LINE",
"492 320 OFFCURVE",
"516 321 OFFCURVE",
"513 356 CURVE SMOOTH",
"510 395 OFFCURVE",
"498 397 OFFCURVE",
"336 392 CURVE",
"336 466 LINE SMOOTH",
"336 488 OFFCURVE",
"319 507 OFFCURVE",
"297 507 CURVE",
"275 508 OFFCURVE",
"256 491 OFFCURVE",
"256 469 CURVE SMOOTH",
"256 389 LINE",
"97 386 OFFCURVE",
"75 392 OFFCURVE",
"76 344 CURVE SMOOTH",
"77 313 OFFCURVE",
"90 309 OFFCURVE",
"255 313 CURVE"
);
},
{
closed = 1;
nodes = (
"517 168 OFFCURVE",
"523 157 OFFCURVE",
"321 157 CURVE SMOOTH",
"78 157 OFFCURVE",
"81 163 OFFCURVE",
"82 110 CURVE SMOOTH",
"83 76 OFFCURVE",
"79 82 OFFCURVE",
"334 81 CURVE SMOOTH",
"517 80 OFFCURVE",
"521 71 OFFCURVE",
"519 117 CURVE SMOOTH"
);
}
);
width = 600;
}
);
unicode = 00B1;
},
{
glyphname = asciicircum;
lastChange = "2019-01-06 13:16:47 +0000";
layers = (
{
layerId = "24C63A81-7FC6-4EE9-AF2B-C1140AFD6C4B";
paths = (
{
closed = 1;
nodes = (
"293 731 OFFCURVE",
"285 723 OFFCURVE",
"277 713 CURVE SMOOTH",
"89 499 LINE SMOOTH",
"75 484 OFFCURVE",
"75 458 OFFCURVE",
"90 445 CURVE SMOOTH",
"105 433 OFFCURVE",
"128 439 OFFCURVE",
"142 455 CURVE SMOOTH",
"302 637 LINE",
"456 456 LINE SMOOTH",
"469 442 OFFCURVE",
"484 435 OFFCURVE",
"505 449 CURVE SMOOTH",
"520 459 OFFCURVE",
"525 481 OFFCURVE",
"511 498 CURVE SMOOTH",
"331 712 LINE SMOOTH",
"322 722 OFFCURVE",
"315 730 OFFCURVE",
"304 731 CURVE"
);
}
);
width = 600;
}
);
unicode = 005E;
},
{
glyphname = percent;
lastChange = "2014-09-27 15:23:54 +0000";
layers = (
{
layerId = "24C63A81-7FC6-4EE9-AF2B-C1140AFD6C4B";
paths = (
{
closed = 1;
nodes = (
"630 697 OFFCURVE",
"605 694 OFFCURVE",
"591 677 CURVE SMOOTH",
"116 73 LINE SMOOTH",
"103 56 OFFCURVE",
"106 31 OFFCURVE",
"123 17 CURVE SMOOTH",
"130 11 OFFCURVE",
"139 8 OFFCURVE",
"148 8 CURVE SMOOTH",
"160 8 OFFCURVE",
"171 14 OFFCURVE",
"179 24 CURVE SMOOTH",
"654 627 LINE SMOOTH",
"668 645 OFFCURVE",
"664 670 OFFCURVE",
"647 684 CURVE"
);
},
{
closed = 1;
nodes = (
"110 692 OFFCURVE",
"40 622 OFFCURVE",
"40 536 CURVE SMOOTH",
"40 450 OFFCURVE",
"110 380 OFFCURVE",
"196 380 CURVE SMOOTH",
"282 380 OFFCURVE",
"352 460 OFFCURVE",
"352 546 CURVE SMOOTH",
"352 632 OFFCURVE",
"282 692 OFFCURVE",
"196 692 CURVE SMOOTH"
);
},
{
closed = 1;
nodes = (
"238 612 OFFCURVE",
"272 588 OFFCURVE",
"272 546 CURVE SMOOTH",
"272 504 OFFCURVE",
"238 460 OFFCURVE",
"196 460 CURVE SMOOTH",
"154 460 OFFCURVE",
"120 494 OFFCURVE",
"120 536 CURVE SMOOTH",
"120 578 OFFCURVE",
"154 612 OFFCURVE",
"196 612 CURVE SMOOTH"
);
},
{
closed = 1;
nodes = (
"477 325 OFFCURVE",
"407 245 OFFCURVE",
"407 159 CURVE SMOOTH",
"407 73 OFFCURVE",
"477 13 OFFCURVE",
"563 13 CURVE SMOOTH",
"649 13 OFFCURVE",
"719 83 OFFCURVE",
"719 169 CURVE SMOOTH",
"719 255 OFFCURVE",
"649 325 OFFCURVE",
"563 325 CURVE SMOOTH"
);
},
{
closed = 1;
nodes = (
"605 245 OFFCURVE",
"639 211 OFFCURVE",
"639 169 CURVE SMOOTH",
"639 127 OFFCURVE",
"605 93 OFFCURVE",
"563 93 CURVE SMOOTH",
"521 93 OFFCURVE",
"487 117 OFFCURVE",
"487 159 CURVE SMOOTH",
"487 201 OFFCURVE",
"521 245 OFFCURVE",
"563 245 CURVE SMOOTH"
);
}
);
width = 759;
}
);
unicode = 0025;
},
{
glyphname = perthousand;
lastChange = "2014-09-27 15:23:54 +0000";
layers = (
{
layerId = "24C63A81-7FC6-4EE9-AF2B-C1140AFD6C4B";
paths = (
{
closed = 1;
nodes = (
"110 702 OFFCURVE",
"40 632 OFFCURVE",
"40 546 CURVE SMOOTH",
"40 460 OFFCURVE",
"110 390 OFFCURVE",
"196 390 CURVE SMOOTH",
"282 390 OFFCURVE",
"352 450 OFFCURVE",
"352 536 CURVE SMOOTH",
"352 622 OFFCURVE",
"282 702 OFFCURVE",
"196 702 CURVE SMOOTH"
);
},
{
closed = 1;
nodes = (
"630 697 OFFCURVE",
"605 694 OFFCURVE",
"591 677 CURVE SMOOTH",
"116 73 LINE SMOOTH",
"103 56 OFFCURVE",
"106 31 OFFCURVE",
"123 17 CURVE SMOOTH",
"130 11 OFFCURVE",
"139 8 OFFCURVE",
"148 8 CURVE SMOOTH",
"160 8 OFFCURVE",
"171 14 OFFCURVE",
"179 24 CURVE SMOOTH",
"654 627 LINE SMOOTH",
"668 645 OFFCURVE",
"664 670 OFFCURVE",
"647 684 CURVE"
);
},
{
closed = 1;
nodes = (
"238 622 OFFCURVE",
"272 578 OFFCURVE",
"272 536 CURVE SMOOTH",
"272 494 OFFCURVE",
"238 470 OFFCURVE",
"196 470 CURVE SMOOTH",
"154 470 OFFCURVE",
"120 504 OFFCURVE",
"120 546 CURVE SMOOTH",
"120 588 OFFCURVE",
"154 622 OFFCURVE",
"196 622 CURVE SMOOTH"
);
},
{
closed = 1;
nodes = (
"851 323 OFFCURVE",
"781 255 OFFCURVE",
"781 169 CURVE SMOOTH",
"781 83 OFFCURVE",
"851 13 OFFCURVE",
"937 13 CURVE SMOOTH",
"1023 13 OFFCURVE",
"1093 85 OFFCURVE",
"1093 171 CURVE SMOOTH",
"1093 257 OFFCURVE",
"1023 327 OFFCURVE",
"937 325 CURVE SMOOTH"
);
},
{
closed = 1;
nodes = (
"477 325 OFFCURVE",
"407 259 OFFCURVE",
"407 173 CURVE SMOOTH",
"407 87 OFFCURVE",
"477 13 OFFCURVE",
"563 13 CURVE SMOOTH",
"649 13 OFFCURVE",
"719 83 OFFCURVE",
"719 169 CURVE SMOOTH",
"719 255 OFFCURVE",
"649 325 OFFCURVE",
"563 325 CURVE SMOOTH"
);
},
{
closed = 1;
nodes = (
"605 245 OFFCURVE",
"639 211 OFFCURVE",
"639 169 CURVE SMOOTH",
"639 127 OFFCURVE",
"605 93 OFFCURVE",
"563 93 CURVE SMOOTH",
"521 93 OFFCURVE",
"487 131 OFFCURVE",
"487 173 CURVE SMOOTH",
"487 215 OFFCURVE",
"521 245 OFFCURVE",
"563 245 CURVE SMOOTH"
);
},
{
closed = 1;
nodes = (
"979 245 OFFCURVE",
"1013 213 OFFCURVE",
"1013 171 CURVE SMOOTH",
"1013 129 OFFCURVE",
"979 93 OFFCURVE",
"937 93 CURVE SMOOTH",
"895 93 OFFCURVE",
"861 127 OFFCURVE",
"861 169 CURVE SMOOTH",
"861 211 OFFCURVE",
"895 245 OFFCURVE",
"937 245 CURVE SMOOTH"
);
}
);
width = 1133;
}
);
unicode = 2030;
},
{
glyphname = apple;
lastChange = "2019-05-11 15:19:05 +0000";
layers = (
{
layerId = "24C63A81-7FC6-4EE9-AF2B-C1140AFD6C4B";
paths = (
{
closed = 1;
nodes = (
"171 781 OFFCURVE",
"148 746 OFFCURVE",
"148 729 CURVE SMOOTH",
"148 725 OFFCURVE",
"150 721 OFFCURVE",
"153 721 CURVE SMOOTH",
"172 721 OFFCURVE",
"171 751 OFFCURVE",
"197 751 CURVE",
"180 736 OFFCURVE",
"170 714 OFFCURVE",
"170 690 CURVE SMOOTH",
"170 681 LINE",
"173 657 OFFCURVE",
"186 634 OFFCURVE",
"205 615 CURVE",
"246 628 OFFCURVE",
"295 686 OFFCURVE",
"295 712 CURVE SMOOTH",
"295 718 OFFCURVE",
"294 723 OFFCURVE",
"289 726 CURVE SMOOTH",
"279 732 OFFCURVE",
"278 745 OFFCURVE",
"266 760 CURVE",
"253 775 OFFCURVE",
"222 781 OFFCURVE",
"211 781 CURVE SMOOTH"
);
},
{
closed = 1;
nodes = (
"211 736 OFFCURVE",
"218 730 OFFCURVE",
"217 728 CURVE SMOOTH",
"213 719 OFFCURVE",
"200 716 OFFCURVE",
"196 716 CURVE",
"196 723 OFFCURVE",
"199 736 OFFCURVE",
"206 736 CURVE SMOOTH"
);
},
{
closed = 1;
nodes = (
"260 730 OFFCURVE",
"265 722 OFFCURVE",
"265 717 CURVE SMOOTH",
"265 710 OFFCURVE",
"257 702 OFFCURVE",
"250 702 CURVE SMOOTH",
"246 702 OFFCURVE",
"245 706 OFFCURVE",
"245 710 CURVE SMOOTH",
"245 718 OFFCURVE",
"249 730 OFFCURVE",
"255 730 CURVE SMOOTH"
);
},
{
closed = 1;
nodes = (
"854 617 OFFCURVE",
"772 683 OFFCURVE",
"725 683 CURVE SMOOTH",
"651 683 OFFCURVE",
"599 590 OFFCURVE",
"599 559 CURVE SMOOTH",
"599 534 OFFCURVE",
"657 501 OFFCURVE",
"721 501 CURVE SMOOTH",
"767 501 OFFCURVE",
"854 555 OFFCURVE",
"854 587 CURVE SMOOTH"
);
},
{
closed = 1;
nodes = (
"714 648 OFFCURVE",
"712 646 OFFCURVE",
"709 644 CURVE",
"725 643 OFFCURVE",
"732 633 OFFCURVE",
"732 626 CURVE SMOOTH",
"732 621 OFFCURVE",
"729 618 OFFCURVE",
"724 618 CURVE SMOOTH",
"719 618 OFFCURVE",
"710 622 OFFCURVE",
"699 633 CURVE",
"688 619 OFFCURVE",
"682 602 OFFCURVE",
"682 583 CURVE SMOOTH",
"682 560 OFFCURVE",
"692 539 OFFCURVE",
"707 524 CURVE",
"654 524 OFFCURVE",
"632 545 OFFCURVE",
"632 572 CURVE SMOOTH",
"632 610 OFFCURVE",
"670 655 OFFCURVE",
"716 650 CURVE"
);
},
{
closed = 1;
nodes = (
"71 468 OFFCURVE",
"28 428 OFFCURVE",
"28 392 CURVE SMOOTH",
"28 371 OFFCURVE",
"42 351 OFFCURVE",
"75 341 CURVE SMOOTH",
"82 339 OFFCURVE",
"84 337 OFFCURVE",
"84 335 CURVE SMOOTH",
"84 336 OFFCURVE",
"83 328 OFFCURVE",
"69 328 CURVE SMOOTH",
"59 328 OFFCURVE",
"46 334 OFFCURVE",
"42 334 CURVE SMOOTH",
"21 334 OFFCURVE",
"76 232 OFFCURVE",
"131 232 CURVE SMOOTH",
"196 232 OFFCURVE",
"282 335 OFFCURVE",
"282 395 CURVE SMOOTH",
"282 452 OFFCURVE",
"225 468 OFFCURVE",
"135 468 CURVE SMOOTH"
);
},
{
closed = 1;
nodes = (
"287 42 OFFCURVE",
"109 154 OFFCURVE",
"65 154 CURVE SMOOTH",
"52 154 OFFCURVE",
"45 149 OFFCURVE",
"45 139 CURVE SMOOTH",
"45 79 OFFCURVE",
"236 30 OFFCURVE",
"357 30 CURVE SMOOTH",
"411 30 OFFCURVE",
"582 46 OFFCURVE",
"582 83 CURVE SMOOTH",
"582 91 OFFCURVE",
"573 97 OFFCURVE",
"555 97 CURVE SMOOTH",
"495 97 OFFCURVE",
"426 42 OFFCURVE",
"361 42 CURVE SMOOTH"
);
}
);
width = 877;
},
{
associatedMasterId = "24C63A81-7FC6-4EE9-AF2B-C1140AFD6C4B";
layerId = "9738CA6C-9614-45EC-8EFC-EBFBBCEC125F";
name = "May 11 19, 16:53";
paths = (
{
closed = 1;
nodes = (
"171 781 OFFCURVE",
"148 746 OFFCURVE",
"148 729 CURVE SMOOTH",
"148 725 OFFCURVE",
"150 721 OFFCURVE",
"153 721 CURVE SMOOTH",
"172 721 OFFCURVE",
"171 751 OFFCURVE",
"197 751 CURVE",
"180 736 OFFCURVE",
"170 714 OFFCURVE",
"170 690 CURVE SMOOTH",
"170 681 LINE",
"173 657 OFFCURVE",
"186 634 OFFCURVE",
"205 615 CURVE",
"246 628 OFFCURVE",
"295 686 OFFCURVE",
"295 712 CURVE SMOOTH",
"295 718 OFFCURVE",
"294 723 OFFCURVE",
"289 726 CURVE SMOOTH",
"279 732 OFFCURVE",
"278 745 OFFCURVE",
"266 760 CURVE",
"253 775 OFFCURVE",
"222 781 OFFCURVE",
"211 781 CURVE SMOOTH"
);
},
{
closed = 1;
nodes = (
"211 736 OFFCURVE",
"218 730 OFFCURVE",
"217 728 CURVE SMOOTH",
"213 719 OFFCURVE",
"200 716 OFFCURVE",
"196 716 CURVE",
"196 723 OFFCURVE",
"199 736 OFFCURVE",
"206 736 CURVE SMOOTH"
);
},
{
closed = 1;
nodes = (
"265 722 OFFCURVE",
"265 717 CURVE SMOOTH",
"265 710 OFFCURVE",
"257 702 OFFCURVE",
"250 702 CURVE SMOOTH",
"246 702 OFFCURVE",
"245 706 OFFCURVE",
"245 710 CURVE SMOOTH",
"245 718 OFFCURVE",
"249 730 OFFCURVE",
"255 730 CURVE SMOOTH",
"260 730 OFFCURVE"
);
},
{
closed = 1;
nodes = (
"772 683 OFFCURVE",
"725 683 CURVE SMOOTH",
"668 683 OFFCURVE",
"621 629 OFFCURVE",
"584 592 CURVE",
"580 588 OFFCURVE",
"579 584 OFFCURVE",
"579 579 CURVE SMOOTH",
"579 567 OFFCURVE",
"587 554 OFFCURVE",
"590 548 CURVE SMOOTH",
"592 545 OFFCURVE",
"593 541 OFFCURVE",
"593 539 CURVE SMOOTH",
"593 536 OFFCURVE",
"592 534 OFFCURVE",
"592 532 CURVE SMOOTH",
"592 532 OFFCURVE",
"592 531 OFFCURVE",
"592 531 CURVE",
"595 529 OFFCURVE",
"614 527 OFFCURVE",
"638 517 CURVE",
"671 506 OFFCURVE",
"698 501 OFFCURVE",
"721 501 CURVE SMOOTH",
"767 501 OFFCURVE",
"854 554 OFFCURVE",
"854 587 CURVE",
"865 617 OFFCURVE"
);
},
{
closed = 1;
nodes = (
"714 648 OFFCURVE",
"712 646 OFFCURVE",
"709 644 CURVE",
"725 643 OFFCURVE",
"732 633 OFFCURVE",
"732 626 CURVE SMOOTH",
"732 621 OFFCURVE",
"729 618 OFFCURVE",
"724 618 CURVE SMOOTH",
"719 618 OFFCURVE",
"710 622 OFFCURVE",
"699 633 CURVE",
"688 619 OFFCURVE",
"682 602 OFFCURVE",
"682 583 CURVE SMOOTH",
"682 560 OFFCURVE",
"692 539 OFFCURVE",
"707 524 CURVE",
"654 524 OFFCURVE",
"632 545 OFFCURVE",
"632 572 CURVE SMOOTH",
"632 577 OFFCURVE",
"633 582 OFFCURVE",
"634 587 CURVE",
"643 613 OFFCURVE",
"667 655 OFFCURVE",
"716 650 CURVE"
);
},
{
closed = 1;
nodes = (
"71 468 OFFCURVE",
"28 428 OFFCURVE",
"28 392 CURVE SMOOTH",
"28 371 OFFCURVE",
"42 351 OFFCURVE",
"75 341 CURVE SMOOTH",
"82 339 OFFCURVE",
"84 337 OFFCURVE",
"84 335 CURVE SMOOTH",
"84 336 OFFCURVE",
"83 328 OFFCURVE",
"69 328 CURVE SMOOTH",
"59 328 OFFCURVE",
"46 334 OFFCURVE",
"42 334 CURVE SMOOTH",
"21 334 OFFCURVE",
"76 232 OFFCURVE",
"131 232 CURVE SMOOTH",
"196 232 OFFCURVE",
"282 335 OFFCURVE",
"282 395 CURVE SMOOTH",
"282 452 OFFCURVE",
"225 468 OFFCURVE",
"135 468 CURVE SMOOTH"
);
},
{
closed = 1;
nodes = (
"109 154 OFFCURVE",
"65 154 CURVE SMOOTH",
"52 154 OFFCURVE",
"45 149 OFFCURVE",
"45 139 CURVE SMOOTH",
"45 79 OFFCURVE",
"236 30 OFFCURVE",
"357 30 CURVE SMOOTH",
"411 30 OFFCURVE",
"582 46 OFFCURVE",
"582 83 CURVE SMOOTH",
"582 91 OFFCURVE",
"573 97 OFFCURVE",
"555 97 CURVE SMOOTH",
"495 97 OFFCURVE",
"426 42 OFFCURVE",
"361 42 CURVE SMOOTH",
"287 42 OFFCURVE"
);
}
);
width = 877;
}
);
unicode = F8FF;
},
{
glyphname = at;
lastChange = "2014-09-27 15:23:54 +0000";
layers = (
{
layerId = "24C63A81-7FC6-4EE9-AF2B-C1140AFD6C4B";
paths = (
{
closed = 1;
nodes = (
"162 644 OFFCURVE",
"20 469 OFFCURVE",
"20 292 CURVE SMOOTH",
"20 63 OFFCURVE",
"213 -60 OFFCURVE",
"372 -60 CURVE SMOOTH",
"427 -60 OFFCURVE",
"480 -48 OFFCURVE",
"529 -23 CURVE SMOOTH",
"549 -13 OFFCURVE",
"557 11 OFFCURVE",
"547 31 CURVE SMOOTH",
"537 51 OFFCURVE",
"513 59 OFFCURVE",
"494 49 CURVE SMOOTH",
"456 30 OFFCURVE",
"415 20 OFFCURVE",
"372 20 CURVE SMOOTH",
"219 20 OFFCURVE",
"100 145 OFFCURVE",
"100 292 CURVE SMOOTH",
"100 445 OFFCURVE",
"225 564 OFFCURVE",
"372 564 CURVE SMOOTH",
"521 564 OFFCURVE",
"644 441 OFFCURVE",
"644 292 CURVE SMOOTH",
"644 224 OFFCURVE",
"582 158 OFFCURVE",
"549 180 CURVE",
"510 209 OFFCURVE",
"513 312 OFFCURVE",
"528 403 CURVE SMOOTH",
"532 425 OFFCURVE",
"517 445 OFFCURVE",
"495 449 CURVE",
"484 450 OFFCURVE",
"474 448 OFFCURVE",
"466 442 CURVE",
"462 444 OFFCURVE",
"430 458 OFFCURVE",
"378 454 CURVE SMOOTH",
"246 445 OFFCURVE",
"180 354 OFFCURVE",
"195 247 CURVE SMOOTH",
"206 168 OFFCURVE",
"271 136 OFFCURVE",
"328 136 CURVE SMOOTH",
"375 136 OFFCURVE",
"419 144 OFFCURVE",
"457 174 CURVE",
"467 150 OFFCURVE",
"482 131 OFFCURVE",
"502 116 CURVE SMOOTH",
"595 48 OFFCURVE",
"724 160 OFFCURVE",
"724 292 CURVE SMOOTH",
"724 470 OFFCURVE",
"582 644 OFFCURVE",
"372 644 CURVE SMOOTH"
);
},
{
closed = 1;
nodes = (
"242 186 OFFCURVE",
"225 360 OFFCURVE",
"383 374 CURVE SMOOTH",
"411 376 OFFCURVE",
"435 369 OFFCURVE",
"442 366 CURVE",
"438 328 OFFCURVE",
"436 292 OFFCURVE",
"439 258 CURVE",
"410 222 OFFCURVE",
"376 216 OFFCURVE",
"358 212 CURVE SMOOTH"
);
}
);
width = 744;
}
);
unicode = 0040;
},
{
glyphname = ampersand;
lastChange = "2019-01-06 13:48:02 +0000";
layers = (
{
layerId = "24C63A81-7FC6-4EE9-AF2B-C1140AFD6C4B";
paths = (
{
closed = 1;
nodes = (
"390 554 OFFCURVE",
"410 587 OFFCURVE",
"386 631 CURVE SMOOTH",
"369 663 OFFCURVE",
"325 708 OFFCURVE",
"245 708 CURVE SMOOTH",
"152 708 OFFCURVE",
"74 644 OFFCURVE",
"74 551 CURVE SMOOTH",
"74 469 OFFCURVE",
"138 416 OFFCURVE",
"211 408 CURVE",
"130 387 OFFCURVE",
"44 285 OFFCURVE",
"44 179 CURVE SMOOTH",
"44 65 OFFCURVE",
"145 -7 OFFCURVE",
"270 -7 CURVE SMOOTH",
"368 -7 OFFCURVE",
"530 33 OFFCURVE",
"530 198 CURVE SMOOTH",
"530 249 OFFCURVE",
"514 295 OFFCURVE",
"503 319 CURVE",
"570 332 OFFCURVE",
"617 363 OFFCURVE",
"617 429 CURVE SMOOTH",
"617 479 OFFCURVE",
"590 516 OFFCURVE",
"540 516 CURVE SMOOTH",
"501 516 OFFCURVE",
"483 493 OFFCURVE",
"483 469 CURVE SMOOTH",
"483 450 OFFCURVE",
"494 432 OFFCURVE",
"518 432 CURVE SMOOTH",
"533 432 OFFCURVE",
"551 439 OFFCURVE",
"553 464 CURVE",
"558 459 OFFCURVE",
"564 451 OFFCURVE",
"564 434 CURVE SMOOTH",
"564 396 OFFCURVE",
"531 374 OFFCURVE",
"452 370 CURVE SMOOTH",
"325 363 OFFCURVE",
"256 312 OFFCURVE",
"256 252 CURVE SMOOTH",
"256 214 OFFCURVE",
"283 189 OFFCURVE",
"315 189 CURVE SMOOTH",
"336 189 OFFCURVE",
"359 199 OFFCURVE",
"359 229 CURVE SMOOTH",
"359 247 OFFCURVE",
"350 261 OFFCURVE",
"333 261 CURVE SMOOTH",
"327 261 OFFCURVE",
"317 259 OFFCURVE",
"312 249 CURVE",
"311 298 OFFCURVE",
"380 309 OFFCURVE",
"432 310 CURVE",
"443 287 OFFCURVE",
"452 263 OFFCURVE",
"452 226 CURVE SMOOTH",
"452 108 OFFCURVE",
"359 73 OFFCURVE",
"282 73 CURVE SMOOTH",
"196 73 OFFCURVE",
"124 111 OFFCURVE",
"124 191 CURVE SMOOTH",
"124 274 OFFCURVE",
"201 345 OFFCURVE",
"268 368 CURVE SMOOTH",
"306 381 OFFCURVE",
"311 405 OFFCURVE",
"311 418 CURVE SMOOTH",
"311 445 OFFCURVE",
"291 457 OFFCURVE",
"268 457 CURVE SMOOTH",
"203 457 OFFCURVE",
"154 483 OFFCURVE",
"154 547 CURVE SMOOTH",
"154 599 OFFCURVE",
"191 634 OFFCURVE",
"245 634 CURVE SMOOTH",
"290 634 OFFCURVE",
"308 610 OFFCURVE",
"320 584 CURVE SMOOTH",
"328 566 OFFCURVE",
"345 554 OFFCURVE",
"362 554 CURVE SMOOTH"
);
}
);
width = 661;
},
{
associatedMasterId = "24C63A81-7FC6-4EE9-AF2B-C1140AFD6C4B";
layerId = "FFA8A043-5006-4E16-8782-D3B06037EF4C";
name = "Jan 6 19, 14:16";
paths = (
{
closed = 1;
nodes = (
"789 507 OFFCURVE",
"751 546 OFFCURVE",
"693 546 CURVE SMOOTH",
"641 546 OFFCURVE",
"629 443 OFFCURVE",
"693 466 CURVE SMOOTH",
"708 471 OFFCURVE",
"709 471 OFFCURVE",
"709 457 CURVE SMOOTH",
"709 448 OFFCURVE",
"702 432 OFFCURVE",
"684 417 CURVE SMOOTH",
"669 405 OFFCURVE",
"641 390 OFFCURVE",
"593 390 CURVE SMOOTH",
"486 390 OFFCURVE",
"378 349 OFFCURVE",
"378 266 CURVE SMOOTH",
"378 182 OFFCURVE",
"507 160 OFFCURVE",
"507 228 CURVE SMOOTH",
"507 261 OFFCURVE",
"484 291 OFFCURVE",
"460 269 CURVE",
"471 293 OFFCURVE",
"526 305 OFFCURVE",
"568 309 CURVE",
"594 304 OFFCURVE",
"606 206 OFFCURVE",
"573 156 CURVE SMOOTH",
"521 75 OFFCURVE",
"200 53 OFFCURVE",
"177 119 CURVE",
"173 128 OFFCURVE",
"168 165 OFFCURVE",
"241 252 CURVE SMOOTH",
"285 305 OFFCURVE",
"335 347 OFFCURVE",
"335 347 CURVE",
"394 393 OFFCURVE",
"344 418 OFFCURVE",
"309 418 CURVE SMOOTH",
"193 418 OFFCURVE",
"188 472 OFFCURVE",
"266 546 CURVE SMOOTH",
"408 677 OFFCURVE",
"449 502 OFFCURVE",
"492 536 CURVE SMOOTH",
"518 557 OFFCURVE",
"505 588 OFFCURVE",
"472 629 CURVE SMOOTH",
"398 718 OFFCURVE",
"273 663 OFFCURVE",
"210 603 CURVE SMOOTH",
"96 494 OFFCURVE",
"112 372 OFFCURVE",
"232 353 CURVE",
"149 306 OFFCURVE",
"71 177 OFFCURVE",
"102 92 CURVE SMOOTH",
"159 -74 OFFCURVE",
"575 11 OFFCURVE",
"640 112 CURVE SMOOTH",
"686 182 OFFCURVE",
"673 290 OFFCURVE",
"652 317 CURVE",
"733 336 OFFCURVE",
"789 393 OFFCURVE",
"789 457 CURVE SMOOTH"
);
}
);
width = 848;
},
{
associatedMasterId = "24C63A81-7FC6-4EE9-AF2B-C1140AFD6C4B";
layerId = "62D7DB2C-FC12-4A1E-A935-9E6230598275";
name = "Jan 6 19, 14:34";
paths = (
{
closed = 1;
nodes = (
"627 487 OFFCURVE",
"610 526 OFFCURVE",
"560 526 CURVE",
"521 526 OFFCURVE",
"502 503 OFFCURVE",
"502 479 CURVE",
"502 460 OFFCURVE",
"514 442 OFFCURVE",
"537 442 CURVE",
"553 442 OFFCURVE",
"569 450 OFFCURVE",
"574 462 CURVE SMOOTH",
"576 455 OFFCURVE",
"577 447 OFFCURVE",
"577 439 CURVE",
"577 401 OFFCURVE",
"521 370 OFFCURVE",
"452 370 CURVE",
"345 370 OFFCURVE",
"256 308 OFFCURVE",
"256 245 CURVE",
"256 210 OFFCURVE",
"283 189 OFFCURVE",
"313 189 CURVE",
"334 189 OFFCURVE",
"359 199 OFFCURVE",
"359 229 CURVE",
"359 247 OFFCURVE",
"350 261 OFFCURVE",
"333 261 CURVE",
"327 261 OFFCURVE",
"317 259 OFFCURVE",
"312 249 CURVE SMOOTH",
"311 278 OFFCURVE",
"380 309 OFFCURVE",
"432 310 CURVE",
"443 287 OFFCURVE",
"452 263 OFFCURVE",
"452 226 CURVE SMOOTH",
"452 108 OFFCURVE",
"359 73 OFFCURVE",
"273 73 CURVE SMOOTH",
"206 73 OFFCURVE",
"124 94 OFFCURVE",
"124 177 CURVE SMOOTH",
"124 257 OFFCURVE",
"201 303 OFFCURVE",
"268 329 CURVE SMOOTH",
"306 344 OFFCURVE",
"311 367 OFFCURVE",
"311 382 CURVE SMOOTH",
"311 407 OFFCURVE",
"291 418 OFFCURVE",
"268 418 CURVE SMOOTH",
"203 418 OFFCURVE",
"162 449 OFFCURVE",
"162 495 CURVE SMOOTH",
"162 545 OFFCURVE",
"209 601 OFFCURVE",
"289 601 CURVE SMOOTH",
"385 601 OFFCURVE",
"398 532 OFFCURVE",
"438 532 CURVE SMOOTH",
"453 532 OFFCURVE",
"470 542 OFFCURVE",
"470 565 CURVE SMOOTH",
"470 617 OFFCURVE",
"384 675 OFFCURVE",
"292 675 CURVE SMOOTH",
"173 675 OFFCURVE",
"82 579 OFFCURVE",
"82 486 CURVE SMOOTH",
"82 424 OFFCURVE",
"122 370 OFFCURVE",
"215 371 CURVE",
"114 350 OFFCURVE",
"44 275 OFFCURVE",
"44 174 CURVE SMOOTH",
"44 55 OFFCURVE",
"144 -2 OFFCURVE",
"269 -2 CURVE SMOOTH",
"367 -2 OFFCURVE",
"530 33 OFFCURVE",
"530 198 CURVE SMOOTH",
"530 249 OFFCURVE",
"514 295 OFFCURVE",
"503 319 CURVE",
"584 340 OFFCURVE",
"627 373 OFFCURVE",
"627 443 CURVE"
);
}
);
width = 671;
}
);
leftMetricsKey = H;
rightMetricsKey = H;
unicode = 0026;
},
{
glyphname = section;
lastChange = "2019-01-06 14:29:39 +0000";
layers = (
{
layerId = "24C63A81-7FC6-4EE9-AF2B-C1140AFD6C4B";
paths = (
{
closed = 1;
nodes = (
"383 248 OFFCURVE",
"399 281 OFFCURVE",
"399 320 CURVE SMOOTH",
"399 378 OFFCURVE",
"362 449 OFFCURVE",
"269 486 CURVE SMOOTH",
"218 507 OFFCURVE",
"134 530 OFFCURVE",
"134 583 CURVE SMOOTH",
"134 627 OFFCURVE",
"187 639 OFFCURVE",
"225 639 CURVE SMOOTH",
"293 639 OFFCURVE",
"327 599 OFFCURVE",
"350 565 CURVE SMOOTH",
"358 553 OFFCURVE",
"369 547 OFFCURVE",
"379 547 CURVE SMOOTH",
"394 547 OFFCURVE",
"414 561 OFFCURVE",
"414 584 CURVE SMOOTH",
"414 662 OFFCURVE",
"317 716 OFFCURVE",
"228 716 CURVE SMOOTH",
"134 716 OFFCURVE",
"53 668 OFFCURVE",
"53 582 CURVE SMOOTH",
"53 551 OFFCURVE",
"62 516 OFFCURVE",
"88 499 CURVE",
"55 484 OFFCURVE",
"30 440 OFFCURVE",
"30 395 CURVE SMOOTH",
"30 323 OFFCURVE",
"89 267 OFFCURVE",
"209 223 CURVE SMOOTH",
"290 193 OFFCURVE",
"334 167 OFFCURVE",
"334 129 CURVE SMOOTH",
"334 93 OFFCURVE",
"295 72 OFFCURVE",
"234 72 CURVE SMOOTH",
"177 72 OFFCURVE",
"112 90 OFFCURVE",
"108 162 CURVE SMOOTH",
"106 183 OFFCURVE",
"91 193 OFFCURVE",
"76 193 CURVE SMOOTH",
"57 193 OFFCURVE",
"37 177 OFFCURVE",
"37 137 CURVE SMOOTH",
"37 45 OFFCURVE",
"124 -4 OFFCURVE",
"229 -4 CURVE SMOOTH",
"326 -4 OFFCURVE",
"413 48 OFFCURVE",
"413 134 CURVE SMOOTH",
"413 172 OFFCURVE",
"396 205 OFFCURVE",
"356 233 CURVE"
);
},
{
closed = 1;
nodes = (
"105 419 OFFCURVE",
"118 443 OFFCURVE",
"133 461 CURVE",
"166 447 OFFCURVE",
"199 435 OFFCURVE",
"233 422 CURVE SMOOTH",
"319 389 OFFCURVE",
"332 331 OFFCURVE",
"332 310 CURVE SMOOTH",
"331 288 OFFCURVE",
"318 273 OFFCURVE",
"306 262 CURVE",
"288 271 OFFCURVE",
"267 279 OFFCURVE",
"244 287 CURVE SMOOTH",
"172 312 OFFCURVE",
"105 345 OFFCURVE",
"105 396 CURVE SMOOTH"
);
}
);
width = 473;
}
);
unicode = 00A7;
},
{
glyphname = trademark;
lastChange = "2014-09-27 15:23:54 +0000";
layers = (
{
layerId = "24C63A81-7FC6-4EE9-AF2B-C1140AFD6C4B";
paths = (
{
closed = 1;
nodes = (
"88 677 LINE SMOOTH",
"66 676 OFFCURVE",
"49 658 OFFCURVE",
"50 635 CURVE SMOOTH",
"51 614 OFFCURVE",
"68 597 OFFCURVE",
"90 597 CURVE",
"171 600 LINE",
"171 432 LINE SMOOTH",
"171 410 OFFCURVE",
"189 392 OFFCURVE",
"211 392 CURVE SMOOTH",
"233 392 OFFCURVE",
"251 410 OFFCURVE",
"251 432 CURVE SMOOTH",
"251 604 LINE",
"335 607 LINE SMOOTH",
"357 608 OFFCURVE",
"374 627 OFFCURVE",
"373 649 CURVE SMOOTH",
"372 671 OFFCURVE",
"353 688 OFFCURVE",
"331 687 CURVE SMOOTH"
);
},
{
closed = 1;
nodes = (
"697 640 LINE SMOOTH",
"696 656 OFFCURVE",
"687 670 OFFCURVE",
"672 676 CURVE SMOOTH",
"657 682 OFFCURVE",
"640 679 OFFCURVE",
"629 668 CURVE SMOOTH",
"550 591 LINE",
"471 668 LINE SMOOTH",
"459 679 OFFCURVE",
"442 682 OFFCURVE",
"427 676 CURVE SMOOTH",
"413 670 OFFCURVE",
"403 655 OFFCURVE",
"403 639 CURVE SMOOTH",
"403 439 LINE SMOOTH",
"403 417 OFFCURVE",
"421 399 OFFCURVE",
"443 399 CURVE SMOOTH",
"465 399 OFFCURVE",
"483 417 OFFCURVE",
"483 439 CURVE SMOOTH",
"483 544 LINE",
"522 506 LINE SMOOTH",
"538 491 OFFCURVE",
"562 491 OFFCURVE",
"578 506 CURVE SMOOTH",
"620 548 LINE",
"624 438 LINE SMOOTH",
"625 416 OFFCURVE",
"642 399 OFFCURVE",
"664 399 CURVE",
"687 400 OFFCURVE",
"705 418 OFFCURVE",
"704 440 CURVE SMOOTH"
);
}
);
width = 764;
}
);
unicode = 2122;
},
{
glyphname = degree;
lastChange = "2014-09-27 15:23:54 +0000";
layers = (
{
layerId = "24C63A81-7FC6-4EE9-AF2B-C1140AFD6C4B";
paths = (
{
closed = 1;
nodes = (
"77 731 OFFCURVE",
"30 688 OFFCURVE",
"30 630 CURVE SMOOTH",
"30 571 OFFCURVE",
"77 519 OFFCURVE",
"136 519 CURVE SMOOTH",
"194 519 OFFCURVE",
"241 567 OFFCURVE",
"241 625 CURVE SMOOTH",
"241 684 OFFCURVE",
"194 731 OFFCURVE",
"136 731 CURVE SMOOTH"
);
},
{
closed = 1;
nodes = (
"164 677 OFFCURVE",
"187 654 OFFCURVE",
"187 625 CURVE SMOOTH",
"187 597 OFFCURVE",
"164 573 OFFCURVE",
"136 573 CURVE SMOOTH",
"107 573 OFFCURVE",
"84 601 OFFCURVE",
"84 630 CURVE SMOOTH",
"84 658 OFFCURVE",
"107 677 OFFCURVE",
"136 677 CURVE SMOOTH"
);
}
);
width = 271;
}
);
unicode = 00B0;
},
{
glyphname = bar;
lastChange = "2014-09-27 15:23:54 +0000";
layers = (
{
layerId = "24C63A81-7FC6-4EE9-AF2B-C1140AFD6C4B";
paths = (
{
closed = 1;
nodes = (
"203 742 LINE SMOOTH",
"203 789 OFFCURVE",
"130 794 OFFCURVE",
"130 742 CURVE SMOOTH",
"129 -140 LINE SMOOTH",
"129 -189 OFFCURVE",
"202 -188 OFFCURVE",
"202 -140 CURVE SMOOTH"
);
}
);
width = 300;
}
);
unicode = 007C;
},
